SplineFontDB: 1.0
FontName: Norasi-BoldOblique
FullName: Norasi Bold Oblique
FamilyName: Norasi
Weight: Bold
Copyright: Copyright (c) National Font Project NECTEC. Yannis Haralambous, Virach Sornlertlamvanich and Anutara Tantraporn, 1999. All rights reserved.\n\nThis release is under GPL license; maintained by TLWG
Version: 002 May 15, 2004
ItalicAngle: -12
UnderlinePosition: -100
UnderlineWidth: 50
Ascent: 800
Descent: 200
NeedsXUIDChange: 1
FSType: 0
PfmFamily: 17
TTFWeight: 700
TTFWidth: 5
Panose: 2 7 8 6 6 0 0 2 0 4
LineGap: 18
VLineGap: 0
ScriptLang: 3
 1 DFLT 1 dflt 
 1 thai 1 dflt 
 1 latn 1 dflt 
LangName: 1033 "" "" "" "TheOmegaProject(v.beta1).YannisHaralambous,VirachSornlertlamvanichandAnutaraTantraporn: Omega3: 1999" "" "" "" "Norasi Bold is a trademark of NECTEC. Yannis Haralambous, Virach Sornlertlamvanich and Anutara Tantraporn." "" "Yannis Haralambous, Virach Sornlertlamvanich and Anutara Tantraporn" "This font was developed under the National Font Project at NECTEC as to be a free licensed font for Thai users and developers." "www.nectec.or.th/sll/" "" "GPL" 
Encoding: custom
UnicodeInterp: none
DisplaySize: -72
AntiAlias: 1
FitToEm: 1
WinInfo: 0 8 9
BeginPrivate: 4
BlueValues 31 [-13 0 315 323 385 393 462 472]
OtherBlues 11 [-163 -151]
ForceBold 4 true
BlueScale 8 0.039625
EndPrivate
BeginChars: 424 390
StartChar: .notdef
Encoding: 0 -1 0
Width: 250
Flags: HW
HStem: 0 15<15 250> 370 15<0 235>
VStem: 0 15<0 370> 235 15<15 385>
Fore
15 370 m 1
 15 15 l 1
 235 15 l 1
 235 370 l 1
 15 370 l 1
250 0 m 1
 0 0 l 1
 0 385 l 1
 250 385 l 1
 250 0 l 1
EndSplineSet
EndChar
StartChar: exclam
Encoding: 33 33 2
Width: 227
Flags: HW
HStem: -9 116<111 136>
Back
107.91 36.1328 m 0
 105.469 24.9023 99.1211 15.1367 89.8438 7.32422 c 0
 80.5664 0 70.8008 -3.90625 61.0352 -3.90625 c 0
 37.1094 -3.90625 27.832 9.27734 34.1797 36.1328 c 0
 38.5742 61.5234 53.2227 76.1719 78.125 80.0781 c 1
 103.516 80.0781 113.281 65.4297 107.91 36.1328 c 0
183.105 399.902 m 1
 176.758 375 l 1
 97.168 116.211 l 1
 76.1719 116.211 l 1
 83.4961 169.922 89.3555 215.82 93.2617 253.418 c 0
 97.6562 291.016 101.562 324.219 104.98 352.051 c 0
 105.469 359.863 106.445 367.676 106.934 375 c 0
 109.863 396.973 l 0
 120.117 439.453 136.23 460.938 159.18 460.938 c 0
 183.594 460.938 191.895 441.895 184.082 402.832 c 1
 183.105 399.902 l 1
EndSplineSet
Fore
136 107 m 0
 164 107 182 87 182 61 c 0
 182 57 182 52 181 48 c 0
 174 16 143 -9 111 -9 c 0
 83 -9 65 10 65 36 c 0
 65 40 65 45 66 49 c 0
 73 80 105 107 136 107 c 0
157 160 m 1
 137 160 l 1
 142 208 144 240 144 270 c 0
 144 293 143 315 141 343 c 0
 139 358 138 369 138 378 c 0
 138 387 139 394 141 403 c 0
 150 446 176 472 213 472 c 0
 243 472 259 455 259 426 c 0
 259 419 258 411 256 402 c 0
 253 386 247 373 231 343 c 0
 197 277 184 244 157 160 c 1
EndSplineSet
EndChar
StartChar: quotedbl
Encoding: 34 34 3
Width: 378
Flags: HW
Back
287.109 389.16 m 1
 238.77 262.207 l 1
 209.961 262.207 l 1
 210.449 290.039 211.426 312.5 211.914 329.59 c 0
 212.891 346.68 213.379 359.863 213.867 369.141 c 0
 214.844 378.418 215.332 384.766 215.332 389.16 c 0
 215.82 393.066 216.309 396.484 216.797 398.926 c 0
 221.68 421.875 235.84 433.105 259.766 433.105 c 0
 283.203 433.105 292.969 421.875 289.062 398.926 c 2
 287.109 389.16 l 1
181.152 389.16 m 1
 131.836 262.207 l 1
 104.004 262.207 l 1
 104.492 290.039 105.469 312.5 105.957 329.59 c 0
 106.445 346.68 107.422 359.863 107.91 369.141 c 0
 108.887 378.418 109.375 384.766 109.375 389.16 c 0
 109.863 393.066 110.352 396.484 110.84 398.926 c 0
 115.723 421.875 129.883 433.105 153.809 433.105 c 0
 177.246 433.105 187.012 421.875 183.105 398.926 c 2
 181.152 389.16 l 1
EndSplineSet
Fore
174 276 m 1
 146 276 l 1
 143.655 311.169 144 332.332 144 363 c 0
 144 392 145 414 147 423 c 0
 153 453 174 472 200 472 c 0
 223 472 237 457 237 436 c 0
 237 433 237 429 236 426 c 0
 232 411 218 376 174 276 c 1
323 301 m 0
 323 325.593 321 353.035 321 372 c 0
 321 397 322 415 324 423 c 0
 330 453 352 472 378 472 c 0
 400 472 414 457 414 436 c 0
 414 433 414 429 413 426 c 0
 409 411 391 367 351 276 c 1
 323 276 l 1
 323 285 323 295 323 301 c 0
EndSplineSet
EndChar
StartChar: numbersign
Encoding: 35 35 4
Width: 341
Flags: HW
HStem: 0 21G<48 102 179 232> 143 50<43 98 170 229 300 349> 285 50<93 149 219 279 350 400>
DStem: 98 143 152 143 48 0 102 0 149 285 202 285 117 193 170 193 217 478 270 478 166 335 219 335 229 143 282 143 179 0 232 0 279 285 333 285 247 193 300 193 348 478 400 478 296 335 350 335
Back
188.965 195.801 m 1
 256.836 195.801 l 1
 282.227 266.113 l 1
 214.844 266.113 l 1
 188.965 195.801 l 1
407.227 266.113 m 1
 339.844 266.113 l 1
 312.988 195.801 l 1
 375.977 195.801 l 1
 363.77 142.09 l 1
 292.969 142.09 l 1
 244.141 0 l 1
 187.012 0 l 1
 235.84 142.09 l 1
 168.945 142.09 l 1
 118.164 0 l 1
 62.0117 0 l 1
 110.84 142.09 l 1
 43.9453 142.09 l 1
 56.1523 195.801 l 1
 132.812 195.801 l 1
 158.203 266.113 l 1
 88.8672 266.113 l 1
 100.098 319.824 l 1
 178.223 319.824 l 1
 226.074 452.148 l 1
 280.762 452.148 l 1
 233.887 319.824 l 1
 300.781 319.824 l 1
 348.145 452.148 l 1
 403.809 452.148 l 1
 356.934 319.824 l 1
 417.969 319.824 l 1
 407.227 266.113 l 1
EndSplineSet
Fore
360 193 m 1
 349 143 l 1
 282 143 l 1
 232 0 l 1
 179 0 l 1
 229 143 l 1
 152 143 l 1
 102 0 l 1
 48 0 l 1
 98 143 l 1
 33 143 l 1
 44 193 l 1
 117 193 l 1
 149 285 l 1
 84 285 l 1
 94 335 l 1
 166 335 l 1
 217 478 l 1
 270 478 l 1
 219 335 l 1
 296 335 l 1
 348 478 l 1
 400 478 l 1
 350 335 l 1
 410 335 l 1
 400 285 l 1
 333 285 l 1
 300 193 l 1
 360 193 l 1
279 285 m 1
 202 285 l 1
 170 193 l 1
 247 193 l 1
 279 285 l 1
EndSplineSet
EndChar
StartChar: dollar
Encoding: 36 36 5
Width: 341
Flags: HW
VStem: 89 75<311 365> 269 85<113 166>
DStem: 146 0 184 0 132 -68 170 -68 186 192 220 171 149 20 188 20 239 440 277 438 211 310 246 291 255 512 293 512 244 459 282 460
Back
208.984 303.223 m 1
 235.84 429.199 l 1
 202.148 420.898 181.152 400.879 173.828 369.141 c 0
 172.852 361.816 172.852 354.492 173.828 347.168 c 0
 175.293 339.844 177.734 334.473 181.152 331.055 c 2
 208.984 303.223 l 1
267.09 110.84 m 0
 270.996 130.371 268.066 147.461 257.812 162.109 c 0
 255.371 164.551 251.465 167.969 247.07 172.363 c 0
 242.188 176.758 235.84 182.617 227.051 189.941 c 1
 194.824 39.0625 l 1
 234.863 47.8516 258.789 71.7773 267.09 110.84 c 0
339.844 126.953 m 0
 324.707 57.6172 273.438 16.1133 187.012 1.95312 c 1
 174.805 -57.1289 l 1
 133.789 -57.1289 l 1
 145.996 0 l 1
 104.004 1.95312 65.918 15.1367 32.2266 39.0625 c 1
 54.1992 141.113 l 1
 81.0547 141.113 l 1
 81.0547 75.6836 105.469 41.0156 153.809 37.1094 c 1
 190.918 212.891 l 1
 175.781 224.121 162.598 234.375 151.855 243.652 c 0
 141.113 252.441 132.324 261.23 125 269.043 c 1
 104.98 295.898 98.1445 324.707 104.98 355.957 c 0
 111.816 390.137 130.859 417.48 162.109 438.965 c 0
 175.293 447.754 188.477 454.102 202.148 458.984 c 0
 215.332 463.867 229.492 466.797 245.117 467.773 c 1
 254.883 511.23 l 1
 295.898 511.23 l 1
 286.133 465.82 l 1
 330.078 458.008 l 2
 340.82 456.055 351.074 451.172 361.328 443.359 c 0
 372.07 436.035 378.906 428.711 381.836 421.875 c 1
 363.77 338.867 l 1
 336.914 338.867 l 1
 338.867 392.09 319.336 422.852 277.832 430.176 c 1
 246.094 278.809 l 1
 293.945 244.141 l 1
 324.219 214.844 l 1
 341.797 190.43 347.168 161.133 339.844 126.953 c 0
EndSplineSet
Fore
362 328 m 1
 348 328 l 1
 342 397 323 427 277 438 c 1
 246 291 l 1
 305 257 322 243 340 216 c 0
 349 203 354 186 354 166 c 0
 354 156 352 145 350 134 c 0
 332.593 51.3171 281.825 16.8663 184 0 c 1
 170 -68 l 1
 132 -68 l 1
 146 0 l 1
 104 2 88 6 37 29 c 1
 60 136 l 1
 74 134 l 1
 81 61 101 30 149 20 c 1
 186 192 l 1
 118 231 89 265 89 311 c 0
 89 370.41 125.138 415.513 173 440 c 0
 196 451 212 455 244 459 c 1
 255 512 l 1
 293 512 l 1
 282 460 l 1
 333 451 354 444 382 425 c 1
 362 328 l 1
220 171 m 1
 188 20 l 1
 233 29 258 51 266 91 c 0
 268 100 269 107 269 113 c 0
 269 135 257 147 220 171 c 1
211 310 m 1
 239 440 l 1
 193 429 172 411 165 378 c 0
 164 373 164 369 164 365 c 0
 164 340 179 322 211 310 c 1
EndSplineSet
EndChar
StartChar: percent
Encoding: 37 37 6
Width: 682
Flags: HW
HStem: -10 32<454 484> 219 35<574 588> 399 26<432 450> 431 32<337 346>
VStem: 145 73<258 271> 380 77<46 60> 614 24<182 195>
DStem: 517 418 597 472 189 -5 227 -5
Back
298.828 381.836 m 0
 300.293 387.207 300.293 395.508 298.828 405.762 c 1
 289.062 410.156 279.785 415.039 270.996 420.898 c 2
 264.16 425.781 l 1
 244.141 423.828 220.703 404.785 193.848 368.164 c 0
 181.152 350.098 170.898 333.496 163.086 318.359 c 0
 154.785 303.711 149.902 289.551 146.973 276.855 c 0
 141.113 249.023 148.438 234.863 169.922 234.863 c 0
 196.777 234.863 223.633 252.441 250.977 288.086 c 0
 263.672 304.199 273.926 319.824 282.227 335.449 c 0
 290.039 351.074 295.898 366.699 298.828 381.836 c 0
516.113 180.176 m 0
 519.531 193.359 518.555 204.59 514.16 213.867 c 0
 509.277 223.145 500.977 228.027 488.77 228.027 c 0
 466.309 228.027 439.453 207.52 409.18 166.016 c 1
 384.277 129.883 369.629 101.562 365.234 80.0781 c 0
 358.887 51.7578 367.188 38.0859 390.137 38.0859 c 0
 414.551 38.0859 440.918 55.1758 469.238 89.8438 c 0
 482.422 105.469 492.676 120.117 500 134.766 c 0
 507.324 149.902 512.695 164.551 516.113 180.176 c 0
554.199 185.059 m 0
 544.434 141.602 523.438 101.562 491.211 64.9414 c 0
 453.613 21.4844 413.574 0 371.094 0 c 0
 340.332 0 319.336 9.27734 307.617 27.832 c 0
 295.898 46.875 292.969 70.8008 298.828 101.074 c 0
 307.617 139.648 331.543 177.246 370.117 213.867 c 0
 410.156 250 449.707 268.066 488.77 268.066 c 0
 544.434 268.066 565.918 240.234 554.199 185.059 c 0
528.809 473.145 m 1
 158.203 -6.83594 l 1
 104.98 -6.83594 l 1
 419.922 400.879 l 1
 400.879 395.508 383.301 393.066 368.164 393.066 c 0
 361.816 393.066 356.445 393.066 351.074 393.066 c 0
 345.703 393.066 340.332 393.555 334.961 395.02 c 1
 334.961 379.883 l 1
 331.543 364.746 326.66 349.609 320.312 334.473 c 0
 313.965 319.336 305.176 304.199 293.945 289.062 c 0
 289.551 281.738 281.25 271.973 270.02 259.766 c 0
 231.445 216.797 190.43 194.824 146.973 194.824 c 0
 119.141 194.824 99.6094 204.59 88.3789 224.121 c 0
 77.6367 243.164 75.1953 267.09 81.0547 294.922 c 0
 88.8672 334.961 112.305 373.535 150.879 410.156 c 0
 188.965 445.801 229.004 463.867 270.996 463.867 c 0
 287.109 463.867 303.711 457.52 320.801 443.848 c 1
 342.285 433.105 359.375 428.223 372.07 428.223 c 0
 405.273 428.223 441.895 442.871 481.934 473.145 c 1
 528.809 473.145 l 1
EndSplineSet
Fore
574 254 m 0
 614 254 638 231 638 195 c 0
 638 136.154 590.446 65.3764 545 27 c 0
 518 4 484 -10 454 -10 c 0
 407 -10 380 17 380 60 c 0
 380 68 381 76 383 85 c 0
 401 169 496 254 574 254 c 0
484 22 m 0
 538.028 22 614 132.573 614 185 c 0
 614 205 604 219 588 219 c 0
 570 219 552 208 530 184 c 0
 500 150 464 88 458 60 c 0
 457 56 457 52 457 48 c 0
 457 31 466 22 484 22 c 0
597 472 m 1
 227 -5 l 1
 189 -5 l 1
 517 418 l 1
 485 406 458 399 435 399 c 0
 425 399 417 400 403 403 c 1
 390 342 371 304 332 261 c 0
 297 222 257 201 216 201 c 0
 172 201 145 229 145 271 c 0
 145 278 145 286 147 294 c 0
 166 381 258 463 337 463 c 0
 354 463 369 457 384 444 c 0
 402 429 416 425 444 425 c 0
 485 425 540 444 560 465 c 0
 564 470 568 472 571 472 c 2
 597 472 l 1
364 418 m 0
 357.568 421.216 350.583 431 344 431 c 0
 333 431 313 417 295 397 c 0
 264 361 229 302 219 270 c 0
 218 266 218 263 218 260 c 0
 218 244 227 232 244 232 c 0
 266 232 288 245 313 274 c 0
 346 310 370 354 377 388 c 0
 378 392 378 395 378 398 c 0
 378 407 374 413 364 418 c 0
EndSplineSet
EndChar
StartChar: ampersand
Encoding: 38 38 7
Width: 568
Flags: HW
HStem: -11 69<424 496> 449 23<351 374>
VStem: 62 111<85 157> 215 91<338 393> 398 74<386 405>
Back
357.91 376.953 m 0
 361.328 390.137 359.863 401.367 354.004 410.645 c 0
 348.145 419.434 338.867 423.828 326.172 423.828 c 0
 299.316 423.828 282.227 407.715 274.902 375 c 0
 272.461 362.793 270.996 350.586 271.484 337.402 c 0
 271.973 324.707 273.926 310.547 277.832 294.922 c 1
 325.195 318.848 352.051 346.191 357.91 376.953 c 0
182.129 41.9922 m 0
 203.125 41.9922 232.422 54.1992 269.043 78.125 c 1
 258.301 95.2148 248.047 116.211 237.793 140.137 c 0
 228.027 164.062 217.773 190.918 208.008 221.191 c 1
 163.086 188.965 l 1
 151.855 179.199 143.066 168.457 137.207 158.203 c 0
 130.859 147.461 126.953 137.207 125 126.953 c 0
 120.117 104.98 123.535 85.4492 133.789 67.8711 c 0
 144.531 50.7812 160.645 41.9922 182.129 41.9922 c 0
519.043 77.1484 m 1
 511.719 61.5234 501.953 47.8516 490.234 36.1328 c 1
 473.145 21.9727 457.031 11.2305 440.918 3.90625 c 0
 424.805 -3.41797 408.203 -6.83594 391.113 -6.83594 c 0
 356.445 -6.83594 322.754 11.2305 290.039 46.875 c 1
 245.117 18.0664 l 2
 238.281 14.1602 230.469 10.2539 221.68 6.83594 c 0
 212.402 3.90625 203.125 0.976562 192.871 -0.976562 c 0
 183.105 -2.92969 172.852 -4.39453 163.086 -5.37109 c 0
 152.832 -6.34766 143.555 -6.83594 134.766 -6.83594 c 0
 98.1445 -6.83594 71.2891 1.95312 54.1992 20.5078 c 0
 36.6211 39.0625 32.2266 66.4062 40.0391 103.027 c 0
 51.7578 158.203 98.1445 207.031 178.223 249.023 c 2
 199.219 259.766 l 1
 195.801 287.109 194.336 307.129 194.336 318.848 c 0
 194.824 331.055 195.801 340.82 196.777 348.145 c 0
 200.195 363.281 206.055 377.93 214.355 391.602 c 0
 222.656 405.273 232.91 416.992 245.117 427.734 c 0
 256.836 437.988 270.508 445.801 285.156 452.148 c 0
 299.805 458.008 314.941 460.938 331.055 460.938 c 0
 358.398 460.938 379.883 453.613 395.996 438.477 c 0
 412.109 423.34 416.992 401.855 411.133 374.023 c 0
 404.785 343.262 386.719 316.895 355.957 293.945 c 0
 350.586 289.551 342.285 284.18 331.055 277.832 c 0
 319.824 271.973 305.176 265.137 288.086 256.836 c 1
 299.805 214.844 316.895 176.758 337.891 142.09 c 1
 359.375 164.062 375.977 183.594 387.695 201.172 c 0
 398.926 218.262 406.25 232.91 409.18 245.117 c 0
 412.109 258.789 399.902 266.113 372.07 266.113 c 1
 377.93 297.852 l 1
 540.039 297.852 l 1
 534.18 267.09 l 1
 523.926 265.625 515.625 264.16 508.301 262.695 c 0
 501.465 260.742 496.094 259.277 493.164 257.812 c 0
 484.375 254.883 474.121 245.605 461.914 230.957 c 2
 439.941 202.148 l 2
 426.758 184.57 413.086 167.969 398.926 151.855 c 0
 384.766 136.23 371.094 120.605 356.934 105.957 c 1
 365.723 85.4492 381.836 70.3125 405.762 61.0352 c 1
 411.133 57.6172 419.434 56.1523 431.152 56.1523 c 0
 443.848 56.1523 454.102 58.1055 462.891 62.9883 c 0
 467.773 64.4531 472.656 67.8711 478.027 73.2422 c 0
 483.398 78.125 490.723 85.4492 500 94.2383 c 1
 519.043 77.1484 l 1
EndSplineSet
Fore
472 405 m 0
 472 349.262 420.347 314.116 345 289 c 1
 417 143 l 1
 468 192 484 214 490 242 c 0
 491 246 491 249 491 251 c 0
 491 263 483 266 451 270 c 1
 455 286 l 1
 596 286 l 1
 592 270 l 1
 562 267 553 262 536 242 c 2
 511 212 l 2
 487 183 477 172 429 120 c 1
 456 71 470 58 496 58 c 0
 512 58 526 66 542 84 c 1
 553 76 l 1
 538 58 l 2
 501.515 13.5829 472.295 -11 424 -11 c 0
 388 -11 366 4 334 49 c 1
 270 8 221 -10 171 -10 c 0
 104 -10 62 28 62 85 c 0
 62 164.269 127.814 218.262 232 265 c 1
 220 298 215 318 215 338 c 0
 215 346 216 355 218 364 c 0
 232 430 292 472 374 472 c 0
 435 472 472 446 472 405 c 0
173 157 m 0
 173 105.981 202.289 42 256 42 c 0
 274 42 292 49 323 68 c 1
 311.432 90.3647 265.11 189.475 240 244 c 1
 189.366 219.272 173 199.09 173 157 c 0
351 449 m 0
 322.706 449 306 423.925 306 393 c 0
 306 370 316 345 337 309 c 1
 373 320 390 336 396 364 c 0
 398 372 398 379 398 386 c 0
 398 422 379 449 351 449 c 0
EndSplineSet
EndChar
StartChar: quotesingle
Encoding: 39 39 8
Width: 129
Flags: HW
Back
172.852 438.965 m 0
 171.875 440.43 169.434 441.406 166.504 441.406 c 0
 163.574 441.895 160.156 441.895 157.227 441.895 c 0
 145.508 441.895 134.766 437.988 125 430.176 c 0
 115.234 421.875 108.887 412.109 105.957 399.902 c 0
 103.516 388.672 105.469 379.395 112.305 371.582 c 0
 119.629 363.77 128.906 359.863 140.137 359.863 c 0
 143.555 359.863 145.996 360.352 148.438 360.352 c 0
 155.762 361.816 l 1
 154.785 356.934 l 2
 152.832 347.168 147.461 337.402 138.184 328.125 c 0
 128.906 318.848 119.141 311.035 109.863 305.176 c 0
 105.469 301.758 101.562 299.316 99.1211 298.34 c 0
 96.1914 297.363 95.2148 296.875 95.2148 296.875 c 1
 99.1211 271.973 l 1
 99.1211 271.973 103.516 273.926 111.816 277.832 c 0
 120.605 282.227 130.859 288.086 142.09 296.387 c 0
 153.32 304.688 164.551 315.43 174.805 328.125 c 0
 185.547 340.82 192.871 355.957 196.777 374.023 c 0
 201.172 390.625 200.195 404.297 194.824 415.527 c 0
 189.453 426.27 182.129 434.57 172.852 438.965 c 0
EndSplineSet
Fore
114 188 m 1
 95 188 l 1
 95 247 l 2
 95 267 95 284 96 289 c 0
 102 309 114 322 133 322 c 0
 148 322 157 313 157 299 c 0
 157 296 157 292 156 289 c 0
 154 278 130 222 114 188 c 1
EndSplineSet
EndChar
StartChar: parenleft
Encoding: 40 40 9
Width: 227
Flags: HW
VStem: 61 67<33 106>
Back
148.926 -121.094 m 1
 101.562 -86.4258 69.8242 -42.4805 53.7109 9.76562 c 0
 37.1094 62.5 36.1328 121.094 49.8047 186.035 c 0
 76.1719 309.57 152.344 407.227 278.809 479.98 c 1
 288.086 455.078 l 1
 247.559 426.27 216.797 398.438 195.801 371.094 c 0
 187.5 360.352 179.199 347.656 171.875 332.52 c 0
 164.551 317.383 157.715 301.758 150.879 285.156 c 0
 144.531 268.555 138.672 251.465 133.301 233.887 c 0
 128.418 216.797 124.512 200.195 121.094 185.059 c 0
 112.305 145.02 106.934 115.723 105.469 96.6797 c 0
 104.004 77.6367 104.004 62.0117 105.957 49.8047 c 0
 110.84 17.0898 117.676 -11.2305 126.465 -35.1562 c 0
 135.742 -59.082 150.879 -79.5898 171.875 -97.168 c 1
 148.926 -121.094 l 1
EndSplineSet
Fore
128 33 m 0
 128 -36.294 141.87 -61.3453 189 -96 c 1
 185 -115 l 1
 126 -74 103 -47 81 2 c 0
 68 34 61 69 61 106 c 0
 61 129 64 153 69 177 c 0
 87 265 137 346 208 409 c 0
 240 437 263 451 310 474 c 1
 306 455 l 1
 259 428 239 410 218 380 c 0
 190 339 166 270 146 176 c 0
 134 117 128 70 128 33 c 0
EndSplineSet
EndChar
StartChar: parenright
Encoding: 41 41 10
Width: 227
Flags: HW
VStem: 176 66<251 324>
Back
7.8125 -122.07 m 1
 70.8008 -87.4023 121.094 -43.457 160.156 8.78906 c 0
 198.73 61.5234 224.609 120.117 237.793 185.059 c 0
 264.16 308.105 229.492 406.25 133.789 479.004 c 1
 115.234 454.102 l 1
 141.602 425.293 160.156 397.461 170.898 370.117 c 0
 174.805 359.375 177.734 346.68 178.711 331.543 c 0
 179.688 316.406 179.688 300.781 179.199 284.18 c 0
 178.223 267.09 176.758 250.488 174.316 232.91 c 0
 172.363 215.82 169.434 199.219 166.016 184.082 c 0
 162.109 164.062 158.203 146.973 154.297 132.324 c 0
 150.879 118.164 147.461 105.957 144.043 95.7031 c 0
 140.625 84.9609 137.695 76.1719 134.277 68.8477 c 0
 131.348 61.5234 127.93 55.1758 124.023 48.8281 c 0
 105.957 16.1133 87.4023 -12.207 67.8711 -36.1328 c 0
 48.8281 -60.0586 24.4141 -80.5664 -4.88281 -98.1445 c 1
 7.8125 -122.07 l 1
EndSplineSet
Fore
176 324 m 0
 176 395.403 162.062 417.921 115 455 c 1
 119 474 l 1
 177 434 201 406 222 357 c 0
 236 325 242 289 242 251 c 0
 242 229 240 205 235 182 c 0
 216 94 168 13 95 -50 c 0
 63 -78 41 -92 -6 -115 c 1
 -2 -96 l 1
 44 -69 65 -51 86 -21 c 0
 113 20 138 89 158 183 c 0
 170 241 176 287 176 324 c 0
EndSplineSet
EndChar
StartChar: asterisk
Encoding: 42 42 11
Width: 341
Flags: HW
HStem: 231 73<122 162> 343 73<323 358>
VStem: 183 69<202 218> 229 69<426 445>
Back
320.801 291.016 m 0
 316.406 294.434 310.547 296.875 303.711 298.828 c 0
 296.387 300.781 289.551 303.223 282.715 305.176 c 0
 275.391 307.129 269.043 309.082 262.695 311.523 c 0
 256.348 313.965 250.977 316.406 247.07 318.848 c 1
 252.441 321.777 258.789 323.73 266.113 325.684 c 0
 273.438 327.148 280.762 329.102 289.062 331.055 c 0
 296.875 333.008 304.688 334.961 312.012 337.402 c 0
 319.336 339.844 326.172 342.285 332.031 345.215 c 0
 354.492 356.445 362.793 371.094 355.957 390.137 c 0
 348.633 408.691 333.984 412.109 312.012 399.902 c 0
 306.152 397.461 299.805 393.555 293.457 388.672 c 0
 287.109 383.301 280.762 377.93 273.926 372.559 c 0
 267.09 366.699 260.742 361.328 254.395 356.445 c 0
 248.047 351.562 242.188 347.656 236.816 345.215 c 1
 238.281 350.098 240.723 356.445 244.141 363.281 c 0
 247.559 370.605 250.488 377.441 253.906 384.766 c 0
 257.324 392.09 260.742 399.902 264.16 407.227 c 0
 267.09 414.551 269.531 420.898 270.996 426.758 c 0
 273.438 438.477 272.949 446.777 269.531 453.125 c 0
 265.625 458.984 257.812 461.914 246.094 461.914 c 0
 234.863 461.914 226.074 458.984 220.215 453.125 c 0
 213.867 446.777 209.473 438.477 207.031 426.758 c 0
 204.102 415.039 204.102 401.367 206.055 385.742 c 0
 208.008 369.629 208.008 356.445 206.055 345.215 c 1
 202.148 347.656 198.242 351.562 193.848 356.445 c 0
 189.941 361.328 186.035 366.699 181.641 372.559 c 0
 168.457 388.672 l 0
 164.062 393.555 159.668 397.461 154.785 399.902 c 0
 137.695 412.109 121.094 408.691 105.957 390.137 c 0
 91.7969 371.094 93.75 356.445 110.84 345.215 c 0
 115.723 342.285 121.582 339.844 128.418 337.402 c 0
 135.742 334.961 142.578 333.008 149.414 331.055 c 0
 156.738 329.102 163.574 327.148 169.922 325.684 c 0
 176.758 323.73 182.129 321.777 186.035 318.848 c 1
 180.664 316.406 174.316 313.965 166.504 311.523 c 0
 158.691 309.082 150.879 307.129 143.066 305.176 c 0
 134.766 303.223 127.441 300.781 120.117 298.828 c 0
 112.793 296.875 105.957 294.434 100.098 291.016 c 0
 78.125 279.785 69.8242 264.648 75.1953 246.094 c 0
 82.5195 227.539 97.168 224.121 120.117 235.84 c 0
 125.977 239.258 132.324 243.652 138.672 248.535 c 0
 145.02 253.418 151.367 258.789 158.203 264.16 c 0
 164.551 269.531 171.387 274.414 177.734 279.297 c 0
 183.594 284.668 189.453 288.574 194.824 291.016 c 1
 193.848 285.645 191.406 279.297 187.988 272.461 c 0
 184.57 265.625 181.152 258.301 177.734 250.977 c 0
 173.828 243.652 170.41 236.328 167.48 229.492 c 0
 164.551 222.656 162.109 215.82 161.133 209.961 c 0
 158.203 198.242 158.691 188.965 162.598 183.105 c 0
 166.016 176.758 173.828 173.828 185.059 173.828 c 0
 196.777 173.828 206.055 176.758 211.914 183.105 c 0
 217.773 188.965 222.168 198.242 225.098 209.961 c 0
 226.562 215.82 227.051 222.656 226.562 229.492 c 0
 226.074 236.328 226.074 243.652 225.586 250.977 c 0
 225.098 258.301 224.609 265.625 224.609 272.461 c 0
 224.121 279.297 224.609 285.645 226.074 291.016 c 1
 229.98 288.574 233.887 284.668 237.793 279.297 c 0
 242.188 274.414 246.094 269.043 250.488 263.672 c 0
 254.883 257.812 259.277 252.441 263.672 247.559 c 0
 268.066 242.676 272.461 238.77 276.855 235.84 c 0
 294.434 224.121 310.547 227.539 325.195 246.094 c 0
 333.008 255.859 336.426 264.648 335.449 271.973 c 0
 334.473 279.297 329.59 285.645 320.801 291.016 c 0
EndSplineSet
Fore
241 367 m 0
 241 380.905 229 410.873 229 426 c 0
 229 430 229 434 230 438 c 0
 234 457 252 472 272 472 c 0
 288 472 298 461 298 445 c 0
 298 441 298 438 297 434 c 0
 295 424 292 417 279 401 c 0
 258.847 377.068 255.665 365.43 251 339 c 1
 256 337 l 1
 286 357 292 364 316 389 c 0
 333 410 343 416 358 416 c 0
 374 416 387 403 387 388 c 0
 387 386 386 384 386 382 c 0
 383 369 369 354 355 348 c 0
 345 345 339 343 323 343 c 0
 294 342 284 339 259 325 c 1xd0
 258 320 l 1
 279 308 290 305 319 302 c 0
 350 300 363 293 363 277 c 0
 363 250.214 342.248 233 322 233 c 0
 303 233 293 242 280 276 c 1
 270 295 265 300 248 310 c 1
 242 307 l 1
 241 297 240 289 240 282 c 0
 240 267 243 257 248 238 c 0
 251 229 252 223 252 218 c 0
 252 215 251 213 251 210 c 0
 246 190 228 174 208 174 c 0
 192 174 183 185 183 202 c 0xe0
 183 221.805 188.573 228.054 201 245 c 0
 219 268 222 275 230 307 c 1
 226 310 l 1
 196 291 189 285 165 259 c 0
 147 238 136 231 122 231 c 0
 106 231 95 242 95 257 c 0
 95 290.953 123.912 304 162 304 c 0
 191 305 197 307 222 322 c 1
 224 327 l 1
 199 339 189 342 158 345 c 0
 129 347 118 353 118 369 c 0
 118 397.584 135.723 414 159 414 c 0
 177 414 186 406 195 383 c 0
 207 356 210 352 233 337 c 1
 238 339 l 1
 240 351 241 360 241 367 c 0
EndSplineSet
EndChar
StartChar: plus
Encoding: 43 43 12
Width: 389
Flags: HW
HStem: 0 21G<165 225> 143 60<65 195 268 397>
DStem: 195 143 255 143 165 0 225 0 238 345 298 345 208 203 268 203
Back
401.855 151.855 m 1
 251.953 151.855 l 1
 220.215 0 l 1
 167.969 0 l 1
 200.195 151.855 l 1
 48.8281 151.855 l 1
 60.0586 203.125 l 1
 210.938 203.125 l 1
 243.164 354.004 l 1
 294.922 354.004 l 1
 263.184 203.125 l 1
 413.086 203.125 l 1
 401.855 151.855 l 1
EndSplineSet
Fore
208 203 m 1
 238 345 l 1
 298 345 l 1
 268 203 l 1
 410 203 l 1
 397 143 l 1
 255 143 l 1
 225 0 l 1
 165 0 l 1
 195 143 l 1
 53 143 l 1
 66 203 l 1
 208 203 l 1
EndSplineSet
EndChar
StartChar: comma
Encoding: 44 44 13
Width: 170
Flags: HW
HStem: -23 20G<87 92 91 95>
Back
96.1914 77.1484 m 0
 94.7266 78.125 92.2852 79.1016 89.3555 79.5898 c 0
 86.4258 79.5898 83.4961 80.0781 80.0781 80.0781 c 0
 68.8477 80.0781 58.1055 76.1719 47.8516 67.8711 c 0
 38.0859 60.0586 31.7383 49.8047 28.8086 38.0859 c 0
 26.3672 26.8555 28.3203 17.0898 35.6445 9.27734 c 0
 42.4805 1.95312 51.7578 -1.95312 62.9883 -1.95312 c 0
 66.4062 -1.95312 69.3359 -1.95312 71.2891 -1.46484 c 0
 73.7305 -0.976562 76.1719 -0.488281 79.1016 0 c 1
 78.125 -4.88281 l 2
 76.1719 -15.1367 70.3125 -24.9023 61.0352 -34.1797 c 0
 51.7578 -43.457 42.4805 -50.7812 33.2031 -57.1289 c 0
 28.3203 -60.5469 24.9023 -62.5 21.9727 -63.4766 c 0
 19.5312 -64.4531 18.0664 -64.9414 18.0664 -64.9414 c 1
 21.9727 -89.8438 l 1
 21.9727 -89.8438 26.3672 -87.8906 35.1562 -83.9844 c 0
 43.457 -80.0781 53.7109 -73.7305 65.4297 -65.4297 c 0
 77.1484 -57.1289 88.3789 -46.875 99.1211 -34.1797 c 0
 109.863 -21.4844 117.188 -5.85938 121.094 12.207 c 0
 124.512 28.8086 123.535 42.4805 118.164 53.7109 c 0
 112.793 64.4531 105.469 72.2656 96.1914 77.1484 c 0
EndSplineSet
Fore
92 -3 m 0
 85.8526 -3 80.5914 -4 75 -4 c 0
 50 -4 36 12 36 36 c 0
 36 40 36 44 37 49 c 0
 45 83 72 106 106 106 c 0
 140 106 160 84 160 49 c 0
 160 42 160 35 158 27 c 0
 145 -32 102 -77 13 -123 c 1
 8 -108 l 1
 68 -72 97 -44 102 -18 c 2
 102 -14 l 2
 102 -7 98 -3 92 -3 c 0
EndSplineSet
KernsSLIF: 49 -8 0 0 148 6 0 0 146 -15 0 0
EndChar
StartChar: hyphen
Encoding: 45 45 14
Width: 227
Flags: HW
HStem: 117 79<71 221>
Back
265.137 83.0078 m 1
 47.8516 83.0078 l 1
 55.1758 116.211 l 1
 271.973 116.211 l 1
 265.137 83.0078 l 1
EndSplineSet
Fore
238 196 m 1
 221 117 l 1
 55 117 l 1
 72 196 l 1
 238 196 l 1
EndSplineSet
KernsSLIF: 65 -12 0 0 264 -16 0 0 306 -12 0 0 309 -12 0 0 310 -12 0 0 84 -50 0 0 86 -49 0 0 87 -36 0 0 89 -56 0 0
EndChar
StartChar: period
Encoding: 46 46 15
Width: 170
Flags: HW
HStem: -9 21G<69 99>
Back
105.957 32.2266 m 0
 103.516 21.4844 97.168 12.6953 87.4023 5.37109 c 0
 77.6367 -1.46484 67.8711 -4.88281 58.1055 -4.88281 c 0
 47.8516 -4.88281 40.0391 -1.46484 33.6914 5.37109 c 0
 27.3438 12.6953 25.3906 21.4844 27.832 32.2266 c 0
 29.7852 42.4805 35.6445 51.7578 44.4336 59.5703 c 0
 53.7109 67.3828 63.4766 70.8008 74.2188 70.8008 c 0
 83.9844 70.8008 92.2852 66.8945 99.1211 59.082 c 0
 105.469 50.7812 107.91 41.9922 105.957 32.2266 c 0
EndSplineSet
Fore
108 107 m 0
 136 107 154 87 154 61 c 0
 154 57 154 52 153 48 c 0
 146 16 115 -9 83 -9 c 0
 55 -9 37 10 37 36 c 0
 37 40 37 45 38 49 c 0
 45 80 77 107 108 107 c 0
EndSplineSet
KernsSLIF: 49 -14 0 0 148 3 0 0 146 -18 0 0
EndChar
StartChar: slash
Encoding: 47 47 16
Width: 189
Flags: HW
DStem: 245 472 306 472 -19 -13 42 -13
Back
342.773 477.051 m 1
 29.7852 -117.188 l 1
 -21.9727 -117.188 l 1
 290.039 477.051 l 1
 342.773 477.051 l 1
EndSplineSet
Fore
306 472 m 1
 42 -13 l 1
 -19 -13 l 1
 245 472 l 1
 306 472 l 1
EndSplineSet
EndChar
StartChar: zero
Encoding: 48 48 17
Width: 341
Flags: HW
HStem: -9 19<167 175> 451 19<263 273>
VStem: 56 87<58 149> 295 88<310 402>
Back
297.852 226.074 m 0
 327.148 360.84 316.895 428.223 267.09 428.223 c 0
 218.262 428.223 179.199 360.84 149.902 226.074 c 0
 122.07 91.7969 132.324 24.9023 181.152 24.9023 c 0
 230.957 24.9023 270.02 91.7969 297.852 226.074 c 0
377.93 226.074 m 0
 372.07 197.266 364.258 170.898 354.492 146.484 c 0
 344.727 122.07 332.52 99.6094 317.871 79.1016 c 0
 277.832 20.9961 229.98 -7.8125 173.828 -7.8125 c 0
 145.508 -7.8125 123.047 -0.488281 106.445 14.1602 c 0
 90.332 28.8086 78.125 47.3633 70.8008 70.3125 c 0
 63.4766 93.2617 60.5469 118.652 61.0352 145.996 c 0
 61.5234 173.34 64.4531 200.195 69.8242 226.074 c 0
 75.1953 251.465 83.4961 277.832 95.2148 305.664 c 0
 106.445 333.008 120.605 358.398 137.695 381.348 c 0
 154.297 404.297 174.316 423.34 197.266 438.477 c 0
 220.703 453.613 246.094 460.938 273.926 460.938 c 0
 330.566 460.938 366.211 431.641 379.883 373.047 c 0
 390.625 331.543 390.137 282.715 377.93 226.074 c 0
EndSplineSet
Fore
271 470 m 0
 341 470 383 405 383 310 c 0
 383 285 380 258 374 230 c 0
 345 93 257 -9 169 -9 c 0
 98 -9 56 53 56 149 c 0
 56 244.034 93.3311 336.953 136 391 c 0
 175 440 226 470 271 470 c 0
249 152 m 2
 282 308 l 2
 291 348 295 380 295 402 c 0
 295 436 286 451 266 451 c 0
 233 451 211 411 189 308 c 2
 156 152 l 2
 148 111 143 80 143 58 c 0
 143 25 153 10 173 10 c 0
 189 10 202 20 214 40 c 0
 224 58 241 111 249 152 c 2
EndSplineSet
KernsSLIF: 52 7 0 0 49 -21 0 0 55 4 0 0
EndChar
StartChar: one
Encoding: 49 49 18
Width: 341
Flags: HW
HStem: 0 16<49 72.8738>
DStem: 201 347 328 470 145 85 245 81
Back
207.031 0 m 1
 19.043 0 l 1
 24.9023 26.8555 l 1
 46.3867 26.8555 62.0117 29.7852 71.2891 35.1562 c 0
 81.0547 40.5273 87.8906 51.7578 91.7969 68.8477 c 1
 154.785 367.188 l 1
 157.715 381.836 155.273 389.16 147.949 389.16 c 0
 145.508 389.16 126.953 382.812 92.7734 371.094 c 1
 98.1445 396.973 l 1
 229.98 461.914 l 1
 247.07 458.984 l 1
 161.133 58.1055 l 2
 157.715 42.4805 159.18 33.2031 166.016 29.7852 c 1
 166.016 30.7617 l 1
 173.34 28.3203 188.965 26.8555 212.891 26.8555 c 1
 207.031 0 l 1
EndSplineSet
Fore
186 395 m 0
 173.209 395 146.832 383.708 124 378 c 1
 128 395 l 1
 316 470 l 1
 328 470 l 1
 245 81 l 2
 243 69 241 59 241 51 c 0
 241 24 258 18 305 16 c 1
 302 0 l 1
 46 0 l 1
 49 16 l 1
 117 17 133 29 145 85 c 2
 201 347 l 2
 203 357 204 365 204 371 c 0
 204 387 198 395 186 395 c 0
EndSplineSet
KernsSLIF: 44 -10 0 0 56 -23 0 0 53 -10 0 0 52 -38 0 0 57 -6 0 0 49 -18 0 0 46 -11 0 0 55 -38 0 0 54 -32 0 0 51 -6 0 0 50 -1 0 0 48 -23 0 0
EndChar
StartChar: two
Encoding: 50 50 19
Width: 341
Flags: HW
HStem: 0 91<128 296> 392 78<207 271>
Back
349.121 104.004 m 1
 287.109 0 l 1
 21.9727 0 l 1
 25.8789 19.043 l 1
 169.922 146.973 l 2
 235.84 205.566 274.902 259.766 286.133 310.059 c 0
 291.992 337.891 289.551 359.375 277.832 374.023 c 0
 266.602 388.672 247.559 395.996 220.215 395.996 c 0
 198.73 395.996 179.199 387.207 162.109 370.117 c 0
 149.902 358.887 134.766 337.891 116.211 307.129 c 1
 88.8672 314.941 l 1
 105.469 359.863 128.906 395.02 158.691 421.387 c 0
 187.988 447.754 224.121 460.938 266.113 460.938 c 0
 284.18 460.938 299.805 458.008 313.477 451.66 c 0
 327.148 445.312 338.379 436.523 347.656 424.805 c 0
 356.445 413.574 362.305 400.391 365.723 384.277 c 0
 368.652 368.652 368.164 352.051 363.77 333.984 c 0
 354.004 285.156 313.965 229.98 244.141 167.969 c 2
 127.93 65.918 l 1
 261.23 65.918 l 2
 274.414 65.918 285.156 68.8477 293.945 75.1953 c 0
 296.875 77.1484 300.293 81.0547 305.664 86.9141 c 0
 310.547 92.7734 317.383 101.562 326.172 112.793 c 1
 349.121 104.004 l 1
EndSplineSet
Fore
271 321 m 0
 271 363.988 249.934 392 207 392 c 0
 170 392 140 373 110 330 c 1
 91 330 l 1
 121 382 140 405 173 431 c 0
 201 456 237 470 271 470 c 0
 334 470 374 432 374 375 c 0
 374 365 373 355 371 345 c 0
 360 293 327 247 262 196 c 2
 128 91 l 1
 231 91 l 2
 301 91 310 95 341 144 c 1
 357 144 l 1
 296 0 l 1
 12 0 l 1
 15 16 l 1
 137 122 167 151 213 204 c 0
 243 238 263 275 270 305 c 0
 271 310 271 316 271 321 c 0
EndSplineSet
KernsSLIF: 52 9 0 0 49 -19 0 0 55 -4 0 0
EndChar
StartChar: three
Encoding: 51 51 20
Width: 341
Flags: HW
HStem: -10 101<74 113> 414 56<212 282>
VStem: 268 107<363 398>
Back
320.801 149.902 m 0
 310.547 99.1211 282.227 59.5703 236.816 29.7852 c 0
 217.773 16.6016 196.289 6.83594 173.34 0.976562 c 0
 150.391 -4.88281 126.465 -7.8125 101.074 -7.8125 c 0
 92.2852 -7.8125 84.4727 -7.32422 78.125 -5.85938 c 0
 71.2891 -4.88281 65.4297 -2.92969 60.0586 -0.976562 c 0
 52.7344 1.46484 45.4102 5.85938 38.5742 12.207 c 0
 31.7383 18.0664 29.2969 26.3672 32.2266 37.1094 c 0
 34.668 48.3398 40.0391 56.1523 47.3633 61.0352 c 0
 55.1758 65.4297 62.9883 67.8711 70.8008 67.8711 c 0
 75.6836 67.8711 81.543 66.8945 88.8672 63.9648 c 0
 96.1914 61.5234 104.492 56.1523 113.77 48.8281 c 0
 123.535 42.4805 131.348 37.5977 138.672 35.1562 c 0
 145.508 32.2266 150.879 30.7617 154.785 30.7617 c 0
 179.199 30.7617 199.707 40.5273 216.797 60.0586 c 0
 234.375 78.125 245.117 99.1211 250 124.023 c 0
 253.418 139.16 253.906 151.367 250.977 160.156 c 0
 245.605 178.223 234.375 191.895 217.285 202.148 c 0
 200.684 211.914 174.805 216.797 140.137 216.797 c 1
 142.09 241.211 l 1
 218.75 263.672 261.719 298.34 270.996 345.215 c 0
 274.902 362.793 272.461 377.441 263.672 388.184 c 0
 254.395 398.438 241.211 403.809 224.121 403.809 c 0
 189.941 403.809 155.273 380.371 120.117 333.008 c 1
 94.2383 340.82 l 1
 135.254 420.898 189.453 460.938 256.836 460.938 c 0
 287.598 460.938 311.523 452.637 329.102 436.523 c 0
 346.191 420.41 351.562 396.484 345.215 365.234 c 0
 336.914 330.566 312.988 299.805 272.949 273.926 c 1
 280.273 269.531 286.621 264.648 292.48 259.766 c 0
 298.34 255.371 303.223 250.488 307.129 246.094 c 0
 316.895 234.863 322.754 220.215 324.219 202.637 c 0
 325.195 185.059 324.219 167.48 320.801 149.902 c 0
EndSplineSet
Fore
180 25 m 0
 228.803 25 267 72.7398 267 132 c 0
 267 154 260 174 248 188 c 0
 229 212 208 223 156 243 c 1
 158 255 l 1
 227 275 257 299 266 344 c 0
 267 351 268 357 268 363 c 0
 268 395 248 414 212 414 c 0
 176 414 151 399 116 357 c 1
 103 365 l 1
 156 436 214 470 282 470 c 0
 342 470 375 444 375 398 c 0
 375 391 375 384 373 376 c 0
 364 336 347 316 297 289 c 1
 338.773 269.72 359 241.279 359 195 c 0
 359 186 358 177 356 168 c 0
 334 68 227 -10 113 -10 c 0
 57 -10 21 11 21 42 c 0
 21 45 21 49 22 52 c 0
 27 75 48 91 74 91 c 0
 95 91 113 81 134 54 c 0
 152 32 163 25 180 25 c 0
EndSplineSet
KernsSLIF: 52 6 0 0 49 -22 0 0 55 -10 0 0
EndChar
StartChar: four
Encoding: 52 52 21
Width: 341
Flags: HW
HStem: 0 174<78 281> 98 76<78 203 318 345>
DStem: 203 98 302 98 182 0 281 0 264 377 381 470 221 174 318 174
Back
214.844 166.016 m 1
 253.906 346.191 l 1
 90.8203 166.016 l 1
 214.844 166.016 l 1
333.984 107.91 m 1
 271.973 107.91 l 1
 249.023 0 l 1
 181.152 0 l 1
 204.102 107.91 l 1
 26.8555 107.91 l 1
 38.0859 160.156 l 1
 301.758 452.148 l 1
 345.215 452.148 l 1
 284.18 166.016 l 1
 346.191 166.016 l 1
 333.984 107.91 l 1
EndSplineSet
Fore
318 174 m 1x40
 361 174 l 1
 345 98 l 1
 302 98 l 1x40
 281 0 l 1
 182 0 l 1x80
 203 98 l 1
 34 98 l 1
 50 175 l 1
 105 240 163 303 275 417 c 2
 327 470 l 1
 381 470 l 1
 318 174 l 1x40
221 174 m 1x80
 264 377 l 1
 78 174 l 1
 221 174 l 1x80
EndSplineSet
KernsSLIF: 52 8 0 0 49 -23 0 0 55 -10 0 0
EndChar
StartChar: five
Encoding: 53 53 22
Width: 341
Flags: HW
HStem: -5 101<77 114> 375 87<198 372>
VStem: 279 67<122 192>
DStem: 199 462 182 375 83 226 155 320
Back
394.043 460.938 m 1
 353.027 395.996 l 2
 348.145 389.16 339.844 386.23 327.148 386.23 c 2
 208.008 386.23 l 1
 179.199 345.215 l 1
 213.867 338.867 241.211 329.59 262.207 316.406 c 0
 282.715 303.711 297.852 289.551 307.129 273.926 c 0
 315.43 260.742 320.801 242.188 322.266 219.238 c 0
 324.219 195.801 323.242 174.805 318.848 155.762 c 0
 309.082 105.469 282.227 64.9414 237.793 35.1562 c 0
 195.801 6.34766 151.367 -7.8125 104.004 -7.8125 c 0
 43.9453 -7.8125 17.0898 7.8125 22.9492 39.0625 c 0
 25.8789 50.293 31.7383 58.5938 41.0156 64.4531 c 0
 50.293 70.3125 58.5938 73.2422 65.918 73.2422 c 0
 82.0312 73.2422 98.6328 65.4297 116.211 49.8047 c 0
 122.559 43.9453 128.906 39.5508 134.766 37.1094 c 0
 141.113 34.1797 146.484 33.2031 150.879 33.2031 c 0
 175.781 33.2031 197.266 44.4336 215.82 66.8945 c 0
 225.098 77.6367 232.91 89.3555 238.281 101.562 c 0
 244.141 113.77 248.535 127.441 251.953 142.09 c 0
 262.207 186.035 249.023 219.238 212.891 242.188 c 0
 197.754 251.465 181.152 258.789 163.574 264.16 c 0
 145.996 269.531 127.441 271.973 107.91 271.973 c 0
 98.6328 271.973 95.2148 276.855 97.168 286.133 c 2
 98.1445 291.016 l 1
 206.055 454.102 l 1
 346.191 454.102 l 2
 353.516 454.102 363.77 461.426 377.93 476.074 c 1
 394.043 460.938 l 1
EndSplineSet
Fore
194 36 m 0
 237.563 36 279 74.9507 279 122 c 0
 279 160 251 191 202 208 c 0
 174 217 147 221 83 226 c 1
 199 462 l 1
 419 462 l 1
 372 375 l 1
 182 375 l 1
 155 320 l 1
 210 316 231 313 255 306 c 0
 314 288 346 247 346 192 c 0
 346 182 344 171 342 159 c 0
 321 63 227 -5 114 -5 c 0
 60 -5 26 14 26 45 c 0
 26 76.6499 50.987 96 77 96 c 0
 95 96 114 87 139 65 c 0
 161 44 179 36 194 36 c 0
EndSplineSet
KernsSLIF: 49 -19 0 0 55 -6 0 0
EndChar
StartChar: six
Encoding: 54 54 23
Width: 341
Flags: HW
HStem: -9 19<174 189> 257 30<214 258>
VStem: 52 95<57 125> 257 103<182 203>
Back
259.766 124.023 m 0
 277.832 206.543 261.23 248.047 208.984 248.047 c 0
 198.242 248.047 188.477 247.07 179.688 244.629 c 0
 170.41 242.188 162.109 237.793 154.785 231.934 c 1
 151.855 226.074 147.949 218.262 144.531 208.496 c 0
 140.625 198.73 137.207 187.5 133.789 173.828 c 0
 130.859 158.691 127.93 142.09 126.465 125 c 0
 125 107.91 125.488 91.7969 127.93 77.6367 c 0
 130.859 62.9883 136.23 51.2695 144.043 41.5039 c 0
 151.855 31.7383 164.062 26.8555 180.176 26.8555 c 0
 191.406 26.8555 201.172 29.7852 209.961 35.1562 c 0
 218.75 40.5273 226.562 47.3633 232.91 56.6406 c 0
 239.746 65.4297 245.117 75.6836 249.512 87.4023 c 0
 253.906 99.1211 257.324 111.328 259.766 124.023 c 0
340.82 149.902 m 0
 336.426 127.93 328.613 107.422 317.871 87.8906 c 0
 307.129 68.8477 294.434 51.7578 278.809 37.5977 c 0
 263.672 22.9492 246.094 12.207 226.562 3.90625 c 0
 207.031 -3.90625 185.547 -7.8125 162.109 -7.8125 c 0
 133.789 -7.8125 111.816 -1.95312 96.1914 9.76562 c 0
 80.0781 21.9727 68.3594 37.5977 61.0352 57.1289 c 0
 53.7109 76.1719 50.293 98.1445 50.293 123.047 c 0
 50.7812 147.461 53.7109 172.363 59.082 196.777 c 0
 66.8945 232.91 82.0312 267.09 103.516 298.828 c 0
 125 331.055 151.367 358.887 181.641 382.812 c 0
 211.914 407.227 245.117 425.781 282.227 439.941 c 0
 318.848 454.102 355.469 460.938 392.09 460.938 c 1
 390.137 435.059 l 1
 339.844 426.27 296.387 408.203 258.789 380.371 c 0
 221.68 353.027 192.383 317.383 170.898 273.926 c 1
 176.27 276.855 181.152 278.809 185.547 280.273 c 0
 189.941 282.227 194.824 284.18 200.195 286.133 c 0
 217.285 291.992 232.91 294.922 247.07 294.922 c 0
 266.113 294.922 283.203 291.504 296.875 284.18 c 0
 311.035 276.855 321.777 266.602 330.078 253.418 c 0
 337.891 240.723 342.773 225.098 344.727 207.52 c 0
 346.191 189.941 345.215 170.898 340.82 149.902 c 0
EndSplineSet
Fore
360 190 m 0
 360 77.25 266.668 -9 176 -9 c 0
 98 -9 52 42 52 125 c 0
 52 247.403 124.65 348.475 222 406 c 0
 282 442 327 457 421 470 c 1
 417 452 l 1
 313 431 245 376 198 276 c 1
 221 285 236 287 258 287 c 0
 323 287 360 250 360 190 c 0
147 57 m 0
 147 27.5845 152.504 10 181 10 c 0
 214 10 227 30 245 111 c 0
 253 150 257 179 257 201 c 0
 257 241 244 257 214 257 c 0
 205 257 194 254 187 250 c 0
 182 246 170 208 161 165 c 0
 152 121 147 84 147 57 c 0
EndSplineSet
KernsSLIF: 52 8 0 0 49 -29 0 0 55 -4 0 0
EndChar
StartChar: seven
Encoding: 55 55 24
Width: 341
Flags: HW
HStem: 0 21G<100 165> 310 21G<78 95> 368 94<140 315>
Back
399.902 431.152 m 1
 168.945 -3.90625 l 1
 107.91 -3.90625 l 1
 317.871 388.184 l 1
 190.918 388.184 l 2
 174.805 388.184 161.133 383.789 148.926 375.977 c 0
 146.484 374.512 141.602 370.117 135.742 362.793 c 0
 129.395 355.469 120.117 345.215 108.887 331.055 c 1
 84.9609 342.773 l 1
 149.902 453.125 l 1
 403.809 453.125 l 1
 399.902 431.152 l 1
EndSplineSet
Fore
424 462 m 1
 165 0 l 1
 100 0 l 1
 315 368 l 1
 174 368 l 2
 136 368 117 354 95 310 c 1
 78 310 l 1
 140 462 l 1
 424 462 l 1
EndSplineSet
KernsSLIF: 58 -43 0 0 44 -38 0 0 56 -12 0 0 53 -23 0 0 52 -36 0 0 49 -17 0 0 46 -39 0 0 55 -4 0 0 54 -25 0 0 51 -13 0 0 50 -14 0 0
EndChar
StartChar: eight
Encoding: 56 56 25
Width: 341
Flags: HW
HStem: -9 22<160 183> 450 20<262 280>
VStem: 39 82<70 89> 98 99<325 377> 313 81<389 400>
Back
285.156 362.793 m 0
 289.062 380.371 287.109 394.531 279.785 405.762 c 0
 271.973 419.922 258.301 426.758 238.77 426.758 c 0
 223.145 426.758 208.496 421.875 194.824 411.133 c 0
 181.641 400.391 172.852 386.23 168.945 368.164 c 0
 163.086 337.891 179.199 307.129 216.797 274.902 c 1
 226.562 280.762 234.375 286.621 241.211 291.992 c 0
 247.559 297.363 251.465 300.781 252.93 303.223 c 0
 269.531 319.824 280.273 339.844 285.156 362.793 c 0
235.84 90.8203 m 0
 240.723 113.77 238.281 131.348 229.004 144.043 c 0
 224.121 149.902 217.285 157.715 208.496 166.992 c 0
 199.707 176.27 187.5 187.5 172.852 201.172 c 1
 162.109 192.383 154.785 186.035 150.879 182.617 c 0
 146.973 178.711 144.043 175.781 142.09 172.852 c 0
 135.254 165.527 129.395 156.738 124.512 145.508 c 0
 119.629 134.277 115.723 123.047 112.793 110.84 c 0
 107.91 86.9141 109.375 66.8945 118.164 50.7812 c 0
 126.465 35.1562 142.09 26.8555 164.062 26.8555 c 0
 181.152 26.8555 196.777 33.2031 209.961 44.9219 c 0
 223.145 57.1289 231.934 72.2656 235.84 90.8203 c 0
305.176 106.934 m 0
 300.781 86.9141 293.945 69.8242 283.691 55.6641 c 0
 272.949 41.0156 261.23 29.2969 247.07 20.0195 c 0
 232.91 10.7422 217.285 3.90625 200.684 -0.976562 c 0
 183.594 -5.85938 166.016 -7.8125 147.949 -7.8125 c 0
 131.348 -7.8125 116.211 -5.37109 102.051 -0.488281 c 0
 87.8906 4.39453 76.1719 11.7188 66.4062 21.4844 c 0
 56.6406 31.25 49.8047 42.9688 45.4102 56.6406 c 0
 41.0156 70.3125 41.0156 85.9375 44.9219 104.004 c 0
 48.3398 118.652 52.2461 130.859 57.1289 141.113 c 0
 61.5234 150.879 67.3828 159.668 74.2188 167.48 c 0
 80.5664 175.293 88.3789 182.617 97.6562 189.453 c 0
 106.445 196.289 117.188 204.102 128.906 212.891 c 0
 131.836 214.355 134.277 215.82 137.207 217.773 c 0
 139.648 220.215 143.555 222.656 147.949 226.074 c 1
 145.508 229.98 142.578 233.887 140.137 236.816 c 0
 137.207 240.234 134.766 243.652 132.812 247.07 c 0
 125.488 254.883 119.141 262.695 113.77 269.531 c 0
 108.887 276.367 104.492 283.691 102.051 291.504 c 0
 99.1211 299.316 98.1445 307.617 98.1445 316.895 c 0
 98.1445 327.148 99.1211 338.867 102.051 352.051 c 0
 105.469 369.141 111.816 384.766 122.07 397.949 c 0
 131.836 411.133 144.043 422.852 157.715 432.129 c 0
 171.387 441.406 186.035 448.73 202.148 453.613 c 0
 217.773 458.496 233.887 460.938 250 460.938 c 0
 265.137 460.938 279.785 458.984 292.969 455.078 c 0
 306.152 451.172 317.871 444.824 327.148 436.523 c 0
 336.426 428.223 342.773 417.48 346.68 404.785 c 0
 350.098 392.09 350.098 377.441 347.168 359.863 c 0
 340.82 332.52 328.613 311.035 310.547 294.922 c 0
 291.992 278.809 270.508 264.16 245.117 250 c 1
 247.07 247.559 249.512 244.629 252.441 241.699 c 0
 255.371 238.281 258.301 235.84 261.23 232.91 c 0
 269.531 224.121 277.344 215.82 284.668 207.52 c 0
 291.504 199.219 296.875 189.941 300.781 180.664 c 0
 305.176 170.898 307.617 160.156 308.594 148.438 c 0
 309.57 136.719 308.105 123.047 305.176 106.934 c 0
EndSplineSet
Fore
169 221 m 1xe8
 119 254 98 286 98 325 c 0xd8
 98 333 99 341 101 350 c 0
 117 422 187 470 280 470 c 0
 352 470 394 440 394 391 c 0
 394 385 394 378 392 371 c 0
 383 327 349 299 279 276 c 1
 330 238 353 203 353 160 c 0
 353 150 351 139 349 128 c 0
 332 46 257 -9 162 -9 c 0
 86 -9 39 27 39 83 c 0
 39 91 40 99 42 107 c 0
 54.6765 170.383 100.651 199.844 169 221 c 1xe8
267 450 m 0
 230.157 450 197 415.522 197 377 c 0
 197 344 220 313 264 288 c 1
 294 318 302 334 309 366 c 0
 311 378 313 388 313 398 c 0
 313 431 297 450 267 450 c 0
181 209 m 1
 145 169 133 147 125 110 c 0
 122 97 121 84 121 73 c 0xe8
 121 35 138 13 171 13 c 0
 208 13 236 41 245 87 c 0
 247 98 249 107 249 116 c 0
 249 148 231 170 181 209 c 1
EndSplineSet
KernsSLIF: 52 7 0 0 49 -12 0 0
EndChar
StartChar: nine
Encoding: 57 57 26
Width: 341
Flags: HW
HStem: 173 31<179 223> 451 19<251 267>
VStem: 80 104<255 276> 294 94<335 399>
Back
289.062 268.066 m 1
 311.035 374.023 297.363 426.758 248.047 426.758 c 0
 208.008 426.758 180.176 391.113 165.039 319.824 c 0
 162.109 307.129 160.645 293.945 160.156 279.297 c 0
 159.18 265.137 160.645 252.441 163.574 241.211 c 0
 166.504 229.492 171.875 220.215 179.688 212.402 c 0
 187.012 204.59 198.242 201.172 212.891 201.172 c 0
 232.91 201.172 252.93 208.008 272.949 222.168 c 1
 277.832 224.121 280.762 230.469 283.203 242.188 c 1
 289.062 268.066 l 1
370.117 269.043 m 0
 354.004 192.871 317.383 129.395 259.766 78.125 c 0
 193.359 17.0898 119.141 -13.1836 37.1094 -13.1836 c 1
 39.0625 16.1133 l 1
 62.5 18.5547 84.9609 24.9023 106.445 34.1797 c 0
 127.93 43.457 148.438 55.1758 167.48 69.3359 c 0
 186.523 83.9844 204.102 100.098 220.215 118.164 c 0
 235.84 136.23 249.512 155.273 259.766 175.781 c 1
 233.398 162.598 206.055 155.762 178.223 155.762 c 0
 140.137 155.762 111.816 169.922 94.2383 198.242 c 0
 78.125 223.145 74.2188 255.371 82.0312 293.945 c 0
 87.4023 317.383 95.2148 338.867 105.469 357.91 c 0
 115.723 377.441 128.418 394.531 143.066 410.156 c 0
 176.758 443.848 216.797 460.938 262.207 460.938 c 0
 310.547 460.938 344.238 439.941 362.793 397.949 c 0
 378.418 359.863 380.859 316.895 370.117 269.043 c 0
EndSplineSet
Fore
19 -9 m 1
 23 9 l 1
 125 29 193 83 244 186 c 1
 224 177 205 173 179 173 c 0
 117 173 80 212 80 272 c 0
 80 283 81 296 84 309 c 0
 103 402 179 470 265 470 c 0
 343 470 388 419 388 335 c 0
 388 216.684 320.031 121.563 229 62 c 0
 168 22 118 5 19 -9 c 1
294 399 m 0
 294 426.091 287.551 451 259 451 c 0
 226 451 214 431 197 352 c 0
 188 311 184 280 184 257 c 0
 184 220 196 204 223 204 c 0
 233 204 247 207 253 210 c 1
 256.886 213.886 261.164 233.492 264 242 c 0
 280.225 296.084 294 344.664 294 399 c 0
EndSplineSet
KernsSLIF: 52 1 0 0 49 -17 0 0 55 6 0 0
EndChar
StartChar: colon
Encoding: 58 58 27
Width: 227
Flags: HW
HStem: -9 116<111 136> 207 115<157 181>
Back
83.0078 275.879 m 0
 79.5898 263.184 80.5664 252.441 85.9375 244.141 c 0
 91.3086 235.352 99.6094 230.957 110.84 230.957 c 0
 122.559 230.957 132.324 235.352 141.602 244.141 c 0
 150.391 252.441 156.738 263.184 160.156 275.879 c 0
 162.598 288.574 161.133 299.316 155.273 308.105 c 0
 149.902 316.895 141.113 320.801 129.883 320.801 c 0
 118.652 320.801 108.887 316.895 100.098 308.105 c 0
 91.3086 299.316 85.4492 288.574 83.0078 275.879 c 0
32.2266 39.0625 m 0
 29.2969 26.3672 30.7617 15.625 36.1328 6.83594 c 0
 41.5039 -1.46484 49.8047 -5.85938 61.0352 -5.85938 c 0
 72.2656 -5.85938 82.5195 -1.46484 91.3086 6.83594 c 0
 100.586 15.625 106.445 26.3672 108.887 39.0625 c 0
 112.305 51.7578 111.328 62.5 105.469 70.8008 c 0
 99.6094 79.5898 91.3086 83.9844 80.0781 83.9844 c 0
 68.8477 83.9844 58.5938 79.5898 49.8047 70.8008 c 0
 41.5039 62.5 35.1562 51.7578 32.2266 39.0625 c 0
EndSplineSet
Fore
136 107 m 0
 164 107 182 87 182 61 c 0
 182 57 182 52 181 48 c 0
 174 16 143 -9 111 -9 c 0
 83 -9 65 10 65 36 c 0
 65 40 65 45 66 49 c 0
 73 80 105 107 136 107 c 0
111 251 m 0
 111 288.856 147.333 322 181 322 c 0
 209 322 228 302 228 276 c 0
 228 272 228 268 227 264 c 0
 221 233 189 207 157 207 c 0
 130 207 111 225 111 251 c 0
EndSplineSet
EndChar
StartChar: semicolon
Encoding: 59 59 28
Width: 227
Flags: HW
HStem: -4 110<103 136> 207 115<157 181>
Back
95.2148 82.0312 m 0
 93.75 83.4961 91.3086 83.9844 87.8906 84.4727 c 0
 84.4727 84.9609 81.543 84.9609 78.125 84.9609 c 0
 66.8945 84.9609 56.1523 81.0547 45.8984 73.2422 c 0
 36.1328 64.9414 29.7852 55.1758 26.8555 42.9688 c 0
 24.4141 31.7383 26.3672 21.9727 33.2031 14.1602 c 0
 39.5508 5.85938 48.8281 1.95312 60.0586 1.95312 c 0
 65.4297 1.95312 71.2891 2.44141 78.125 3.90625 c 1
 77.1484 -0.976562 l 2
 75.1953 -11.2305 69.3359 -20.5078 59.5703 -29.7852 c 0
 49.8047 -39.5508 40.5273 -46.875 30.7617 -53.2227 c 0
 25.8789 -56.1523 21.9727 -58.5938 19.5312 -59.5703 c 0
 17.0898 -60.5469 16.1133 -61.0352 16.1133 -61.0352 c 1
 20.0195 -86.9141 l 1
 20.0195 -86.9141 24.4141 -84.9609 33.6914 -81.0547 c 0
 42.4805 -77.1484 52.7344 -70.8008 63.9648 -62.0117 c 0
 75.1953 -53.2227 86.4258 -42.4805 97.168 -29.7852 c 0
 107.91 -17.0898 115.234 -1.95312 119.141 16.1133 c 0
 123.047 33.2031 122.559 47.3633 117.188 58.5938 c 0
 111.816 69.3359 104.492 77.1484 95.2148 82.0312 c 0
79.1016 279.785 m 0
 75.6836 267.09 76.6602 256.836 82.0312 248.047 c 0
 87.4023 239.258 95.7031 234.863 106.934 234.863 c 0
 118.164 234.863 128.418 239.258 137.695 248.047 c 0
 146.484 256.836 152.832 267.09 155.762 279.785 c 0
 158.691 292.48 157.227 303.223 151.367 312.012 c 0
 145.996 320.801 137.207 325.195 125.977 325.195 c 0
 114.746 325.195 104.492 320.801 96.1914 312.012 c 0
 87.4023 303.223 81.543 292.48 79.1016 279.785 c 0
EndSplineSet
Fore
42 -123 m 1
 38 -108 l 1
 97 -72 126 -44 131 -17 c 0
 131 -16 132 -15 132 -13 c 0
 132 -8 128 -3 122 -3 c 2
 117 -3 l 1
 109 -4 l 1
 103 -4 l 2
 83.7422 -4 65 11.2839 65 37 c 0
 65 40 65 45 66 49 c 0
 74 83 102 106 136 106 c 0
 170 106 190 84 190 49 c 0
 190 42 190 35 188 27 c 0
 175 -32 131 -77 42 -123 c 1
111 251 m 0
 111 288.856 147.333 322 181 322 c 0
 209 322 228 302 228 276 c 0
 228 272 228 268 227 264 c 0
 221 233 189 207 157 207 c 0
 130 207 111 225 111 251 c 0
EndSplineSet
EndChar
StartChar: less
Encoding: 60 60 29
Width: 389
Flags: HW
DStem: 52 144 142 173 366 -8 380 57 443 354 429 288 64 201 142 173
Back
354.98 -8.78906 m 1
 34.1797 151.855 l 1
 44.9219 203.125 l 1
 435.059 365.234 l 1
 422.852 310.059 l 1
 104.98 178.223 l 1
 367.188 45.8984 l 1
 354.98 -8.78906 l 1
EndSplineSet
Fore
366 -8 m 1
 52 144 l 1
 64 201 l 1
 443 354 l 1
 429 288 l 1
 142 173 l 1
 380 57 l 1
 366 -8 l 1
EndSplineSet
EndChar
StartChar: equal
Encoding: 61 61 30
Width: 389
Flags: HW
HStem: 73 60<50 383> 212 60<80 412>
Back
428.223 208.984 m 1
 75.1953 208.984 l 1
 85.9375 256.836 l 1
 438.965 256.836 l 1
 428.223 208.984 l 1
400.879 82.0312 m 1
 47.8516 82.0312 l 1
 59.082 129.883 l 1
 412.109 129.883 l 1
 400.879 82.0312 l 1
EndSplineSet
Fore
425 272 m 1
 412 212 l 1
 68 212 l 1
 81 272 l 1
 425 272 l 1
395 133 m 1
 383 73 l 1
 39 73 l 1
 51 133 l 1
 395 133 l 1
EndSplineSet
EndChar
StartChar: greater
Encoding: 62 62 31
Width: 389
Flags: HW
DStem: 82 288 96 354 321 173 411 201 321 173 399 144 33 57 19 -8
Back
416.016 151.855 m 1
 26.8555 -8.78906 l 1
 39.0625 45.8984 l 1
 355.957 178.223 l 1
 95.2148 310.059 l 1
 106.934 365.234 l 1
 426.758 203.125 l 1
 416.016 151.855 l 1
EndSplineSet
Fore
19 -8 m 1
 33 57 l 1
 321 173 l 1
 82 288 l 1
 96 354 l 1
 411 201 l 1
 399 144 l 1
 19 -8 l 1
EndSplineSet
EndChar
StartChar: question
Encoding: 63 63 32
Width: 341
Flags: HW
HStem: -9 116<161 186> 446 24<240 267>
VStem: 117 90<359 376> 282 101<374 395>
Back
330.078 353.027 m 0
 333.496 367.188 334.473 380.859 333.496 394.043 c 0
 332.52 407.227 328.125 419.922 320.801 432.129 c 0
 311.523 448.242 298.34 458.984 280.273 464.355 c 0
 262.695 470.215 245.605 473.145 229.004 473.145 c 0
 213.867 473.145 198.73 470.703 183.594 465.332 c 0
 168.457 460.449 154.785 453.125 142.09 443.848 c 0
 129.395 434.57 118.652 423.34 109.375 410.645 c 0
 100.586 397.461 94.2383 382.812 90.8203 367.188 c 0
 87.8906 349.609 89.3555 336.914 96.6797 328.613 c 0
 103.516 320.312 111.816 315.918 122.07 315.918 c 0
 131.348 315.918 140.137 318.848 147.949 324.707 c 0
 155.762 330.078 161.133 338.867 163.086 350.098 c 1
 164.062 353.027 l 2
 165.527 357.91 165.527 363.281 164.062 369.629 c 0
 162.598 375.977 160.156 381.348 155.762 386.23 c 0
 152.832 389.16 150.879 392.578 149.902 395.996 c 0
 149.414 399.414 149.414 401.855 149.902 402.832 c 0
 150.879 411.133 157.715 418.457 170.898 425.781 c 0
 176.27 429.199 182.617 431.641 189.453 433.594 c 0
 196.289 435.059 202.637 436.035 208.008 436.035 c 0
 228.027 436.035 241.699 428.711 249.512 414.062 c 0
 257.324 399.414 258.301 380.859 252.93 358.887 c 0
 250.488 345.703 245.605 331.055 238.77 314.453 c 0
 232.422 298.34 222.168 280.273 208.984 261.23 c 1
 183.105 219.238 l 2
 171.875 201.66 162.598 184.082 155.762 166.504 c 0
 149.414 148.926 144.043 130.371 140.137 110.84 c 1
 167.969 110.84 l 1
 183.105 150.391 194.824 174.805 202.148 184.082 c 0
 210.449 194.824 219.238 204.59 228.027 213.867 c 0
 236.816 223.145 245.605 232.91 254.883 242.188 c 0
 278.32 263.184 295.898 283.203 307.617 301.758 c 0
 319.336 320.801 326.66 337.891 330.078 353.027 c 0
96.1914 39.0625 m 0
 93.2617 26.8555 95.2148 16.6016 102.051 8.30078 c 0
 108.887 0 118.164 -3.90625 129.883 -3.90625 c 0
 142.09 -3.90625 153.32 0 163.574 8.30078 c 0
 173.828 16.6016 180.176 26.8555 183.105 39.0625 c 0
 185.547 50.7812 183.594 61.5234 176.758 69.8242 c 0
 170.41 78.6133 161.133 83.0078 148.926 83.0078 c 0
 137.207 83.0078 125.977 78.6133 115.723 69.8242 c 0
 104.98 61.5234 98.6328 50.7812 96.1914 39.0625 c 0
EndSplineSet
Fore
207 158 m 1
 186 158 l 1
 189 178 190 182 191 189 c 0
 195 208 204 224 227 255 c 0
 258 298 270 322 278 357 c 0
 281 370 282 382 282 393 c 0
 282 427 268 446 240 446 c 0
 215 446 195 435 192 418 c 2
 192 414 l 2
 192 410 193 406 198 399 c 0
 204 390 207 384 207 376 c 0
 207 372 206 369 205 364 c 0
 200 338 179 320 153 320 c 0
 131 320 117 336 117 359 c 0
 117 363 117 368 118 372 c 0
 130 429 192 470 267 470 c 0
 339 470 383 435 383 381 c 0
 383 373 382 365 380 357 c 0
 370 310 343 282 273 244 c 0
 224 217 217 208 207 158 c 1
186 107 m 0
 214 107 232 87 232 61 c 0
 232 57 232 52 231 48 c 0
 224 16 193 -9 161 -9 c 0
 132 -9 114 10 114 36 c 0
 114 40 114 45 115 49 c 0
 122 80 155 107 186 107 c 0
EndSplineSet
EndChar
StartChar: at
Encoding: 64 64 33
Width: 634
Flags: HW
HStem: -13 31<324 347> 98 25<453 468> 322 32<431 433> 445 27<420 447>
VStem: 117 62<155 196> 254 54<155 171> 400 47<141 149> 589 33<285 308>
Back
339.844 191.895 m 0
 348.145 205.566 355.469 218.262 361.816 231.445 c 0
 368.652 244.629 373.535 257.812 376.953 270.996 c 0
 380.859 293.457 377.441 305.176 366.211 305.176 c 0
 343.262 305.176 321.289 291.504 299.805 264.16 c 0
 290.039 250.488 281.738 237.793 274.414 225.586 c 0
 267.578 213.379 262.695 200.195 259.766 187.012 c 0
 253.418 156.25 260.742 141.113 282.227 141.113 c 0
 297.852 141.113 317.383 158.203 339.844 191.895 c 0
548.828 258.789 m 0
 541.016 218.262 522.461 182.129 493.164 149.902 c 0
 460.449 111.816 423.34 92.7734 381.836 92.7734 c 0
 370.605 92.7734 361.328 95.2148 354.004 99.6094 c 0
 346.68 104.004 340.332 109.863 334.961 117.188 c 0
 333.496 119.629 332.52 122.07 331.055 124.512 c 0
 329.59 126.953 328.613 129.395 328.125 131.836 c 1
 309.082 117.188 l 2
 299.805 110.352 289.551 104.492 278.809 100.098 c 0
 268.555 95.2148 258.301 92.7734 249.023 92.7734 c 0
 227.051 92.7734 210.938 101.074 201.172 116.699 c 0
 190.918 132.324 188.965 154.785 194.824 185.059 c 0
 201.66 216.309 219.727 250 249.023 286.133 c 0
 284.18 330.078 325.195 352.051 371.094 352.051 c 0
 382.812 352.051 391.113 349.121 395.996 344.238 c 0
 400.879 338.867 403.809 333.984 405.762 330.078 c 1
 412.109 341.797 l 1
 479.004 341.797 l 1
 394.043 165.039 l 1
 390.137 148.926 l 2
 387.207 138.184 391.113 132.812 400.879 132.812 c 0
 413.574 132.812 425.781 137.207 437.012 145.996 c 0
 448.242 154.785 458.496 165.527 467.285 178.223 c 0
 476.562 190.43 484.375 204.102 490.723 219.238 c 0
 497.07 233.887 501.465 246.582 503.906 257.812 c 0
 509.277 281.25 508.789 303.223 502.441 323.73 c 0
 496.094 343.75 486.328 361.328 472.656 376.465 c 0
 458.984 391.602 442.383 403.32 422.363 411.621 c 0
 402.832 419.922 381.836 423.828 359.863 423.828 c 0
 330.078 423.828 303.223 417.969 278.809 406.738 c 0
 254.883 395.02 233.887 379.395 214.844 359.375 c 0
 196.289 339.844 180.664 316.895 167.969 291.016 c 0
 155.273 265.137 145.996 237.793 140.137 208.984 c 0
 134.766 184.57 134.277 161.133 139.648 139.648 c 0
 144.531 117.676 153.32 99.1211 166.504 83.4961 c 0
 179.688 67.8711 195.801 55.6641 215.82 46.3867 c 0
 235.84 37.5977 258.301 33.2031 283.203 33.2031 c 0
 323.73 33.2031 370.605 44.4336 423.828 67.8711 c 1
 432.129 32.2266 l 1
 397.949 18.5547 368.164 8.78906 342.285 1.95312 c 0
 316.895 -4.88281 294.434 -7.8125 274.902 -7.8125 c 0
 194.336 -7.8125 134.766 17.0898 96.1914 67.8711 c 0
 79.1016 89.8438 68.8477 113.281 64.9414 138.672 c 0
 61.0352 163.574 61.5234 188.965 66.8945 214.844 c 0
 81.543 285.645 117.676 344.238 174.805 391.113 c 0
 233.887 437.5 297.852 460.938 368.164 460.938 c 0
 428.223 460.938 476.074 442.871 512.207 407.227 c 0
 549.805 369.629 562.5 320.312 548.828 258.789 c 0
EndSplineSet
Fore
474 318 m 1
 487 345 l 1
 535 345 l 1
 453 168 l 1
 449.322 162.483 447 150.624 447 143 c 0
 447 130 455 123 468 123 c 0
 513 123 569 190 585 263 c 0
 587 274 589 286 589 296 c 0
 589 379 521 445 427 445 c 0
 313 445 212 352 184 222 c 0
 180 205 179 189 179 174 c 0
 179 81 242 18 345 18 c 0
 390 18 427 27 488 52 c 1
 491 28 l 1
 418 -3 380 -13 329 -13 c 0
 202 -13 117 67 117 176 c 0
 117 192 118 208 122 225 c 0
 151 363 288 472 431 472 c 0
 546 472 622 402 622 306 c 0
 622 293 621 280 618 266 c 0
 598 175 523 98 453 98 c 0
 420 98 400 116 400 145 c 2
 400 149 l 1
 369 117 332 98 303 98 c 0
 273 98 254 122 254 155 c 0
 254 162 254 169 256 177 c 0
 266 227 300 281 343 319 c 0
 369 341 401 354 431 354 c 0
 456 354 465 347 474 318 c 1
433 322 m 2
 431 322 l 2
 415 322 390 308 367 287 c 0
 334.625 257.974 308 211.436 308 169 c 0
 308 145 319 130 339 130 c 0
 389.991 130 440.63 229.067 453 277 c 0
 455 284 456 290 456 295 c 0
 456 311 448 321 433 322 c 2
EndSplineSet
EndChar
StartChar: A
Encoding: 65 65 34
Width: 492
Flags: HW
HStem: 0 19<262 470> 134 27<163 300>
DStem: 263 327 344 471 296 161 420 112 325 471 263 327 94 97 163 161 325 471 147 134 94 97 132 108
Back
207.031 184.082 m 1
 329.102 184.082 l 1
 299.805 328.125 l 1
 207.031 184.082 l 1
484.863 0 m 1
 296.875 0 l 1
 303.223 28.8086 l 1
 330.078 28.8086 l 2
 335.938 28.8086 340.82 30.7617 344.727 34.1797 c 0
 348.145 37.1094 350.098 40.5273 351.074 42.9688 c 0
 352.539 48.3398 352.539 54.6875 351.562 62.5 c 0
 350.586 70.3125 349.121 77.1484 348.145 83.9844 c 2
 335.938 139.16 l 1
 180.176 139.16 l 1
 138.184 68.8477 l 1
 135.254 65.4297 133.301 62.0117 131.836 58.5938 c 0
 130.859 54.6875 129.395 51.2695 127.93 47.8516 c 0
 125.977 35.1562 139.16 28.8086 167.969 28.8086 c 1
 162.109 0 l 1
 11.2305 0 l 1
 17.0898 28.8086 l 1
 28.3203 28.8086 39.5508 32.7148 50.293 39.5508 c 0
 61.5234 46.3867 70.8008 55.1758 78.125 65.918 c 2
 323.242 452.148 l 1
 359.863 452.148 l 1
 442.871 81.0547 l 1
 448.242 60.5469 454.102 46.3867 459.961 39.5508 c 0
 465.82 32.7148 476.562 28.8086 491.211 28.8086 c 1
 484.863 0 l 1
EndSplineSet
Fore
474 17 m 1
 470 0 l 1
 249 0 l 1
 253 17 l 1
 263 18 272 19 275 19 c 0
 299 20 310 27 313 42 c 0
 314 45 314 49 314 54 c 0
 314 70 310 93 300 134 c 1
 147 134 l 1
 132 108 l 2
 109 71 100 54 99 45 c 0
 99 43 98 41 98 39 c 0
 98 25 113 20 149 17 c 1
 145 0 l 1
 6 0 l 1
 10 17 l 1
 44 23 54 33 94 97 c 2
 325 471 l 1
 344 471 l 1
 420 112 l 2
 437 31 445 17 472 17 c 2
 474 17 l 1
163 161 m 1
 296 161 l 1
 263 327 l 1
 163 161 l 1
EndSplineSet
KernsSLIF: 67 -49 2 0 311 -52 2 0 71 -46 2 0 79 -46 2 0 325 -46 2 0 81 -46 2 0 84 -40 2 0 85 -45 2 0 327 -45 2 0 328 -45 2 0 329 -45 2 0 326 -45 2 0 86 -88 2 0 87 -79 2 0 89 -50 2 0 97 -3 2 0 98 -15 2 0 99 -23 2 0 337 -29 2 0 100 -19 2 0 101 -21 2 0 103 -4 2 0 286 -36 2 0 288 -45 2 0 45 -20 2 0 111 -25 2 0 113 -25 2 0 148 -51 2 0 146 -73 2 0 116 -18 2 0 117 -20 2 0 118 -57 2 0 119 -53 2 0 121 -56 2 0
EndChar
StartChar: B
Encoding: 66 66 35
Width: 455
Flags: HW
HStem: 0 22<218 235> 234 21<234 253> 441 21<109 322>
VStem: 336 117<149 163> 366 110<372 386>
DStem: 155 396 267 408 85 66 234 255 155 396 230 234 85 66 193 63
Back
384.766 329.102 m 0
 396.973 383.789 367.676 411.133 296.875 411.133 c 2
 268.066 411.133 l 2
 265.137 411.133 263.184 407.227 261.23 398.926 c 1
 230.957 256.836 l 1
 284.18 257.812 l 2
 341.309 259.277 375 283.203 384.766 329.102 c 0
355.957 126.953 m 0
 365.234 170.41 348.145 197.266 305.176 208.008 c 0
 289.062 211.914 261.23 213.867 221.191 213.867 c 1
 188.965 61.0352 l 2
 187.012 52.2461 188.965 46.3867 194.824 42.9688 c 2
 193.848 42.9688 l 2
 200.684 41.5039 211.426 41.0156 226.074 41.0156 c 0
 300.781 41.0156 344.238 69.8242 355.957 126.953 c 0
453.125 124.023 m 0
 443.848 85.4492 422.363 55.1758 389.16 33.2031 c 0
 355.469 11.2305 315.43 0 269.043 0 c 2
 22.9492 0 l 1
 28.8086 29.7852 l 1
 41.5039 29.7852 52.2461 30.7617 60.5469 32.2266 c 0
 68.8477 33.2031 75.6836 35.6445 81.543 39.5508 c 0
 87.4023 42.9688 91.7969 48.3398 95.2148 54.6875 c 0
 98.1445 61.0352 101.074 69.3359 103.027 80.0781 c 1
 165.039 372.07 l 1
 168.457 385.254 169.922 395.996 169.434 404.297 c 0
 168.945 412.598 163.574 417.48 151.855 418.945 c 2
 112.793 423.828 l 1
 119.141 452.148 l 1
 321.777 452.148 l 2
 441.406 452.148 492.676 412.109 476.074 333.008 c 0
 472.656 315.43 466.309 300.781 456.543 288.086 c 0
 446.777 275.391 435.547 264.16 422.852 254.883 c 0
 418.945 251.465 414.062 249.023 408.691 246.582 c 0
 402.832 244.141 396.484 241.699 390.137 238.77 c 1
 443.848 218.262 464.844 180.176 453.125 124.023 c 0
EndSplineSet
Fore
109 462 m 1xf0
 320 462 l 2
 422 462 476 431 476 374 c 0xe8
 476 367 476 360 474 352 c 0
 463 300 428 272 344 249 c 1
 390 239 411 229 430 208 c 0
 445 192 453 173 453 151 c 0
 453 143 452 136 450 128 c 0
 434 51 346 0 231 0 c 2
 11 0 l 1
 15 17 l 1
 66 23 78 31 85 66 c 2
 155 396 l 2
 157 403 157 409 157 414 c 0
 157 435 143 442 105 444 c 1
 109 462 l 1xf0
230 234 m 1
 193 63 l 2
 192 58 191 53 191 48 c 0
 191 29 202 22 227 22 c 0
 282 22 317 56 331 122 c 0
 334 136 336 149 336 161 c 0xf0
 336 210 308 234 251 234 c 2
 230 234 l 1
267 408 m 2
 234 255 l 1
 319 257 346 276 361 347 c 0
 364 362 366 375 366 386 c 0xe8
 366 424 348 441 311 441 c 0
 284 441 272 432 267 408 c 2
EndSplineSet
KernsSLIF: 65 -23 2 0 264 -21 2 0 306 -23 2 0 307 -23 2 0 309 -23 2 0 310 -23 2 0 308 -23 2 0 79 -8 2 0 265 -2 2 0 322 -8 2 0 323 -8 2 0 325 -8 2 0 321 -8 2 0 362 -7 2 0 86 -30 2 0 87 -31 2 0 89 -30 2 0
EndChar
StartChar: C
Encoding: 67 67 36
Width: 492
Flags: HW
HStem: -13 33<272 296> 310 128<501 523> 449 23<358 380>
VStem: 75 117<139 170>
Back
453.125 83.0078 m 1
 438.965 64.9414 418.945 48.3398 393.066 33.2031 c 0
 371.094 19.5312 347.656 9.27734 323.242 2.44141 c 0
 298.34 -4.39453 272.949 -7.8125 247.07 -7.8125 c 0
 211.426 -7.8125 180.664 -2.92969 154.297 7.32422 c 0
 127.93 18.0664 107.422 33.2031 91.7969 54.1992 c 0
 62.0117 96.6797 54.1992 152.344 67.8711 221.191 c 0
 75.1953 252.93 86.9141 283.203 103.027 311.035 c 0
 119.141 338.867 141.113 365.234 168.945 389.16 c 0
 194.336 411.133 221.191 427.246 249.023 437.988 c 0
 276.855 448.73 305.176 454.102 333.984 454.102 c 0
 343.262 454.102 353.027 453.613 362.793 452.637 c 0
 373.047 451.66 382.324 450.684 390.625 449.707 c 0
 398.926 448.73 405.762 447.266 412.109 446.289 c 0
 417.969 445.312 421.875 444.824 423.828 443.848 c 2
 461.914 432.129 l 1
 470.703 432.617 478.516 439.453 485.84 453.125 c 1
 520.02 453.125 l 1
 492.188 291.992 l 1
 456.055 291.992 l 1
 456.055 330.078 446.289 359.375 427.734 379.395 c 0
 408.691 399.902 381.348 410.156 346.191 410.156 c 0
 301.758 410.156 264.648 390.137 233.887 351.074 c 0
 219.238 333.008 206.543 313.477 195.801 291.992 c 0
 185.547 270.508 177.246 246.094 171.875 219.238 c 0
 160.156 168.457 162.598 125.488 180.176 89.8438 c 0
 188.477 73.2422 200.195 60.0586 214.844 50.293 c 0
 229.492 41.0156 249.512 36.1328 274.902 36.1328 c 0
 323.242 36.1328 375.488 59.082 433.105 104.98 c 1
 453.125 83.0078 l 1
EndSplineSet
Fore
471 104 m 1
 487 87 l 1
 449 53 431 39 406 24 c 0
 364 -1 321 -13 272 -13 c 0
 151 -13 75 61 75 170 c 0
 75 188 77 207 81 227 c 0
 111 367 235 472 371 472 c 0
 404 472 436 464 472 448 c 0
 486 441 495 438 501 438 c 0
 514 438 524 446 538 470 c 1
 557 470 l 1
 523 310 l 1
 506 310 l 1
 493 362 482 384 458 411 c 0
 434 437 407 449 375 449 c 0
 293 449 233 374 204 233 c 0
 196 197 192 165 192 139 c 0
 192 115 195 96 201 79 c 0
 212 44 250 20 296 20 c 0
 315 20 338 24 360 32 c 0
 396 45 421 61 471 104 c 1
EndSplineSet
KernsSLIF: 65 -17 2 0 264 -15 2 0 306 -17 2 0 309 -17 2 0 310 -17 2 0 72 -1 2 0 75 -4 2 0 79 -9 2 0 322 -9 2 0 325 -9 2 0
EndChar
StartChar: D
Encoding: 68 68 37
Width: 492
Flags: HW
HStem: 0 24<206.638 235> 438 24<108 319>
VStem: 410 117<287 313>
DStem: 151 399 265 414 79 62 190 63
Back
440.918 225.098 m 0
 453.613 287.109 445.312 333.496 416.016 365.234 c 0
 401.367 380.371 383.789 392.09 362.793 399.902 c 0
 342.285 408.203 315.43 412.109 283.203 412.109 c 0
 273.438 412.109 267.578 411.133 264.648 409.668 c 0
 261.719 407.715 259.277 402.344 257.812 393.066 c 1
 187.012 61.0352 l 2
 185.059 51.7578 187.5 45.8984 193.848 43.9453 c 0
 200.684 41.9922 207.031 41.0156 212.891 41.0156 c 0
 277.832 41.0156 328.613 56.1523 365.723 86.9141 c 0
 402.344 117.676 427.734 163.574 440.918 225.098 c 0
541.992 225.098 m 0
 529.297 166.992 501.465 118.164 458.008 78.125 c 0
 401.367 25.8789 326.172 0 231.934 0 c 2
 24.9023 0 l 1
 30.7617 29.7852 l 1
 42.4805 29.7852 51.7578 30.7617 60.0586 32.2266 c 0
 67.8711 33.2031 74.707 35.6445 79.5898 39.0625 c 0
 84.4727 42.4805 88.8672 47.3633 91.7969 54.1992 c 0
 95.2148 60.5469 98.1445 69.3359 100.098 80.0781 c 1
 162.109 373.047 l 1
 165.527 387.207 166.992 397.949 166.504 406.738 c 0
 166.016 415.039 160.645 419.434 149.902 420.898 c 2
 115.234 423.828 l 1
 121.094 453.125 l 1
 317.871 453.125 l 2
 398.438 453.125 458.496 435.547 498.047 400.879 c 0
 521.484 381.836 536.621 357.422 543.457 328.125 c 0
 550.293 298.828 549.805 264.16 541.992 225.098 c 0
EndSplineSet
Fore
79 62 m 2
 151 399 l 2
 152 404 153 409 153 413 c 0
 153 433 140 441 104 444 c 1
 108 462 l 1
 316 462 l 2
 451 462 527 399 527 292 c 0
 527 275 525 256 521 236 c 0
 491 94 373 0 225 0 c 2
 10 0 l 1
 14 17 l 1
 53 18 73 32 79 62 c 2
410 311 m 0
 410 386.421 382.22 438 310 438 c 0
 283 438 268 430 265 414 c 2
 190 63 l 2
 189 57 188 51 188 47 c 0
 188 30 197 24 221 24 c 0
 333.383 24 377.755 121.719 400 225 c 0
 406 256 410 285 410 311 c 0
EndSplineSet
KernsSLIF: 65 -37 2 0 306 -37 2 0 307 -37 2 0 309 -37 2 0 305 -37 2 0 310 -37 2 0 308 -37 2 0 74 -27 2 0 84 -4 2 0 86 -40 2 0 87 -34 2 0 88 -34 2 0 89 -40 2 0
EndChar
StartChar: E
Encoding: 69 69 38
Width: 455
Flags: HW
HStem: 0 21<228 410> 225 23<230 252> 324 138<109 474> 438 24<109 348>
DStem: 155 396 268 406 85 66 235 248 155 396 384 350 85 66 335 119 155 396 230 225 85 66 195 59
Back
460.938 127.93 m 1
 399.902 0 l 1
 24.9023 0 l 1
 30.7617 29.7852 l 1
 53.2227 29.7852 68.8477 33.6914 78.125 40.5273 c 0
 87.4023 47.3633 94.2383 60.5469 98.1445 80.0781 c 2
 160.156 373.047 l 2
 163.574 388.184 164.551 399.414 164.062 405.762 c 0
 163.574 412.598 158.203 416.992 147.949 418.945 c 2
 115.234 423.828 l 1
 121.094 453.125 l 1
 492.188 453.125 l 1
 467.773 340.82 l 1
 430.176 340.82 l 1
 432.617 374.512 428.223 394.531 416.992 401.855 c 0
 405.762 408.691 384.766 412.109 354.98 412.109 c 2
 274.902 412.109 l 2
 270.508 412.109 266.113 410.156 263.184 405.762 c 0
 259.766 401.855 257.812 397.461 256.836 393.066 c 1
 228.027 259.766 l 1
 312.988 259.766 l 2
 337.891 259.766 353.516 263.184 359.863 269.043 c 0
 369.141 276.367 378.906 293.945 389.16 321.777 c 1
 429.199 321.777 l 1
 394.043 152.832 l 1
 354.004 152.832 l 1
 355.957 182.129 354.492 199.707 349.121 205.078 c 0
 343.75 210.938 328.125 213.867 303.223 213.867 c 2
 217.773 213.867 l 1
 186.035 62.0117 l 2
 184.57 56.1523 186.035 51.2695 189.453 47.3633 c 0
 193.359 43.9453 200.684 41.9922 211.914 41.9922 c 2
 265.137 41.9922 l 2
 303.223 41.9922 331.543 46.875 350.098 57.1289 c 0
 361.328 62.9883 373.047 71.7773 384.277 83.4961 c 0
 395.996 95.2148 407.715 109.863 418.945 127.93 c 1
 460.938 127.93 l 1
EndSplineSet
Fore
242 21 m 0
 348.567 21 397.19 66.6042 448 142 c 1
 468 142 l 1
 410 0 l 1
 11 0 l 1
 15 17 l 1
 66 23 77 30 85 66 c 2
 155 396 l 2
 157 403 157 409 157 414 c 0
 157 435 143 442 105 444 c 1
 109 462 l 1xe0
 503 462 l 1xd0
 474 324 l 1
 457 324 l 1xe0
 457 332 l 2
 457 416 427 438 319 438 c 0xd0
 283 438 274 432 268 406 c 2
 235 248 l 1
 239 248 l 2
 309 248 340 273 366 350 c 1
 384 350 l 1
 335 119 l 1
 317 119 l 1
 318 130 319 140 319 149 c 0
 319 205 294 225 230 225 c 1
 195 59 l 2
 194 54 193 49 193 45 c 0
 193 27 207 21 242 21 c 0
EndSplineSet
EndChar
StartChar: F
Encoding: 70 70 39
Width: 417
Flags: HW
HStem: 0 21G<11 257> 324 138<109 467> 438 24<109 348>
DStem: 155 396 268 406 85 66 235 248 155 396 377 350 85 66 328 119 155 396 230 225 85 66 196 66
Back
471.191 340.82 m 1
 432.129 340.82 l 1
 436.035 373.535 431.641 393.555 418.945 400.879 c 0
 407.715 407.715 387.207 411.133 356.934 411.133 c 2
 269.043 411.133 l 2
 262.207 411.133 257.812 405.762 255.859 395.996 c 2
 227.051 259.766 l 1
 310.059 259.766 l 2
 332.52 259.766 349.121 264.16 359.375 272.461 c 0
 369.629 280.762 378.906 296.875 386.23 320.801 c 1
 423.828 320.801 l 1
 388.184 151.855 l 1
 350.098 151.855 l 1
 353.516 176.758 351.562 193.359 344.727 202.637 c 0
 337.402 211.426 323.242 215.82 300.781 215.82 c 2
 217.773 215.82 l 1
 188.965 80.0781 l 2
 185.059 60.5469 186.035 47.3633 192.383 40.5273 c 0
 198.73 33.6914 212.891 29.7852 234.863 29.7852 c 1
 229.004 0 l 1
 23.9258 0 l 1
 29.7852 29.7852 l 1
 55.1758 29.7852 72.7539 34.1797 82.0312 41.9922 c 0
 88.8672 49.3164 94.2383 64.4531 99.1211 87.8906 c 1
 159.18 372.07 l 1
 161.133 382.812 161.621 391.113 161.621 396.973 c 0
 161.133 402.832 160.156 407.715 158.691 411.133 c 0
 156.738 414.551 154.785 416.504 152.344 417.48 c 0
 150.391 418.457 148.438 418.945 146.973 418.945 c 2
 113.77 423.828 l 1
 120.117 452.148 l 1
 493.164 452.148 l 1
 471.191 340.82 l 1
EndSplineSet
Fore
496 462 m 1xa0
 467 324 l 1
 451 324 l 1xc0
 450 367 447 386 436 403 c 0
 419 427 381 438 318 438 c 0xa0
 283 438 274 431 268 406 c 2
 235 248 l 1
 303 248 332 272 360 350 c 1
 377 350 l 1
 328 119 l 1
 311 119 l 1
 312 129 312 138 312 146 c 0
 312 204 290 223 230 225 c 1
 196 66 l 2
 194 59 194 53 194 48 c 0
 194 25 210 19 261 17 c 1
 257 0 l 1
 11 0 l 1
 15 17 l 1
 66 23 77 30 85 66 c 2
 155 396 l 2
 157 403 157 409 157 414 c 0
 157 435 143 442 105 444 c 1
 109 462 l 1xc0
 496 462 l 1xa0
EndSplineSet
KernsSLIF: 65 -53 2 0 306 -53 2 0 307 -53 2 0 309 -53 2 0 305 -53 2 0 310 -53 2 0 308 -53 2 0 74 -28 2 0 79 -4 2 0 325 -4 2 0 97 -34 2 0 332 -34 2 0 335 -15 2 0 266 -36 2 0 336 -34 2 0 44 -40 2 0 101 -34 2 0 339 -34 2 0 45 -23 2 0 106 -17 2 0 111 -36 2 0 348 -36 2 0 351 -16 2 0 267 -34 2 0 364 -36 2 0 46 -40 2 0 114 -4 2 0 117 -6 2 0
EndChar
StartChar: G
Encoding: 71 71 40
Width: 531
Flags: HW
HStem: -13 23<265 292> 310 128<493 515> 449 23<354 382>
VStem: 67 116<133 169>
Back
532.227 217.773 m 1
 509.766 215.82 498.047 213.867 496.094 211.914 c 0
 487.793 204.59 481.934 192.383 478.027 174.805 c 1
 451.172 45.8984 l 2
 450.195 41.9922 446.777 37.5977 439.941 33.6914 c 0
 433.105 29.2969 424.805 25.3906 415.039 21.4844 c 0
 404.785 18.0664 394.043 14.6484 381.836 11.7188 c 0
 370.117 8.30078 357.91 5.85938 346.191 2.92969 c 0
 328.613 -0.488281 313.965 -2.92969 301.758 -4.88281 c 0
 290.039 -6.83594 279.297 -7.8125 270.02 -7.8125 c 0
 187.5 -7.8125 128.418 15.625 92.7734 62.9883 c 0
 75.6836 86.9141 65.918 112.305 63.9648 139.648 c 0
 62.0117 166.504 64.4531 196.289 71.7773 229.004 c 0
 85.9375 294.434 119.629 348.145 172.852 391.113 c 0
 199.219 411.621 227.539 427.246 258.789 437.988 c 0
 290.527 448.73 322.754 454.102 355.957 454.102 c 0
 368.164 454.102 381.836 453.125 397.949 451.66 c 0
 414.062 449.707 425.293 447.754 432.129 444.824 c 2
 469.238 432.129 l 1
 473.145 432.129 477.539 434.082 481.934 437.988 c 0
 486.816 441.895 490.723 447.266 494.141 454.102 c 1
 529.785 454.102 l 1
 501.953 299.805 l 1
 466.797 299.805 l 1
 453.125 374.023 416.016 411.133 355.957 411.133 c 0
 330.566 411.133 308.105 406.25 288.574 396.484 c 0
 269.043 386.719 250.488 371.094 232.91 350.098 c 0
 217.773 331.543 205.078 311.035 195.312 289.062 c 0
 186.035 267.09 178.223 242.676 172.852 215.82 c 0
 167.48 189.941 165.527 166.016 166.504 144.043 c 0
 167.48 122.07 173.34 103.516 184.082 87.8906 c 0
 195.801 69.8242 208.984 56.6406 223.633 47.3633 c 0
 237.793 38.5742 257.812 34.1797 283.203 34.1797 c 0
 290.527 34.1797 298.828 34.668 308.105 36.1328 c 0
 317.383 37.1094 326.172 39.0625 334.961 41.0156 c 0
 355.469 46.3867 367.188 53.7109 369.141 62.9883 c 2
 392.09 167.969 l 2
 395.508 183.105 396.484 194.336 395.508 201.172 c 0
 394.531 207.52 389.16 212.402 379.883 214.844 c 0
 374.023 216.797 362.793 217.773 346.191 217.773 c 1
 353.027 250.977 l 1
 539.062 250.977 l 1
 532.227 217.773 l 1
EndSplineSet
Fore
183 133 m 0
 183 59.2243 209.894 10 287 10 c 0
 332 10 355 25 363 59 c 2
 378 131 l 2
 380 138 381 144 381 150 c 0
 381 171 365 176 319 179 c 1
 323 196 l 1
 557 196 l 1
 553 179 l 1
 501 173 492 165 482 116 c 2
 463 29 l 1
 414 3 336 -13 265 -13 c 0
 142 -13 67 59 67 169 c 0
 67 187 69 206 73 226 c 0
 103 367 227 472 363 472 c 0
 396 472 427 464 464 448 c 0
 478 441 487 438 493 438 c 0
 506 438 516 446 530 470 c 1
 549 470 l 1
 515 310 l 1
 497 310 l 1
 485 362 474 385 450 411 c 0
 425 437 398 449 367 449 c 0
 284 449 225 373 195 231 c 0
 187 194 183 161 183 133 c 0
EndSplineSet
KernsSLIF: 65 -18 2 0 264 -16 2 0 306 -18 2 0 307 -18 2 0 309 -18 2 0 305 -18 2 0 310 -18 2 0 308 -18 2 0 84 -27 2 0 86 -22 2 0 87 -23 2 0 89 -22 2 0
EndChar
StartChar: H
Encoding: 72 72 41
Width: 531
Flags: HW
HStem: 223 32<237 394>
DStem: 156 396 267 396 86 66 237 255 156 396 230 223 86 66 197 66 394 223 542 396 361 66 472 66 431 396 542 396 401 255 472 66
Back
589.844 424.805 m 1
 596.191 453.125 l 1
 387.207 453.125 l 1
 380.859 424.805 l 1
 381.836 424.805 384.766 424.805 390.625 424.316 c 0
 395.996 424.316 402.832 423.34 411.133 421.387 c 0
 418.945 419.922 424.316 417.48 426.758 414.062 c 0
 430.176 410.156 432.129 404.785 433.105 398.438 c 0
 433.594 392.09 432.129 382.324 429.199 369.141 c 1
 404.785 252.93 l 1
 229.98 252.93 l 1
 253.906 369.141 l 1
 257.324 382.324 260.254 392.09 263.184 398.438 c 0
 265.625 404.785 269.531 410.156 274.902 414.062 c 0
 279.785 417.48 286.133 419.922 294.434 421.387 c 0
 302.734 423.34 310.059 424.316 315.43 424.316 c 0
 321.289 424.805 324.219 424.805 325.195 424.805 c 1
 331.055 453.125 l 1
 122.07 453.125 l 1
 116.211 424.805 l 1
 117.188 424.805 121.094 424.805 126.953 424.316 c 0
 132.812 424.316 140.137 423.34 148.438 421.387 c 0
 156.738 419.922 162.109 417.48 165.039 414.062 c 0
 168.457 410.645 169.434 405.762 168.945 399.414 c 0
 168.457 393.066 167.48 388.184 166.992 383.789 c 2
 103.027 85.9375 l 2
 100.098 74.2188 97.6562 64.4531 95.7031 57.6172 c 0
 93.2617 50.293 89.3555 44.4336 83.9844 39.0625 c 0
 80.5664 36.1328 74.707 34.1797 65.918 33.2031 c 0
 57.1289 31.7383 49.8047 30.7617 43.457 30.2734 c 0
 37.1094 30.2734 33.2031 29.7852 32.2266 29.7852 c 1
 25.8789 0 l 1
 234.863 0 l 1
 241.211 29.7852 l 1
 239.746 29.7852 235.84 30.2734 229.98 30.2734 c 0
 224.121 30.7617 216.797 31.7383 208.496 33.2031 c 0
 200.195 34.1797 194.824 36.1328 192.871 39.0625 c 0
 190.918 42.4805 189.941 47.3633 189.453 53.7109 c 0
 188.965 60.0586 190.918 72.2656 194.824 90.8203 c 2
 220.215 207.031 l 1
 395.02 207.031 l 1
 370.117 90.8203 l 2
 366.211 72.2656 362.793 60.0586 359.863 53.7109 c 0
 357.422 47.3633 353.516 42.4805 349.121 39.0625 c 0
 345.703 36.1328 339.844 34.1797 331.055 33.2031 c 0
 322.266 31.7383 314.941 30.7617 308.594 30.2734 c 0
 302.246 30.2734 298.34 29.7852 296.875 29.7852 c 1
 291.016 0 l 1
 500 0 l 1
 505.859 29.7852 l 1
 505.371 29.7852 501.953 30.2734 495.605 30.2734 c 0
 489.258 30.7617 481.934 31.7383 474.121 33.2031 c 0
 465.82 34.1797 460.938 36.1328 458.984 39.0625 c 0
 455.078 44.4336 453.125 50.293 454.102 57.6172 c 0
 454.59 64.4531 456.543 74.2188 458.984 85.9375 c 2
 521.973 379.883 l 2
 522.461 383.301 524.414 389.16 526.855 396.973 c 0
 529.785 404.785 533.203 410.645 537.109 414.062 c 0
 541.016 417.48 547.363 419.922 556.641 421.387 c 0
 565.43 423.34 573.242 424.316 579.59 424.316 c 0
 585.938 424.805 589.355 424.805 589.844 424.805 c 1
EndSplineSet
Fore
394 223 m 1
 230 223 l 1
 197 66 l 2
 196 60 195 54 195 50 c 0
 195 29 209 22 248 17 c 1
 244 0 l 1
 14 0 l 1
 18 17 l 1
 67 23 79 32 86 66 c 2
 156 396 l 2
 157 403 158 408 158 413 c 0
 158 434 145 441 108 444 c 1
 112 462 l 1
 342 462 l 1
 338 444 l 1
 291 441 274 430 267 396 c 2
 237 255 l 1
 401 255 l 1
 431 396 l 2
 432 402 433 408 433 413 c 0
 433 434 419 442 380 444 c 1
 384 462 l 1
 616 462 l 1
 612 444 l 1
 566 441 549 430 542 396 c 2
 472 66 l 2
 471 59 470 54 470 49 c 0
 470 29 483 22 522 17 c 1
 518 0 l 1
 286 0 l 1
 290 17 l 1
 341 23 354 32 361 66 c 2
 394 223 l 1
EndSplineSet
EndChar
StartChar: I
Encoding: 73 73 42
Width: 265
Flags: HW
HStem: 0 21G<14 253> 442 20G<112 351>
DStem: 161 396 272 396 91 66 202 66
Back
228.027 0 m 1
 19.043 0 l 1
 24.9023 29.7852 l 1
 48.3398 29.7852 64.4531 33.2031 74.2188 39.5508 c 0
 83.4961 45.8984 90.332 59.5703 95.2148 80.0781 c 1
 157.227 372.07 l 2
 159.18 381.836 160.156 390.625 161.133 397.949 c 0
 161.621 405.273 161.133 410.645 159.18 414.062 c 0
 157.227 418.457 151.367 421.387 141.602 421.875 c 0
 131.836 422.852 121.094 422.852 108.887 422.852 c 1
 115.234 452.148 l 1
 324.219 452.148 l 1
 317.871 422.852 l 1
 304.688 422.852 293.457 422.852 284.668 421.875 c 0
 275.391 421.387 268.555 418.457 264.16 414.062 c 0
 257.812 408.203 252.441 394.043 247.07 372.07 c 1
 185.059 80.0781 l 2
 180.176 58.5938 181.152 44.9219 187.988 39.0625 c 0
 194.824 33.2031 209.961 29.7852 233.887 29.7852 c 1
 228.027 0 l 1
EndSplineSet
Fore
91 66 m 2
 161 396 l 2
 162 402 163 408 163 413 c 0
 163 434 148 442 108 444 c 1
 112 462 l 1
 351 462 l 1
 347 444 l 1
 296 442 280 431 272 396 c 2
 202 66 l 2
 200 59 200 53 200 48 c 0
 200 26 215 19 257 17 c 1
 253 0 l 1
 14 0 l 1
 18 17 l 1
 70 22 84 31 91 66 c 2
EndSplineSet
EndChar
StartChar: J
Encoding: 74 74 43
Width: 341
Flags: HW
HStem: -66 23<101 108> 442 20G<185 425>
VStem: 6 71<-25 11> 6 100<11 33>
DStem: 240 396 347 382 159 16 284 84
Back
355.957 422.852 m 1
 323.242 422.852 303.223 415.527 295.898 400.879 c 0
 293.457 395.02 290.527 385.742 287.109 373.047 c 1
 234.863 128.906 l 1
 227.051 89.8438 211.426 57.1289 187.988 32.2266 c 1
 161.133 5.37109 127.441 -7.8125 86.9141 -7.8125 c 0
 68.3594 -7.8125 54.1992 -4.39453 43.9453 2.92969 c 0
 27.832 13.6719 21.9727 28.3203 25.8789 46.875 c 0
 27.832 56.1523 33.6914 65.4297 42.9688 75.1953 c 0
 52.2461 84.4727 62.5 88.8672 74.2188 88.8672 c 0
 89.8438 88.8672 100.586 83.9844 105.469 73.7305 c 0
 110.352 62.9883 111.816 52.2461 108.887 41.0156 c 0
 107.91 37.1094 107.91 34.668 108.887 34.1797 c 0
 110.352 33.2031 111.816 33.2031 112.793 33.2031 c 0
 122.559 33.2031 129.395 44.4336 133.789 67.8711 c 1
 199.219 373.047 l 2
 203.613 394.531 202.637 408.203 195.801 414.062 c 0
 189.453 419.922 174.316 422.852 150.879 422.852 c 1
 157.227 453.125 l 1
 361.816 453.125 l 1
 355.957 422.852 l 1
EndSplineSet
Fore
106 33 m 0xd0
 106 3.57583 80.7852 -2.07415 77 -21 c 2
 77 -25 l 2
 77 -36 87 -43 103 -43 c 0
 134 -43 150 -26 159 16 c 2
 240 396 l 2
 241 403 242 408 242 413 c 0
 242 436 226 442 181 444 c 1
 185 462 l 1
 425 462 l 1
 421 444 l 1
 370 441 358 431 347 382 c 2xe0
 284 84 l 2
 263 -14 202 -66 106 -66 c 0xd0
 79 -66 53 -59 37 -50 c 0
 18 -37 6 -13 6 11 c 0xe0
 6 16 6 20 7 25 c 0
 13 51 41 74 66 74 c 0
 89 74 106 56 106 33 c 0xd0
EndSplineSet
KernsSLIF: 65 -20 2 0 264 -18 2 0 309 -20 2 0 310 -20 2 0
EndChar
StartChar: K
Encoding: 75 75 44
Width: 531
Flags: HW
HStem: 0 18<300 525> 444 18<403 418.406>
DStem: 164 396 271 382 94 66 240 236 164 396 232 199 94 66 204 66 255 216 344 289 346 61 499 31
Back
508.789 0 m 1
 288.086 0 l 1
 293.945 29.7852 l 1
 321.289 29.7852 336.914 32.2266 340.82 36.1328 c 0
 341.797 36.6211 341.797 37.1094 341.797 38.0859 c 0
 341.797 38.5742 342.285 39.5508 342.773 41.0156 c 0
 343.75 44.9219 342.773 49.8047 339.844 55.6641 c 0
 337.402 61.0352 333.984 66.8945 330.078 73.2422 c 2
 231.934 205.078 l 1
 223.145 198.242 l 1
 198.242 80.0781 l 2
 195.801 70.8008 194.824 62.5 193.848 55.6641 c 0
 193.359 48.3398 194.824 43.457 198.242 40.0391 c 0
 201.172 34.668 208.008 31.7383 217.773 30.7617 c 0
 228.027 30.2734 236.816 29.7852 245.117 29.7852 c 1
 238.77 0 l 1
 29.7852 0 l 1
 36.1328 29.7852 l 1
 63.4766 29.7852 82.5195 34.1797 92.7734 42.9688 c 0
 95.7031 44.9219 98.1445 49.8047 100.586 58.1055 c 0
 103.027 65.918 105.469 76.1719 107.91 87.8906 c 2
 167.969 372.07 l 1
 172.852 392.09 171.875 405.273 165.039 412.598 c 0
 158.203 419.434 143.555 422.852 120.117 422.852 c 1
 125.977 453.125 l 1
 336.914 453.125 l 1
 331.055 422.852 l 1
 319.824 422.852 308.594 422.363 298.34 420.41 c 0
 288.086 418.945 280.762 416.016 275.879 412.109 c 0
 271.973 408.691 269.043 403.809 266.602 396.973 c 0
 264.16 390.137 262.207 381.836 259.766 372.07 c 2
 235.84 259.766 l 1
 382.812 372.07 l 2
 403.809 388.184 415.039 400.879 416.992 411.133 c 0
 418.945 418.945 404.785 422.852 374.023 422.852 c 1
 379.883 453.125 l 1
 573.242 453.125 l 1
 566.895 422.852 l 1
 557.617 422.852 548.828 422.852 540.039 421.875 c 0
 531.25 421.387 522.461 418.945 513.184 415.039 c 0
 505.859 411.621 497.559 406.738 487.793 399.902 c 0
 478.516 393.555 467.285 384.766 454.102 374.023 c 2
 311.035 256.836 l 1
 459.961 47.8516 l 2
 463.867 42.4805 471.191 38.5742 481.445 35.1562 c 0
 491.699 31.7383 502.93 29.7852 515.137 29.7852 c 1
 508.789 0 l 1
EndSplineSet
Fore
529 17 m 1
 525 0 l 1
 296 0 l 1
 300 17 l 1
 309 18 318 18 321 18 c 0
 344 19 355 23 357 31 c 0
 357 34 l 0
 357 41 355 47 346 61 c 2
 255 216 l 1
 232 199 l 1
 204 66 l 2
 203 59 202 54 202 49 c 0
 202 29 215 22 255 17 c 1
 251 0 l 1
 20 0 l 1
 24 17 l 1
 75 23 87 31 94 66 c 2
 164 396 l 2
 166 403 166 409 166 414 c 0
 166 435 152 442 114 444 c 1
 118 462 l 1
 349 462 l 1
 345 444 l 1
 295 441 281 430 271 382 c 2
 240 236 l 1
 421 384 l 2
 446 406 450 411 453 422 c 0
 453 424 454 426 454 427 c 0
 454 437 445 441 424 442 c 0
 420 443 411 444 399 444 c 1
 403 462 l 1
 600 462 l 1
 596 444 l 1
 529 439 502 422 344 289 c 1
 499 31 l 1
 504 21 512 18 529 17 c 1
EndSplineSet
KernsSLIF: 67 -41 2 0 71 -38 2 0 79 -38 2 0 265 -31 2 0 322 -38 2 0 325 -38 2 0 83 8 2 0 84 -1 2 0 97 4 2 0 335 4 2 0 266 2 2 0 336 4 2 0 101 -13 2 0 45 -32 2 0 111 -17 2 0 348 -17 2 0 351 -17 2 0 117 -12 2 0 355 -12 2 0 121 -56 2 0
EndChar
StartChar: L
Encoding: 76 76 45
Width: 455
Flags: HW
HStem: 0 21<220 408> 442 20G<111 349>
DStem: 156 396 263 382 86 66 195 59
Back
463.867 131.836 m 1
 399.902 0 l 1
 25.8789 0 l 1
 32.2266 29.7852 l 1
 54.1992 29.7852 69.8242 33.6914 79.1016 40.5273 c 0
 88.3789 47.3633 95.2148 60.5469 99.1211 80.0781 c 2
 161.133 373.047 l 1
 163.574 383.789 165.039 393.066 165.527 400.391 c 0
 166.016 408.203 164.551 412.598 161.133 414.062 c 2
 116.211 423.828 l 1
 122.07 453.125 l 1
 331.055 453.125 l 1
 325.195 423.828 l 1
 286.133 419.922 l 2
 282.227 419.434 277.344 417.48 271.973 414.062 c 0
 264.648 408.691 258.301 395.02 252.93 373.047 c 1
 187.012 62.0117 l 1
 185.547 58.1055 185.547 55.1758 186.035 53.7109 c 0
 186.523 51.7578 187.988 49.8047 189.941 46.875 c 0
 191.406 45.8984 194.824 44.4336 201.172 43.457 c 0
 207.031 42.4805 212.891 41.9922 217.773 41.9922 c 2
 237.793 41.9922 l 2
 292.48 41.9922 328.125 45.8984 345.215 54.1992 c 0
 371.094 64.4531 397.461 90.8203 424.805 131.836 c 1
 463.867 131.836 l 1
EndSplineSet
Fore
241 21 m 0
 352.726 21 395.931 72.2744 449 155 c 1
 469 155 l 1
 408 0 l 1
 13 0 l 1
 17 17 l 1
 68 23 79 31 86 66 c 2
 156 396 l 2
 158 403 158 409 158 414 c 0
 158 435 144 442 107 444 c 1
 111 462 l 1
 349 462 l 1
 345 444 l 1
 286 442 274 433 263 382 c 2
 195 59 l 2
 194 54 193 49 193 45 c 0
 193 27 207 21 241 21 c 0
EndSplineSet
KernsSLIF: 67 -7 2 0 311 -9 2 0 71 -3 2 0 79 -3 2 0 322 -3 2 0 323 -3 2 0 325 -3 2 0 321 -3 2 0 324 -3 2 0 83 1 2 0 84 -50 2 0 85 -19 2 0 329 -19 2 0 86 -72 2 0 87 -59 2 0 89 -60 2 0 45 16 2 0 148 -25 2 0 146 -47 2 0 117 -7 2 0 355 -8 2 0 121 -33 2 0
EndChar
StartChar: M
Encoding: 77 77 46
Width: 644
Flags: HW
HStem: 0 21G<10 169 272 291 402 629> 442 20G<109 282 555 727>
DStem: 156 396 186 406 87 72 118 85 186 406 282 462 272 0 350 139 551 416 650 382 477 68 586 80 555 462 551 416 350 139 291 0
Back
618.164 0 m 1
 409.18 0 l 1
 415.039 29.7852 l 1
 429.199 29.7852 440.918 30.7617 450.684 32.7148 c 0
 459.961 34.1797 466.797 37.1094 471.191 41.0156 c 0
 476.562 46.875 481.934 62.5 487.793 87.8906 c 1
 541.016 336.914 l 1
 316.895 0 l 1
 293.945 0 l 1
 213.867 324.219 l 1
 166.992 104.98 l 1
 161.133 75.6836 159.18 56.1523 162.109 46.875 c 0
 166.016 35.6445 183.105 29.7852 212.891 29.7852 c 1
 207.031 0 l 1
 26.8555 0 l 1
 33.2031 29.7852 l 1
 64.4531 29.7852 83.4961 34.668 89.8438 43.9453 c 1
 99.1211 54.1992 106.934 74.2188 112.793 104.98 c 1
 169.922 371.094 l 2
 174.805 392.09 174.316 406.25 168.945 413.086 c 0
 166.992 415.039 162.598 416.504 155.762 417.969 c 2
 119.141 422.852 l 1
 125 452.148 l 1
 275.879 452.148 l 1
 353.027 134.766 l 1
 559.082 452.148 l 1
 713.867 452.148 l 1
 708.008 421.875 l 1
 685.547 421.875 669.434 418.457 660.156 411.133 c 0
 650.879 403.809 644.043 390.137 640.137 371.094 c 2
 578.125 80.0781 l 1
 571.777 54.1992 576.172 38.5742 589.844 33.2031 c 1
 624.023 28.8086 l 1
 618.164 0 l 1
EndSplineSet
Fore
551 416 m 1
 291 0 l 1
 272 0 l 1
 186 406 l 1
 118 85 l 2
 115 73 114 64 114 55 c 0
 114 28 130 20 173 17 c 1
 169 0 l 1
 10 0 l 1
 14 17 l 1
 68 23 79 31 87 72 c 2
 156 396 l 2
 158 403 159 409 159 414 c 0
 159 434 145 441 105 444 c 1
 109 462 l 1
 282 462 l 1
 350 139 l 1
 555 462 l 1
 727 462 l 1
 723 444 l 1
 673 441 661 431 650 382 c 2
 586 80 l 2
 583 67 582 57 582 49 c 0
 582 27 595 22 633 17 c 1
 629 0 l 1
 402 0 l 1
 406 17 l 1
 458 22 469 30 477 68 c 2
 551 416 l 1
EndSplineSet
EndChar
StartChar: N
Encoding: 78 78 47
Width: 492
Flags: HW
HStem: 0 21G<11 166> 444 18<107 114>
DStem: 155 395 177 359 86 72 119 85 177 359 255 462 403 -12 431 169 475 377 508 390 431 169 422 -12
Back
601.074 422.852 m 1
 586.914 422.852 575.195 421.387 564.941 417.48 c 0
 555.176 414.062 547.852 409.18 542.969 403.809 c 0
 533.691 392.09 526.367 373.047 520.996 347.168 c 2
 445.801 -5.85938 l 1
 415.039 -5.85938 l 1
 212.891 335.938 l 1
 165.039 105.957 l 1
 158.203 76.6602 156.25 57.1289 159.18 46.875 c 0
 161.621 35.6445 178.223 29.7852 208.984 29.7852 c 1
 203.125 0 l 1
 23.9258 0 l 1
 29.7852 29.7852 l 1
 61.5234 29.7852 81.543 36.1328 89.8438 47.8516 c 0
 97.168 56.1523 104.492 75.1953 110.84 105.957 c 2
 171.875 394.043 l 1
 160.156 413.574 140.625 422.852 113.77 422.852 c 1
 120.117 453.125 l 1
 252.93 453.125 l 1
 425.781 154.785 l 1
 466.797 347.168 l 2
 470.215 362.305 472.656 374.512 474.121 383.789 c 0
 475.098 393.555 475.098 400.391 474.121 404.785 c 0
 469.238 416.992 451.66 422.852 420.898 422.852 c 1
 426.758 453.125 l 1
 606.934 453.125 l 1
 601.074 422.852 l 1
EndSplineSet
Fore
255 462 m 1
 431 169 l 1
 475 377 l 2
 477 388 479 397 479 405 c 0
 479 431 464 441 426 444 c 1
 430 462 l 1
 577 462 l 1
 573 444 l 1
 527 438 516 429 508 390 c 2
 422 -12 l 1
 403 -12 l 1
 177 359 l 1
 119 85 l 2
 117 74 115 64 115 57 c 0
 115 30 130 22 170 17 c 1
 166 0 l 1
 11 0 l 1
 15 17 l 1
 66 23 78 33 86 72 c 2
 155 395 l 1
 130 434 121 444 107 444 c 1
 111 462 l 1
 255 462 l 1
EndSplineSet
KernsSLIF: 65 -12 2 0 264 -10 2 0 306 -12 2 0 309 -12 2 0 310 -12 2 0 67 -15 2 0 311 -15 2 0 71 -10 2 0 79 -10 2 0 322 -10 2 0 325 -10 2 0 97 -10 2 0 332 -10 2 0 335 -10 2 0 266 -12 2 0 336 -10 2 0 101 -8 2 0 339 -8 2 0 111 -10 2 0 348 -10 2 0 351 -10 2 0 364 -10 2 0 117 -11 2 0 355 -11 2 0
EndChar
StartChar: O
Encoding: 79 79 48
Width: 531
Flags: HW
HStem: -13 23<257 275> 449 23<353 370>
VStem: 66 114<127 170> 446 116<285 327>
Back
74.2188 226.074 m 0
 67.3828 193.359 66.8945 162.598 71.7773 134.277 c 0
 77.1484 105.957 87.8906 81.543 103.516 60.5469 c 0
 119.141 39.5508 139.16 22.9492 164.062 10.7422 c 0
 188.477 -1.95312 216.309 -7.8125 247.07 -7.8125 c 0
 278.32 -7.8125 308.594 -1.95312 338.379 10.7422 c 0
 368.164 22.9492 395.508 39.5508 419.922 60.5469 c 0
 444.824 81.543 465.82 105.957 483.887 134.277 c 0
 501.953 162.598 514.16 193.359 520.996 226.074 c 0
 528.32 258.789 529.297 289.062 523.438 317.383 c 0
 518.066 345.703 506.836 370.605 491.211 392.09 c 0
 475.098 413.574 454.59 430.176 430.664 442.383 c 0
 406.25 454.59 378.418 460.938 347.168 460.938 c 0
 316.406 460.938 286.133 454.59 255.859 442.383 c 0
 226.074 430.176 198.73 413.574 174.316 392.09 c 0
 150.391 370.605 129.395 345.703 111.328 317.383 c 0
 93.75 289.062 81.543 258.789 74.2188 226.074 c 0
170.898 226.074 m 0
 176.758 252.441 185.547 277.344 196.777 300.293 c 0
 208.496 323.73 221.68 343.262 236.328 360.352 c 0
 251.465 377.441 267.578 391.113 285.156 400.879 c 0
 302.246 411.133 319.824 416.016 337.891 416.016 c 0
 355.469 416.016 370.605 411.133 383.789 400.879 c 0
 397.461 391.113 408.203 377.441 416.016 360.352 c 0
 423.828 343.262 428.711 323.73 430.664 300.293 c 0
 432.129 277.344 430.176 252.441 423.828 226.074 c 0
 417.969 199.219 409.18 174.316 397.949 150.879 c 0
 386.719 127.441 373.535 107.422 358.398 90.332 c 0
 343.262 73.7305 327.148 60.0586 309.57 49.8047 c 0
 291.992 40.0391 274.414 35.1562 256.836 35.1562 c 0
 238.77 35.1562 223.145 40.0391 209.961 49.8047 c 0
 196.777 60.0586 186.035 73.7305 178.711 90.332 c 0
 170.898 107.422 166.016 127.441 164.551 150.879 c 0
 162.598 174.316 165.039 199.219 170.898 226.074 c 0
EndSplineSet
Fore
368 472 m 0
 487 472 562 396 562 285 c 0
 562 267 560 248 556 229 c 0
 526 88 404 -13 263 -13 c 0
 142 -13 66 60 66 170 c 0
 66 189 68 208 73 229 c 0
 103 371 226 472 368 472 c 0
363 449 m 0
 283 449 224 370 192 223 c 0
 184 186 180 154 180 127 c 0
 180 51 210 10 268 10 c 0
 346 10 404 85 434 225 c 0
 442 264 446 298 446 327 c 0
 446 406 418 449 363 449 c 0
EndSplineSet
KernsSLIF: 65 -37 2 0 264 -36 2 0 306 -37 2 0 309 -37 2 0 310 -37 2 0 84 -6 2 0 86 -40 2 0 87 -36 2 0 88 -34 2 0 89 -40 2 0
EndChar
StartChar: P
Encoding: 80 80 49
Width: 417
Flags: HW
HStem: 0 20<26 239> 207 24<223 260.001> 438 24<109 321>
VStem: 369 116<363 380>
DStem: 149 382 267 414 85 80 228 231 149 382 223 207 85 80 196 80
Back
366.211 325.195 m 0
 372.07 353.516 367.676 375.488 353.516 390.137 c 0
 339.355 404.785 312.5 412.109 273.926 412.109 c 0
 267.09 412.109 262.695 411.133 259.766 409.668 c 0
 257.324 407.715 255.371 403.809 253.906 397.949 c 2
 219.238 234.863 l 1
 221.68 234.375 225.586 233.887 230.957 233.887 c 2
 249.023 233.887 l 2
 314.453 233.887 353.516 264.16 366.211 325.195 c 0
461.914 326.172 m 0
 456.543 301.758 446.289 280.762 431.152 262.695 c 0
 415.527 244.141 396.484 229.004 373.047 216.797 c 0
 354.98 207.52 335.449 200.684 313.965 196.289 c 0
 292.48 192.383 269.531 189.941 244.141 189.941 c 2
 208.984 189.941 l 1
 186.035 80.0781 l 2
 182.129 60.0586 183.594 46.875 191.406 40.0391 c 0
 199.219 33.2031 214.355 29.7852 236.816 29.7852 c 1
 230.957 0 l 1
 24.9023 0 l 1
 30.7617 29.7852 l 1
 43.457 29.7852 54.6875 30.7617 63.4766 32.7148 c 0
 72.2656 34.1797 78.6133 36.6211 82.0312 40.0391 c 0
 85.4492 43.9453 88.3789 49.8047 90.332 57.6172 c 0
 92.7734 64.9414 95.7031 75.1953 99.1211 87.8906 c 1
 159.18 373.047 l 1
 163.574 393.066 163.086 406.25 157.715 413.086 c 0
 151.855 419.434 137.695 422.852 115.234 422.852 c 1
 121.094 453.125 l 1
 307.129 453.125 l 2
 352.539 453.125 390.137 444.824 419.922 428.223 c 0
 458.008 405.273 472.168 371.094 461.914 326.172 c 0
EndSplineSet
Fore
223 207 m 1
 196 80 l 2
 193 66 191 56 191 48 c 0
 191 27 204 22 243 17 c 1
 239 0 l 1
 11 0 l 1
 15 17 l 1
 22 18 29 20 31 20 c 0
 64 24 76 38 85 80 c 2
 149 382 l 2
 152 394 153 404 153 412 c 0
 153 434 141 441 105 444 c 1
 109 462 l 1
 329 462 l 2
 430 462 485 426 485 363 c 0
 485 296.111 434.325 243.8 371 222 c 0
 339 210 315 208 223 207 c 1
267 414 m 2
 228 231 l 1
 276 231 300 236 319 249 c 0
 346.267 269.775 369 327.024 369 380 c 0
 369 421 349 438 306 438 c 0
 283 438 270 429 267 414 c 2
EndSplineSet
KernsSLIF: 65 -55 2 0 264 -64 2 0 306 -55 2 0 309 -55 2 0 310 -55 2 0 74 -46 2 0 97 -12 2 0 332 -12 2 0 335 -12 2 0 266 -15 2 0 336 -12 2 0 44 -58 2 0 101 -19 2 0 339 -19 2 0 45 -26 2 0 111 -22 2 0 348 -22 2 0 351 -15 2 0 267 -20 2 0 364 -22 2 0 46 -58 2 0
EndChar
StartChar: Q
Encoding: 81 81 50
Width: 531
Flags: HW
HStem: -120 32<354 434> 449 23<352 371>
VStem: 66 115<125 172> 446 116<287 327>
Back
63.9648 227.051 m 0
 58.5938 200.195 57.1289 174.805 59.5703 150.879 c 0
 62.0117 126.953 67.8711 104.98 77.6367 85.4492 c 0
 87.4023 65.918 99.6094 48.8281 115.723 34.668 c 0
 131.348 20.0195 149.414 8.78906 169.922 0.976562 c 1
 184.082 -27.832 l 1
 200.195 -53.2227 222.168 -72.7539 250.977 -86.4258 c 0
 279.785 -100.098 314.453 -106.934 355.957 -106.934 c 2
 416.016 -106.934 l 1
 422.852 -77.1484 l 1
 411.133 -77.1484 398.438 -76.1719 385.742 -74.707 c 0
 372.559 -72.7539 359.863 -69.3359 347.656 -63.9648 c 0
 334.961 -58.5938 323.73 -51.2695 312.988 -41.5039 c 0
 302.246 -31.7383 293.457 -19.5312 286.133 -3.90625 c 1
 312.012 1.95312 337.402 12.207 361.328 25.8789 c 0
 385.742 40.0391 408.203 57.1289 428.223 77.6367 c 0
 448.242 97.6562 465.332 120.605 479.492 145.996 c 0
 493.652 171.387 503.906 198.242 509.766 227.051 c 0
 517.09 259.766 518.066 290.527 512.695 318.848 c 0
 506.836 347.656 496.094 373.047 480.469 394.531 c 0
 464.844 416.016 444.824 433.105 420.41 445.312 c 0
 395.996 458.008 368.652 463.867 337.891 463.867 c 0
 307.129 463.867 277.344 458.008 247.559 445.312 c 0
 217.773 433.105 190.43 416.016 165.527 394.531 c 0
 140.625 373.047 119.141 347.656 101.562 318.848 c 0
 83.9844 290.527 71.2891 259.766 63.9648 227.051 c 0
163.086 226.074 m 0
 168.457 251.953 176.758 276.367 187.988 299.316 c 0
 199.219 322.266 212.402 342.285 227.539 359.375 c 0
 242.676 376.465 258.789 390.137 275.879 399.902 c 0
 293.457 410.156 310.547 415.039 328.125 415.039 c 0
 345.215 415.039 360.352 410.156 373.535 399.902 c 0
 386.719 390.137 396.484 376.465 403.809 359.375 c 0
 411.133 342.285 416.016 322.266 417.48 299.316 c 0
 418.945 276.367 417.48 251.953 412.109 226.074 c 0
 406.738 200.195 398.438 175.293 387.207 152.344 c 0
 375.488 129.395 362.305 109.375 347.656 92.2852 c 0
 332.52 75.6836 316.406 62.0117 299.316 51.7578 c 0
 282.715 41.9922 265.137 37.1094 248.047 37.1094 c 0
 230.469 37.1094 215.332 41.9922 202.148 51.7578 c 0
 188.477 62.0117 178.223 75.6836 170.898 92.2852 c 0
 163.574 109.375 159.18 129.395 157.715 152.344 c 0
 155.762 175.293 157.715 200.195 163.086 226.074 c 0
EndSplineSet
Fore
481 -80 m 1
 482 -96 l 1
 427 -115 396 -120 354 -120 c 0
 294 -120 242 -98 212 -60 c 0
 200 -44 194 -31 186 -1 c 1
 138 18 120 31 98 63 c 0
 77 94 66 131 66 172 c 0
 66 190 68 208 72 226 c 0
 102 368 226 472 366 472 c 0
 486 472 562 397 562 287 c 0
 562 268 559 249 555 228 c 0
 541 162 507 103 456 59 c 0
 420 27 393 14 334 -4 c 1
 341 -29 345 -40 356 -53 c 0
 374 -76 402 -88 434 -88 c 0
 447 -88 459 -86 481 -80 c 1
361 449 m 0
 283 449 223 369 193 226 c 0
 185 187 181 154 181 125 c 0
 181 49 210 10 268 10 c 0
 346 10 404 85 434 225 c 0
 442 264 446 298 446 327 c 0
 446 405 417 449 361 449 c 0
EndSplineSet
EndChar
StartChar: R
Encoding: 82 82 51
Width: 492
Flags: HW
HStem: 0 17<486 492> 214 22<238 252> 438 24<116 337>
VStem: 390 115<363 379>
DStem: 159 382 275 410 95 80 238 236 159 382 233 214 95 80 205 80 252 214 371 225 348 0 466 30
Back
372.07 331.055 m 0
 377.93 357.91 374.023 377.93 359.863 391.602 c 0
 346.191 405.273 323.242 412.109 291.992 412.109 c 0
 276.855 412.109 267.578 411.133 265.137 410.156 c 0
 263.672 408.691 262.207 407.227 261.23 405.273 c 0
 259.766 403.809 258.301 400.879 256.836 395.996 c 1
 225.098 243.164 l 1
 243.652 243.164 259.277 244.141 271.973 246.582 c 0
 284.668 249.023 296.387 251.953 307.129 255.859 c 0
 342.285 269.531 363.77 294.434 372.07 331.055 c 0
470.215 0 m 1
 345.215 0 l 1
 231.934 202.148 l 1
 215.82 201.172 l 1
 189.941 80.0781 l 2
 186.035 60.5469 187.012 47.3633 193.359 40.5273 c 0
 199.707 33.6914 214.355 29.7852 236.816 29.7852 c 1
 230.957 0 l 1
 25.8789 0 l 1
 32.2266 29.7852 l 1
 45.4102 29.7852 56.6406 31.25 65.4297 33.6914 c 0
 74.707 35.6445 80.5664 38.5742 83.9844 41.0156 c 0
 86.4258 42.9688 89.3555 47.8516 91.3086 56.1523 c 0
 93.75 63.9648 96.6797 74.707 100.098 87.8906 c 1
 160.156 373.047 l 1
 165.527 394.531 166.016 407.715 162.109 413.086 c 0
 155.762 419.434 140.625 422.852 116.211 422.852 c 1
 122.07 453.125 l 1
 316.895 453.125 l 2
 435.547 453.125 485.84 412.109 467.773 330.078 c 0
 455.566 271.484 409.18 232.422 330.078 212.891 c 1
 422.852 58.1055 l 2
 434.57 39.5508 452.148 29.7852 476.074 29.7852 c 1
 470.215 0 l 1
EndSplineSet
Fore
492 17 m 1
 488 0 l 1
 348 0 l 1
 252 214 l 1
 233 214 l 1
 205 80 l 2
 202 67 201 57 201 50 c 0
 201 27 214 22 253 17 c 1
 249 0 l 1
 18 0 l 1
 22 17 l 1
 76 23 84 30 95 80 c 2
 159 382 l 2
 162 394 163 404 163 412 c 0
 163 436 149 442 112 444 c 1
 116 462 l 1
 336 462 l 2
 447 462 505 427 505 365 c 0
 505 282.484 443.561 246.937 371 225 c 1
 466 30 l 1
 471 21 480 17 492 17 c 1
318 438 m 0
 288.473 438 279.478 427.912 275 410 c 1
 238 236 l 1
 290 236 315 241 335 253 c 0
 366.617 270.705 390 322.839 390 377 c 0
 390 420 368 438 318 438 c 0
EndSplineSet
KernsSLIF: 67 -24 2 0 311 -25 2 0 71 -20 2 0 79 -19 2 0 265 -15 2 0 322 -19 2 0 325 -19 2 0 84 -17 2 0 85 -25 2 0 329 -25 2 0 86 -36 2 0 87 -37 2 0 89 -36 2 0 97 4 2 0 332 4 2 0 335 4 2 0 266 2 2 0 336 4 2 0 101 -12 2 0 339 -12 2 0 45 -20 2 0 111 -16 2 0 348 -16 2 0 351 -16 2 0 267 -14 2 0 117 -11 2 0 353 -11 2 0 355 -11 2 0 121 -18 2 0
EndChar
StartChar: S
Encoding: 83 83 52
Width: 379
Flags: HW
HStem: -13 23<176 198> 10 146<57 70> 324 125<379 399> 451 21<260 291>
VStem: 98 85<305 367> 289 92<105 159>
Back
361.816 118.164 m 0
 354.004 80.5664 331.543 49.3164 294.922 23.9258 c 1
 261.719 3.41797 225.098 -6.83594 186.035 -6.83594 c 0
 178.711 -6.83594 170.41 -6.34766 161.133 -4.88281 c 0
 151.855 -3.90625 141.113 -1.46484 129.883 1.95312 c 0
 110.84 9.27734 97.168 13.1836 89.8438 13.1836 c 0
 82.5195 13.1836 78.125 6.34766 76.1719 -6.83594 c 1
 42.9688 -6.83594 l 1
 55.1758 146.973 l 1
 84.9609 146.973 l 1
 92.7734 107.91 104.492 78.6133 119.141 59.5703 c 0
 133.789 40.5273 154.297 30.7617 181.152 30.7617 c 0
 199.707 30.7617 216.797 37.1094 232.91 49.3164 c 0
 249.023 62.0117 258.789 77.1484 262.207 96.1914 c 0
 267.09 120.117 261.23 141.602 244.141 161.133 c 0
 240.723 165.039 234.375 170.898 224.609 178.223 c 0
 214.844 185.547 202.148 193.848 187.012 204.102 c 0
 172.852 213.867 160.645 223.145 150.391 231.934 c 0
 140.137 240.723 131.836 248.535 125.977 255.859 c 0
 108.887 280.762 103.516 309.082 109.863 340.82 c 0
 113.77 358.887 121.094 375.488 130.859 390.137 c 0
 141.113 404.785 152.832 417.48 166.992 428.223 c 0
 181.152 438.477 196.289 446.777 213.379 452.637 c 0
 230.469 458.008 248.047 460.938 266.113 460.938 c 0
 272.461 460.938 280.273 459.961 289.062 458.496 c 0
 297.852 457.031 308.105 454.102 320.801 450.195 c 2
 353.027 438.965 l 1
 357.91 440.43 363.281 447.754 370.117 460.938 c 1
 400.879 460.938 l 1
 382.812 304.199 l 1
 350.098 304.199 l 1
 349.121 321.289 347.168 336.426 344.238 350.098 c 0
 340.82 363.281 334.961 375.488 327.148 386.23 c 0
 310.547 406.738 288.574 416.992 262.207 416.992 c 0
 246.582 416.992 233.398 412.109 222.656 402.344 c 0
 211.426 393.066 204.102 379.883 201.172 363.77 c 0
 196.289 340.82 208.496 317.871 236.816 294.922 c 2
 325.195 227.051 l 2
 359.863 200.195 372.07 164.062 361.816 118.164 c 0
EndSplineSet
Fore
399 324 m 1
 380 324 l 1
 376 369 369 388 352 412 c 0
 332 438 306 451 276 451 c 0
 229 451 194 425 185 382 c 0
 184 377 183 372 183 367 c 0
 183 344 198 327 240 305 c 2
 329 255 l 2
 362 237 381 200 381 159 c 0
 381 150 380 140 378 131 c 0
 360 45 279 -13 178 -13 c 0
 149 -13 124 -8 93 3 c 0
 79 8 72 10 66 10 c 0
 55 10 49 4 41 -13 c 1
 21 -13 l 1
 57 156 l 1
 77 156 l 1
 78 108 83 85 96 60 c 0
 115 27 145 10 185 10 c 0
 238 10 278 40 287 87 c 0
 288 94 289 99 289 105 c 0
 289 130 273 146 229 169 c 2
 188 191 l 2
 127 224 98 259 98 305 c 0
 98 314 99 323 101 333 c 0
 119 419 187 472 280 472 c 0
 305 472 326 468 356 457 c 0
 370 451 377 449 383 449 c 0
 395 449 402 455 410 472 c 1
 430 472 l 1
 399 324 l 1
EndSplineSet
KernsSLIF: 65 -16 2 0 264 -14 2 0 306 -16 2 0 309 -16 2 0 310 -16 2 0 84 -10 2 0 86 -6 2 0 87 -6 2 0 89 -5 2 0 116 -6 2 0
EndChar
StartChar: T
Encoding: 84 84 53
Width: 455
Flags: HW
HStem: 0 21G<107 350> 324 138<121 503>
DStem: 267 440 377 440 190 80 300 80
Back
485.84 324.219 m 1
 449.219 324.219 l 1
 450.195 361.816 445.801 384.766 436.035 393.066 c 0
 429.199 397.461 421.875 401.367 413.086 404.297 c 0
 404.297 407.715 392.09 409.18 375.977 409.18 c 2
 350.098 409.18 l 1
 279.785 80.0781 l 1
 275.879 60.0586 276.855 46.875 283.203 40.0391 c 0
 289.062 33.2031 304.199 29.7852 328.125 29.7852 c 1
 321.777 0 l 1
 112.793 0 l 1
 119.141 29.7852 l 1
 134.277 29.7852 145.996 31.25 153.32 33.6914 c 0
 161.133 35.6445 167.48 38.5742 172.852 41.9922 c 2
 171.875 41.9922 l 2
 178.223 46.875 184.082 62.0117 189.941 87.8906 c 1
 257.812 409.18 l 1
 232.91 409.18 l 2
 216.309 409.18 202.637 407.715 192.383 405.273 c 0
 182.129 403.32 173.34 399.414 166.016 394.043 c 0
 152.832 385.254 138.184 361.816 122.07 324.219 c 1
 85.9375 324.219 l 1
 118.164 453.125 l 1
 507.812 453.125 l 1
 485.84 324.219 l 1
EndSplineSet
Fore
190 80 m 2
 267 440 l 1
 181 437 139 406 110 324 c 1
 90 324 l 1
 121 462 l 1
 531 462 l 1
 503 324 l 1
 483 324 l 1
 484 331 484 337 484 344 c 0
 484 411 453 437 377 440 c 1
 300 80 l 2
 297 67 295 56 295 48 c 0
 295 25 310 20 354 17 c 1
 350 0 l 1
 107 0 l 1
 111 17 l 1
 170 22 179 29 190 80 c 2
EndSplineSet
KernsSLIF: 65 -31 2 0 264 -30 2 0 306 -31 2 0 307 -31 2 0 309 -31 2 0 305 -31 2 0 310 -31 2 0 308 -31 2 0 67 -11 2 0 71 -7 2 0 74 -29 2 0 79 -6 2 0 265 -2 2 0 322 -6 2 0 323 -6 2 0 325 -6 2 0 321 -6 2 0 362 -7 2 0 324 -6 2 0 83 -1 2 0 86 7 2 0 87 6 2 0 89 7 2 0 97 -44 2 0 266 -47 2 0 99 -60 2 0 58 -58 2 0 44 -43 2 0 101 -58 2 0 103 -46 2 0 286 -67 2 0 288 -77 2 0 45 -49 2 0 105 -10 2 0 106 -27 2 0 111 -60 2 0 364 -59 2 0 46 -43 2 0 114 -41 2 0 115 -40 2 0 59 -58 2 0 117 -60 2 0 118 -72 2 0 119 -73 2 0 121 -70 2 0
EndChar
StartChar: U
Encoding: 85 85 54
Width: 492
Flags: HW
HStem: -13 33<246 280> 442 20G<109 340 426 577>
VStem: 93 108<82 116>
DStem: 148 382 256 382 100 154 208 154 475 377 507 386 431 169 461 169
Back
591.797 423.828 m 1
 576.66 422.852 563.965 420.41 554.199 417.48 c 0
 543.945 414.551 537.109 410.156 534.18 404.785 c 0
 527.344 395.508 520.996 376.465 515.137 347.168 c 1
 478.027 175.781 l 1
 472.656 152.832 466.309 131.348 458.984 112.305 c 0
 451.66 93.2617 442.871 77.1484 433.105 63.9648 c 0
 413.574 40.0391 388.672 21.9727 358.398 9.76562 c 0
 328.125 -1.95312 293.457 -7.8125 253.906 -7.8125 c 0
 195.801 -7.8125 155.273 6.34766 131.348 35.6445 c 0
 107.91 64.4531 102.051 108.398 113.77 166.992 c 1
 158.203 373.047 l 1
 162.598 393.066 161.621 406.25 154.297 413.086 c 0
 147.461 419.434 132.324 422.852 108.887 422.852 c 1
 115.234 453.125 l 1
 326.172 453.125 l 1
 319.824 422.852 l 1
 308.105 422.852 297.852 422.363 290.039 420.898 c 0
 282.227 419.434 275.391 416.992 269.531 413.574 c 0
 263.672 409.668 259.277 404.785 255.859 398.438 c 0
 252.441 392.09 250 383.789 248.047 373.047 c 1
 203.125 162.109 l 1
 186.523 78.6133 212.891 37.1094 283.203 37.1094 c 0
 328.125 37.1094 365.234 53.2227 393.066 84.9609 c 0
 404.785 99.1211 415.527 126.953 423.828 168.945 c 1
 461.914 347.168 l 2
 468.75 377.441 470.215 396.484 465.82 403.809 c 0
 459.961 416.504 443.359 422.852 416.016 422.852 c 1
 421.875 453.125 l 1
 598.145 453.125 l 1
 591.797 423.828 l 1
EndSplineSet
Fore
507 386 m 2
 461 169 l 2
 447 105 419 53 383 27 c 0
 347 2 297 -13 246 -13 c 0
 196 -13 156 -1 128 23 c 0
 104 43 93 65 93 98 c 0
 93 114 95 132 100 154 c 2
 148 382 l 2
 151 395 153 406 153 414 c 0
 153 435 140 441 105 444 c 1
 109 462 l 1
 340 462 l 1
 336 444 l 1
 303 443 292 440 282 434 c 0
 270 424 262 409 256 382 c 2
 208 154 l 2
 203 132 201 113 201 97 c 0
 201 44 226 20 280 20 c 0
 361 20 409 68 431 169 c 2
 475 377 l 2
 478 389 479 398 479 406 c 0
 479 433 463 441 422 444 c 1
 426 462 l 1
 577 462 l 1
 573 444 l 1
 528 438 516 427 507 386 c 2
EndSplineSet
KernsSLIF: 65 -36 2 0 264 -35 2 0 306 -36 2 0 307 -36 2 0 309 -36 2 0 310 -36 2 0 308 -36 2 0 44 -11 2 0 109 -15 2 0 110 -17 2 0 112 -19 2 0 46 -12 2 0 114 -19 2 0
EndChar
StartChar: V
Encoding: 86 86 55
Width: 492
Flags: HW
HStem: 444 18<109 334>
DStem: 152 397 275 369 240 -12 322 141 456 366 499 388 322 141 258 -12
Back
576.172 423.828 m 1
 563.965 423.828 555.176 422.852 549.805 420.898 c 0
 540.527 417.48 534.18 413.574 529.785 409.18 c 0
 525.879 404.297 522.461 400.391 520.02 396.973 c 1
 275.879 -5.85938 l 1
 243.164 -5.85938 l 1
 155.762 359.863 l 1
 149.902 387.207 144.043 404.785 138.184 413.086 c 0
 132.812 418.457 126.953 421.387 120.605 422.363 c 0
 114.258 423.34 106.934 423.828 99.1211 423.828 c 1
 104.98 453.125 l 1
 304.199 453.125 l 1
 297.852 423.828 l 1
 286.133 423.828 276.367 423.828 269.043 422.852 c 0
 261.719 422.363 255.859 420.898 250.977 417.969 c 0
 249.512 417.48 248.535 416.016 248.047 414.062 c 0
 247.559 412.109 246.582 410.156 246.094 408.203 c 0
 245.117 404.785 249.512 382.812 258.789 341.797 c 2
 305.176 140.137 l 1
 439.941 360.84 l 1
 443.359 367.676 446.777 374.512 450.684 380.859 c 0
 454.102 387.695 457.52 394.531 459.961 401.855 c 0
 463.867 416.504 449.707 423.828 416.992 423.828 c 1
 422.852 453.125 l 1
 582.031 453.125 l 1
 576.172 423.828 l 1
EndSplineSet
Fore
577 462 m 1
 573 444 l 1
 537 440 526 431 499 388 c 2
 258 -12 l 1
 240 -12 l 1
 152 397 l 1
 143 434 139 440 105 444 c 1
 109 462 l 1
 338 462 l 1
 334 444 l 1
 324 444 315 443 312 443 c 0
 281.817 441.839 270 433.288 270 407 c 0
 270 399 271 389 275 369 c 2
 322 141 l 1
 456 366 l 2
 474 395 478 403 480 414 c 0
 481 417 481 420 481 423 c 0
 481 438 468 441 427 444 c 1
 431 462 l 1
 577 462 l 1
EndSplineSet
KernsSLIF: 65 -77 2 0 264 -77 2 0 306 -77 2 0 307 -77 2 0 309 -77 2 0 305 -77 2 0 310 -77 2 0 308 -77 2 0 67 -47 2 0 71 -43 2 0 79 -43 2 0 322 -43 2 0 323 -43 2 0 325 -43 2 0 321 -43 2 0 362 -44 2 0 324 -43 2 0 83 -17 2 0 84 5 2 0 97 -59 2 0 266 -61 2 0 58 -64 2 0 44 -64 2 0 101 -58 2 0 103 -58 2 0 286 -66 2 0 288 -76 2 0 45 -46 2 0 105 -8 2 0 111 -60 2 0 364 -59 2 0 46 -64 2 0 114 -40 2 0 59 -64 2 0 117 -39 2 0 121 -38 2 0
EndChar
StartChar: W
Encoding: 87 87 56
Width: 682
Flags: HW
HStem: -10 21G<203 222 466 484> 442 20G<111 312 362 575 643 768>
DStem: 145 401 259 393 203 -10 288 145 412 355 418 315 288 145 222 -10 418 315 519 381 466 -10 543 152 670 386 708 401 543 152 484 -10
Back
755.859 424.805 m 1
 738.77 421.875 726.074 417.48 718.262 413.086 c 0
 710.938 408.203 703.125 400.391 695.801 389.16 c 1
 471.191 -5.85938 l 1
 438.965 -5.85938 l 1
 435.547 18.5547 430.176 53.2227 422.363 97.168 c 0
 415.039 141.113 405.273 193.359 394.043 253.906 c 1
 243.164 -5.85938 l 1
 214.844 -5.85938 l 1
 161.133 352.051 l 1
 157.227 379.883 153.32 396.484 149.902 401.855 c 0
 144.043 414.551 129.395 421.875 105.957 423.828 c 1
 111.816 453.125 l 1
 298.828 453.125 l 1
 292.969 422.852 l 1
 285.645 422.852 280.273 422.852 276.367 422.363 c 0
 272.949 422.363 269.531 421.875 266.113 420.898 c 0
 263.184 420.41 260.742 419.434 257.812 418.945 c 0
 255.371 418.457 252.441 417.48 249.023 416.016 c 1
 247.559 410.645 247.07 405.762 246.582 400.879 c 0
 246.094 396.484 246.582 390.137 248.047 382.812 c 2
 288.086 158.203 l 1
 382.812 318.848 l 1
 374.023 370.117 l 1
 368.652 392.578 364.258 406.738 360.84 412.109 c 0
 354.492 419.434 339.355 422.852 315.918 422.852 c 1
 321.777 453.125 l 1
 523.926 453.125 l 1
 518.066 422.852 l 1
 484.863 422.852 466.309 417.969 462.891 408.203 c 1
 462.891 395.02 l 1
 504.883 157.227 l 1
 623.047 356.934 l 2
 628.418 366.211 632.324 374.512 634.766 381.836 c 0
 637.695 389.16 639.648 395.996 641.113 401.855 c 0
 643.066 410.645 641.602 416.504 637.207 418.945 c 1
 601.074 423.828 l 1
 606.934 453.125 l 1
 762.207 453.125 l 1
 755.859 424.805 l 1
EndSplineSet
Fore
768 462 m 1
 764 444 l 1
 741 442 722 428 708 401 c 2
 484 -10 l 1
 466 -10 l 1
 418 315 l 1
 222 -10 l 1
 203 -10 l 1
 145 401 l 2
 140 434 136 440 107 444 c 1
 111 462 l 1
 312 462 l 1
 308 444 l 1
 272 442 263 436 258 416 c 0
 258 414 257 411 257 408 c 0
 257 407.6 287.716 146.706 288 145 c 1
 412 355 l 1
 402 421 l 1
 399 437 386 443 358 444 c 1
 362 462 l 1
 575 462 l 1
 571 444 l 1
 542.837 444 521.979 440.16 517 419 c 0
 517 413 l 0
 517 407 518 397 519 381 c 2
 543 152 l 1
 670 386 l 2
 676.391 397.504 682 409.087 682 423 c 0
 682 438 670 442 639 444 c 1
 643 462 l 1
 768 462 l 1
EndSplineSet
KernsSLIF: 65 -66 2 0 264 -69 2 0 306 -66 2 0 307 -66 2 0 309 -66 2 0 305 -66 2 0 310 -66 2 0 308 -66 2 0 67 -39 2 0 71 -35 2 0 79 -34 2 0 322 -34 2 0 323 -34 2 0 325 -34 2 0 321 -34 2 0 362 -34 2 0 324 -34 2 0 83 -16 2 0 84 6 2 0 97 -47 2 0 266 -49 2 0 58 -55 2 0 44 -49 2 0 101 -45 2 0 103 -47 2 0 286 -53 2 0 288 -63 2 0 45 -33 2 0 105 -8 2 0 111 -47 2 0 364 -47 2 0 46 -49 2 0 114 -33 2 0 59 -54 2 0 117 -30 2 0 121 -30 2 0
EndChar
StartChar: X
Encoding: 88 88 57
Width: 492
Flags: HW
HStem: 0 18<249 477> 444 18<110 342 397 406.998>
DStem: 245 206 255 185 94 55 222 150 255 185 344 269 301 74 427 76
Back
511.23 0 m 1
 291.016 0 l 1
 296.875 28.8086 l 1
 316.895 30.2734 331.055 32.7148 338.867 36.1328 c 0
 347.168 39.5508 351.562 42.4805 352.051 44.9219 c 0
 353.516 50.293 352.539 56.6406 349.609 64.4531 c 0
 346.68 72.2656 341.309 83.4961 333.984 98.1445 c 1
 296.875 181.152 l 1
 208.984 95.2148 l 2
 183.105 68.8477 169.434 52.2461 167.969 44.9219 c 0
 166.016 35.1562 181.152 29.7852 212.891 29.7852 c 1
 207.031 0 l 1
 29.7852 0 l 1
 36.1328 28.8086 l 1
 47.3633 30.2734 57.1289 31.7383 64.9414 33.2031 c 0
 73.2422 34.1797 79.1016 37.1094 83.9844 41.0156 c 2
 113.77 67.8711 l 1
 112.793 67.8711 l 1
 273.926 224.121 l 1
 227.051 324.219 l 1
 205.566 371.094 188.965 399.902 176.758 410.156 c 0
 173.828 413.574 167.48 416.016 159.18 417.969 c 0
 150.391 419.922 139.648 421.875 126.953 423.828 c 1
 132.812 453.125 l 1
 356.934 453.125 l 1
 351.074 422.852 l 1
 338.867 422.852 328.613 422.852 319.824 422.363 c 0
 311.523 422.363 306.152 421.875 305.176 420.898 c 0
 303.223 419.434 300.781 418.457 297.852 416.992 c 0
 295.41 415.527 293.945 414.062 293.945 412.109 c 0
 292.48 405.762 295.41 395.02 302.734 379.395 c 0
 309.57 363.77 319.824 343.262 333.008 317.871 c 1
 346.191 290.039 l 1
 455.078 395.996 l 2
 459.473 400.879 462.402 405.762 462.891 411.133 c 0
 464.844 418.945 450.684 422.852 419.922 422.852 c 1
 425.781 453.125 l 1
 605.957 453.125 l 1
 600.098 422.852 l 1
 587.402 422.852 575.195 420.898 563.477 416.504 c 0
 551.758 412.109 544.922 409.18 542.969 408.203 c 0
 539.551 406.738 533.203 401.855 523.438 393.066 c 0
 513.672 384.277 503.906 375 493.164 365.234 c 2
 372.07 248.047 l 1
 452.148 75.1953 l 1
 458.008 60.5469 466.797 49.3164 478.027 41.9922 c 0
 489.258 34.668 502.441 30.2734 517.09 28.8086 c 1
 511.23 0 l 1
EndSplineSet
Fore
438 427 m 0
 438 442.977 416.77 444 393 444 c 1
 397 462 l 1
 568 462 l 1
 564 444 l 1
 513 440 492 427 414 345 c 1
 344 269 l 1
 427 76 l 1
 450 27 458 18 481 17 c 1
 477 0 l 1
 245 0 l 1
 249 17 l 1
 258 18 265 18 268 18 c 0
 292 20 306 26 308 38 c 0
 308 39 309 41 309 43 c 0
 309 52 306 64 301 74 c 2
 255 185 l 1
 222 150 l 2
 157 82 139 60 136 45 c 0
 136 43 135 41 135 39 c 0
 135 26 149 21 186 17 c 1
 182 0 l 1
 11 0 l 1
 15 17 l 1
 49 21 67 30 94 55 c 2
 245 206 l 1
 152 405 l 2
 138 436 130 442 106 444 c 1
 110 462 l 1
 346 462 l 1
 342 444 l 1
 332 444 324 443 321 443 c 0
 293.002 441.88 283 433.621 283 414 c 0
 283 410 284 405 288 397 c 2
 332 294 l 1
 372.776 336.549 431.26 392.214 437 419 c 0
 438 422 438 424 438 427 c 0
EndSplineSet
KernsSLIF: 67 -43 2 0 79 -38 2 0 325 -38 2 0 81 -38 2 0 101 -18 2 0 45 -29 2 0 111 -21 2 0 117 -17 2 0 121 -61 2 0
EndChar
StartChar: Y
Encoding: 89 89 58
Width: 492
Flags: HW
HStem: 0 21G<126 363> 444 18<108 333>
DStem: 152 407 281 383 228 180 330 225 433 351 520 418 330 225 344 205
Back
578.125 424.805 m 1
 558.594 421.875 543.945 417.48 534.18 413.086 c 0
 526.855 409.18 518.066 401.855 507.324 392.09 c 0
 497.07 381.836 484.863 368.652 470.215 352.051 c 2
 344.238 207.031 l 1
 316.895 80.0781 l 2
 314.941 70.8008 313.477 62.5 312.988 55.1758 c 0
 312.5 47.8516 313.477 42.4805 315.918 39.0625 c 0
 319.336 35.1562 325.684 32.7148 334.961 31.7383 c 0
 344.238 30.2734 357.422 29.7852 374.023 29.7852 c 1
 368.164 0 l 1
 140.137 0 l 1
 145.996 29.7852 l 1
 178.223 29.7852 199.219 34.1797 209.961 41.9922 c 0
 214.844 45.4102 220.215 60.5469 226.074 87.8906 c 2
 250 201.172 l 1
 229.98 242.188 213.867 275.879 202.148 300.781 c 0
 189.941 326.172 180.176 346.191 172.852 360.84 c 0
 165.527 375.488 160.156 386.23 155.762 393.066 c 0
 151.855 399.902 148.438 404.785 145.02 409.18 c 0
 139.648 415.039 133.789 418.945 127.441 420.898 c 0
 121.094 422.852 113.281 423.828 104.004 423.828 c 1
 109.863 453.125 l 1
 316.895 453.125 l 1
 311.035 423.828 l 1
 280.273 423.828 264.16 419.922 263.184 412.109 c 0
 261.719 408.691 261.719 405.273 263.184 401.855 c 0
 264.16 398.438 266.113 394.531 268.066 389.16 c 2
 327.148 253.906 l 1
 444.824 395.02 l 2
 446.777 397.461 448.73 400.391 450.684 402.832 c 0
 452.148 405.762 453.125 408.203 454.102 411.133 c 0
 456.055 419.434 441.895 423.828 412.109 423.828 c 1
 417.969 453.125 l 1
 583.984 453.125 l 1
 578.125 424.805 l 1
EndSplineSet
Fore
575 462 m 1
 571 444 l 1
 548 441 533 434 520 418 c 1
 344 205 l 1
 317 80 l 2
 314 67 312 57 312 49 c 0
 312 26 326 21 367 17 c 1
 363 0 l 1
 126 0 l 1
 130 17 l 1
 187 23 196 30 207 80 c 2
 228 180 l 1
 152 407 l 1
 142 430 127 443 104 444 c 1
 108 462 l 1
 337 462 l 1
 333 444 l 1
 316 444 l 2
 285.764 444 273 436.188 273 416 c 0
 273 410 275 403 279 391 c 2
 279 391 281 385 281 383 c 1
 330 225 l 1
 433 351 l 2
 456 379 470 403 472 416 c 0
 473 419 473 422 473 424 c 0
 473 437 460 441 421 444 c 1
 425 462 l 1
 575 462 l 1
EndSplineSet
KernsSLIF: 65 -43 2 0 264 -42 2 0 306 -43 2 0 307 -43 2 0 309 -43 2 0 305 -43 2 0 310 -43 2 0 308 -43 2 0 67 -48 2 0 71 -44 2 0 79 -43 2 0 322 -43 2 0 323 -43 2 0 325 -43 2 0 321 -43 2 0 362 -46 2 0 324 -43 2 0 83 -17 2 0 84 4 2 0 97 -56 2 0 266 -59 2 0 58 -70 2 0 44 -54 2 0 101 -63 2 0 103 -58 2 0 286 -75 2 0 288 -85 2 0 45 -59 2 0 105 -9 2 0 111 -65 2 0 364 -64 2 0 112 -49 2 0 46 -55 2 0 59 -70 2 0 117 -51 2 0 118 -53 2 0
EndChar
StartChar: Z
Encoding: 90 90 59
Width: 455
Flags: HW
HStem: 0 24<159 415> 436 26<153 340>
DStem: 373 438 508 451 21 11 159 24
Back
464.844 132.812 m 1
 417.969 0 l 1
 26.8555 0 l 1
 30.7617 20.0195 l 1
 395.02 412.109 l 1
 265.137 412.109 l 2
 226.562 412.109 197.754 403.809 179.199 387.207 c 0
 170.41 379.883 159.18 358.887 145.02 324.219 c 1
 108.887 324.219 l 1
 150.879 453.125 l 1
 518.066 453.125 l 1
 514.16 433.105 l 1
 157.227 41.9922 l 1
 307.129 41.9922 l 2
 342.773 41.9922 370.117 50.293 389.16 66.8945 c 0
 393.555 71.7773 399.414 79.5898 406.738 90.332 c 0
 413.574 101.562 421.875 115.723 431.152 132.812 c 1
 464.844 132.812 l 1
EndSplineSet
Fore
468 165 m 1
 415 0 l 1
 19 0 l 1
 21 11 l 1
 373 438 l 1
 348 437 324 436 316 436 c 1
 309 436 l 2
 213 436 179 414 127 321 c 1
 108 321 l 1
 153 462 l 1
 510 462 l 1
 508 451 l 1
 159 24 l 1
 209 24 l 2
 275 24 333 34 360 51 c 0
 397 73 418 100 450 165 c 1
 468 165 l 1
EndSplineSet
KernsSLIF: 118 -30 2 0 121 -30 2 0
EndChar
StartChar: bracketleft
Encoding: 91 91 60
Width: 227
Flags: HW
HStem: -102 23<119 183> 440 23<144 299>
DStem: 144 463 201 393 24 -102 108 -43
Back
151.855 -83.9844 m 1
 4.88281 -83.9844 l 1
 125.977 485.84 l 1
 272.949 485.84 l 1
 266.113 452.148 l 1
 201.172 452.148 l 2
 189.453 452.148 182.129 444.824 178.223 430.176 c 1
 82.0312 -22.9492 l 2
 78.125 -41.0156 83.0078 -49.8047 97.168 -49.8047 c 2
 159.18 -49.8047 l 1
 151.855 -83.9844 l 1
EndSplineSet
Fore
188 -79 m 1
 183 -102 l 1
 24 -102 l 1
 144 463 l 1
 303 463 l 1
 299 440 l 1
 256 440 l 2
 218 440 209 432 201 393 c 2
 108 -43 l 2
 106 -50 106 -56 106 -61 c 0
 106 -75 113 -79 134 -79 c 2
 188 -79 l 1
EndSplineSet
EndChar
StartChar: backslash
Encoding: 92 92 61
Width: 189
Flags: HW
DStem: 83 472 146 472 141 -13 204 -13
Back
217.773 -117.188 m 1
 165.039 -117.188 l 1
 104.004 477.051 l 1
 155.762 477.051 l 1
 217.773 -117.188 l 1
EndSplineSet
Fore
141 -13 m 1
 83 472 l 1
 146 472 l 1
 204 -13 l 1
 141 -13 l 1
EndSplineSet
EndChar
StartChar: bracketright
Encoding: 93 93 62
Width: 227
Flags: HW
HStem: -102 23<4 160> 440 23<119 177>
DStem: 195 393 280 463 102 -43 160 -102
Back
129.883 -83.9844 m 1
 -17.0898 -83.9844 l 1
 -9.76562 -49.8047 l 1
 54.1992 -49.8047 l 2
 67.3828 -49.8047 75.1953 -42.9688 78.125 -28.8086 c 1
 173.828 424.805 l 2
 178.223 442.871 172.852 452.148 159.18 452.148 c 2
 97.168 452.148 l 1
 104.004 485.84 l 1
 250.977 485.84 l 1
 129.883 -83.9844 l 1
EndSplineSet
Fore
0 -102 m 1
 5 -79 l 1
 59 -79 l 2
 88 -79 95 -73 102 -43 c 2
 195 393 l 2
 197 403 198 410 198 417 c 0
 198 435 188 440 159 440 c 2
 116 440 l 1
 120 463 l 1
 280 463 l 1
 160 -102 l 1
 0 -102 l 1
EndSplineSet
EndChar
StartChar: asciicircum
Encoding: 94 94 63
Width: 396
Flags: HW
HStem: 442 20G<269 324>
DStem: 269 462 284 398 95 212 156 212 284 398 324 462 332 212 392 212
Back
358.887 193.848 m 1
 300.781 193.848 l 1
 248.047 384.766 l 1
 112.793 193.848 l 1
 55.1758 193.848 l 1
 234.863 449.219 l 1
 287.109 449.219 l 1
 358.887 193.848 l 1
EndSplineSet
Fore
156 212 m 1
 95 212 l 1
 269 462 l 1
 324 462 l 1
 392 212 l 1
 332 212 l 1
 284 398 l 1
 156 212 l 1
EndSplineSet
EndChar
StartChar: underscore
Encoding: 95 95 64
Width: 341
Flags: HW
HStem: -85 34<-12 323>
Back
338.867 -56.1523 m 1
 -11.2305 -56.1523 l 1
 -2.92969 -20.9961 l 1
 347.168 -20.9961 l 1
 338.867 -56.1523 l 1
EndSplineSet
Fore
323 -85 m 1
 -18 -85 l 1
 -11 -51 l 1
 330 -51 l 1
 323 -85 l 1
EndSplineSet
EndChar
StartChar: quotesglleft
Encoding: 96 -1 65
Width: 200
Flags: HW
Back
173.828 204.102 m 1
 136.23 204.102 l 1
 79.1016 245.117 l 1
 70.3125 249.023 66.8945 256.836 67.8711 268.066 c 0
 70.8008 281.25 79.1016 288.086 94.2383 288.086 c 0
 101.562 288.086 108.887 284.18 116.211 276.855 c 1
 173.828 204.102 l 1
EndSplineSet
Fore
129 411 m 0
 129 436.679 154.1 465 184 465 c 0
 199 465 212 456 218 438 c 0
 223 425 231 344 235 296 c 1
 208 282 l 1
 181 319 138 380 132 394 c 0
 130 400 129 406 129 411 c 0
EndSplineSet
EndChar
StartChar: a
Encoding: 97 97 66
Width: 341
Flags: HW
HStem: -10 21G<72 110.5 238 269.5> 301 22<205 228>
VStem: 79 92<224 238> 255 90<247 263>
DStem: 235 167 343 229 214 68 305 51
Back
241.211 187.988 m 1
 171.875 165.527 133.301 136.719 125.977 102.051 c 0
 122.559 87.4023 124.512 75.1953 130.859 64.9414 c 0
 132.812 61.5234 135.742 58.5938 139.16 56.6406 c 0
 142.09 54.1992 147.461 53.2227 153.809 53.2227 c 0
 178.711 53.2227 198.242 61.0352 212.891 77.1484 c 0
 214.844 79.1016 216.797 82.0312 218.262 86.4258 c 0
 220.215 90.8203 221.191 94.2383 222.168 97.168 c 2
 241.211 187.988 l 1
334.961 34.1797 m 1
 307.129 7.8125 280.273 -4.88281 254.883 -4.88281 c 0
 224.121 -4.88281 209.473 8.78906 210.938 36.1328 c 1
 168.457 8.78906 133.789 -4.88281 106.934 -4.88281 c 0
 82.5195 -4.88281 63.4766 2.44141 50.7812 17.5781 c 0
 38.5742 32.7148 34.668 51.7578 40.0391 76.1719 c 0
 47.8516 113.281 70.8008 143.555 108.887 166.016 c 0
 116.211 169.922 131.348 176.758 154.297 186.523 c 0
 177.734 196.289 208.984 208.496 249.023 224.121 c 1
 256.836 263.184 l 2
 263.672 296.387 252.441 312.988 223.145 312.988 c 0
 196.289 312.988 180.176 303.711 174.805 285.156 c 0
 174.316 283.203 173.828 278.809 173.828 272.949 c 0
 173.828 267.09 173.828 262.207 172.852 258.789 c 0
 172.363 255.859 170.898 251.465 167.969 246.582 c 0
 165.527 241.699 161.133 236.328 155.762 230.957 c 0
 151.367 227.051 145.996 224.121 139.648 222.168 c 0
 133.301 220.215 127.441 219.238 123.047 219.238 c 0
 111.816 219.238 103.027 222.168 97.168 229.004 c 0
 90.8203 235.84 89.3555 245.605 91.7969 258.789 c 0
 98.1445 286.133 118.164 309.082 151.855 327.148 c 0
 165.527 334.473 178.711 339.355 192.383 342.285 c 0
 206.055 345.703 220.703 347.168 235.84 347.168 c 0
 277.832 347.168 305.664 337.402 318.848 317.383 c 0
 332.52 297.852 334.473 266.602 325.195 224.121 c 2
 294.922 83.9844 l 1
 291.016 62.5 292.48 51.7578 298.828 51.7578 c 0
 302.246 51.7578 307.617 54.1992 314.941 58.1055 c 0
 322.266 62.0117 332.52 68.8477 345.215 78.125 c 1
 334.961 34.1797 l 1
EndSplineSet
Fore
28 47 m 0
 28 131.002 145.948 164.804 242 191 c 1
 252 241 l 2
 254 249 255 256 255 263 c 0
 255 289 239 301 207 301 c 0
 183 301 162 290 159 276 c 0
 159 273 l 0
 159 270 160 266 164 261 c 0
 168 253 171 246 171 238 c 0
 171 236 170 234 170 231 c 0
 165 208 143 192 115 192 c 0
 91 192 79 204 79 224 c 0
 79 228 79 233 80 237 c 0
 91 288 151 323 228 323 c 0
 302 323 345 294 345 247 c 0
 345 241 344 235 343 229 c 2
 305 51 l 2
 305 49 304 47 304 45 c 0
 304 38 308 34 316 34 c 0
 323.008 34 327.422 40.9479 332 44 c 1
 339 29 l 1
 307 1 284 -10 255 -10 c 0
 221 -10 209 3 209 38 c 1
 164 4 130 -10 91 -10 c 0
 53 -10 28 13 28 47 c 0
214 68 m 1
 235 167 l 1
 178 153 143 124 135 85 c 0
 134 80 133 75 133 70 c 0
 133 51 143 39 160 39 c 0
 176 39 192 47 214 68 c 1
EndSplineSet
KernsSLIF: 106 -26 2 0 146 -23 2 0 118 -26 2 0 119 -27 2 0 121 -30 2 0
EndChar
StartChar: b
Encoding: 98 98 67
Width: 379
Flags: HW
HStem: -10 22<190 205> 286 37<253 296> 442 20G<110 242>
VStem: 296 100<208 224>
DStem: 135 406 242 462 47 -9 205 285 135 406 196 246 47 -9 158 66
Back
324.219 157.227 m 0
 328.125 174.805 330.566 191.406 331.055 206.055 c 0
 331.543 220.703 330.566 233.887 327.148 246.094 c 0
 318.848 275.879 300.781 291.016 272.949 291.016 c 0
 257.812 291.016 243.164 286.621 229.98 277.832 c 0
 213.867 267.09 204.59 255.859 202.148 243.164 c 2
 163.086 61.0352 l 1
 162.109 56.1523 163.574 52.2461 166.992 48.8281 c 0
 170.41 45.8984 174.805 42.9688 180.176 40.5273 c 0
 185.547 38.0859 191.406 36.6211 198.242 35.6445 c 0
 204.59 34.668 210.449 34.1797 214.844 34.1797 c 0
 270.996 34.1797 307.129 75.1953 324.219 157.227 c 0
414.062 183.105 m 0
 409.18 161.621 401.367 140.625 390.137 120.605 c 0
 378.906 100.098 364.258 81.0547 347.168 62.9883 c 0
 305.176 17.5781 252.93 -4.88281 190.918 -4.88281 c 0
 178.223 -4.88281 166.016 -4.39453 154.297 -2.92969 c 0
 143.066 -1.46484 131.836 1.46484 122.07 6.83594 c 0
 107.422 14.1602 96.6797 20.9961 89.3555 26.3672 c 0
 82.5195 32.2266 79.5898 39.5508 81.0547 48.8281 c 1
 162.109 426.758 l 2
 165.527 442.383 166.504 450.684 165.039 452.148 c 0
 162.109 455.566 158.203 457.031 151.855 457.031 c 2
 121.094 454.102 l 1
 125.977 481.934 l 1
 138.184 485.352 154.785 490.234 176.758 496.582 c 0
 199.219 502.93 222.656 509.766 248.047 517.09 c 1
 258.789 513.184 l 1
 217.773 317.871 l 1
 231.445 328.613 246.582 337.402 264.16 343.262 c 0
 281.25 349.609 297.363 353.027 312.012 353.027 c 0
 357.422 353.027 388.184 334.473 404.785 297.852 c 0
 412.109 281.25 416.992 263.672 418.457 244.629 c 0
 420.41 225.586 418.457 205.078 414.062 183.105 c 0
EndSplineSet
Fore
396 210 m 0
 396 82.8453 300.021 -10 199 -10 c 0
 165 -10 143 1 117 29 c 1
 55 -9 l 1
 47 -9 l 1
 135 406 l 2
 136 412 137 418 137 422 c 0
 137 436 129 440 107 445 c 1
 110 462 l 1
 242 462 l 1
 205 285 l 1
 235 311 264 323 296 323 c 0
 359 323 396 278 396 210 c 0
196 246 m 1
 158 66 l 2
 157 60 156 55 156 50 c 0
 156 26 170 12 194 12 c 0
 238 12 267 57 287 151 c 0
 293 179 296 203 296 222 c 0
 296 264 282 286 253 286 c 0
 230 286 214 275 196 246 c 1
EndSplineSet
KernsSLIF: 118 -26 2 0 119 -27 2 0 121 -28 2 0
EndChar
StartChar: c
Encoding: 99 99 68
Width: 303
Flags: HW
HStem: -10 46<161 218> 302 21<233 247>
VStem: 44 102<111 131> 258 80<260 283>
Back
340.82 118.164 m 1
 286.133 36.1328 227.051 -4.88281 163.086 -4.88281 c 0
 141.602 -4.88281 123.047 -0.976562 106.445 7.32422 c 0
 90.332 15.625 77.1484 29.2969 67.8711 47.8516 c 0
 60.5469 63.4766 55.6641 80.5664 53.2227 99.6094 c 0
 50.293 118.652 51.7578 139.648 57.1289 163.086 c 0
 66.8945 212.891 90.8203 255.859 128.906 291.992 c 0
 168.945 328.613 213.867 347.168 264.16 347.168 c 0
 293.457 347.168 316.406 340.82 333.008 329.102 c 0
 345.215 321.777 353.027 312.5 357.422 300.781 c 0
 361.816 289.551 362.793 278.32 360.84 267.09 c 0
 358.398 255.859 352.539 246.094 342.773 237.793 c 0
 333.496 229.98 322.754 226.074 310.059 226.074 c 0
 299.316 226.074 291.016 229.98 285.156 237.305 c 0
 278.809 245.117 275.879 254.883 274.902 266.113 c 0
 273.438 282.227 271.484 293.457 268.555 299.805 c 0
 265.625 306.641 257.324 310.059 244.141 310.059 c 0
 218.75 310.059 195.312 296.875 173.828 270.996 c 0
 154.785 247.559 142.09 221.191 136.23 190.918 c 0
 127.93 154.785 130.371 125.488 143.066 102.051 c 0
 156.25 75.1953 177.734 62.0117 207.031 62.0117 c 0
 227.539 62.0117 247.559 68.3594 266.113 81.0547 c 0
 279.297 88.8672 297.363 106.445 319.824 132.812 c 1
 340.82 118.164 l 1
EndSplineSet
Fore
258 283 m 0
 258 296.221 247.168 302 235 302 c 0
 199 302 168 259 153 188 c 0
 149 167 146 148 146 131 c 0
 146 72 172 36 218 36 c 0
 246 36 266 46 297 74 c 1
 307 62 l 1
 257 12 214 -10 161 -10 c 0
 90 -10 44 39 44 111 c 0
 44 124 46 138 49 152 c 0
 70 251 154 323 247 323 c 0
 301 323 338 296 338 260 c 0
 338 256 338 252 337 248 c 0
 331 221 310 205 282 205 c 0
 261 205 251 215 251 236 c 0
 251 248.264 258 280.292 258 283 c 0
EndSplineSet
KernsSLIF: 104 -11 2 0 107 -12 2 0
EndChar
StartChar: d
Encoding: 100 100 69
Width: 379
Flags: HW
HStem: -10 39<139 177> 285 38<217 237> 442 20G<276 422>
VStem: 44 98<83 104>
DStem: 280 242 422 462 245 76 339 69 315 406 422 462 289 281 339 69
Back
288.086 250.977 m 1
 290.527 270.996 287.109 287.598 276.855 300.781 c 0
 272.461 306.152 266.602 310.059 259.277 312.5 c 0
 252.441 314.941 245.117 315.918 236.816 315.918 c 0
 221.68 315.918 208.008 312.012 195.801 304.199 c 0
 184.082 295.898 173.828 285.645 165.039 273.438 c 0
 156.25 261.23 148.926 247.559 143.555 232.91 c 0
 137.695 218.262 133.789 204.102 130.859 190.918 c 0
 127.441 174.805 125.488 158.691 125 141.602 c 0
 124.512 124.512 125.977 109.375 129.883 95.7031 c 0
 133.789 82.0312 140.625 70.3125 150.391 61.5234 c 0
 160.156 52.7344 173.828 47.8516 190.918 47.8516 c 0
 220.215 47.8516 241.211 60.5469 252.93 84.9609 c 1
 288.086 250.977 l 1
369.141 33.2031 m 1
 247.07 -5.85938 l 1
 234.863 0.976562 l 1
 240.234 23.9258 l 1
 213.379 4.88281 183.105 -4.88281 149.902 -4.88281 c 0
 120.605 -4.88281 94.7266 3.90625 71.7773 20.9961 c 0
 56.6406 33.2031 46.875 51.2695 42.4805 76.6602 c 0
 38.0859 101.562 39.5508 130.859 46.875 165.039 c 0
 57.6172 215.82 80.0781 258.301 113.77 292.969 c 0
 153.32 333.008 196.777 353.027 244.141 353.027 c 0
 266.602 353.027 287.109 346.191 306.152 333.008 c 1
 326.172 426.758 l 1
 329.102 440.43 330.566 448.242 329.102 450.195 c 0
 326.172 454.102 321.777 456.055 314.941 456.055 c 2
 284.18 453.125 l 1
 290.039 481.934 l 1
 308.594 487.305 324.219 491.699 336.914 495.117 c 0
 349.609 498.535 360.352 501.465 369.141 503.906 c 0
 377.441 506.836 384.766 508.789 391.113 511.23 c 0
 396.973 513.184 402.832 515.137 409.18 517.09 c 1
 422.852 513.184 l 1
 333.984 91.7969 l 1
 330.566 78.6133 330.078 69.8242 332.52 65.4297 c 0
 334.961 61.0352 341.309 59.082 352.051 59.082 c 2
 375 61.0352 l 1
 369.141 33.2031 l 1
EndSplineSet
Fore
44 104 m 0
 44 221.835 131.352 323 217 323 c 0
 249 323 266 312 289 281 c 1
 315 406 l 2
 317 413 318 419 318 424 c 0
 318 439 307 443 273 445 c 1
 276 462 l 1
 422 462 l 1
 339 69 l 2
 338 63 337 58 337 53 c 0
 337 37 347 31 371 29 c 1
 368 14 l 1
 320.083 7.4658 269.236 1.6508 229 -9 c 1
 239 36 l 1
 199 1 175 -10 139 -10 c 0
 80 -10 44 36 44 104 c 0
245 76 m 2
 280 242 l 1
 277 268 260 285 237 285 c 0
 198 285 170 244 151 156 c 0
 145 127 142 102 142 83 c 0
 142 47 153 29 177 29 c 0
 192 29 209 36 225 52 c 0
 236 61 244 72 245 76 c 2
EndSplineSet
EndChar
StartChar: e
Encoding: 101 101 70
Width: 303
Flags: HW
HStem: -10 50<156 206> 167 26<153 322> 302 21<220 231>
VStem: 45 101<101 119> 255 72<221 261>
Back
226.074 305.176 m 0
 191.895 305.176 165.039 283.203 145.02 240.234 c 1
 269.043 240.234 l 1
 271.484 283.203 257.324 305.176 226.074 305.176 c 0
352.051 125.977 m 1
 345.215 112.793 336.914 99.1211 327.148 85.9375 c 0
 316.895 72.7539 305.176 60.0586 291.992 47.8516 c 0
 251.953 12.6953 208.984 -4.88281 163.086 -4.88281 c 0
 123.047 -4.88281 93.75 6.83594 75.1953 30.2734 c 0
 56.1523 54.1992 48.3398 85.9375 50.7812 125.977 c 0
 51.7578 130.859 52.7344 136.23 53.7109 142.09 c 0
 54.6875 147.949 56.1523 154.785 58.1055 163.086 c 0
 67.8711 212.402 88.8672 253.906 121.094 288.086 c 0
 158.203 327.148 201.172 347.168 250 347.168 c 0
 292.48 347.168 322.754 333.984 339.844 307.617 c 0
 357.422 281.25 360.84 245.117 351.074 199.219 c 1
 131.836 199.219 l 1
 115.234 106.445 140.137 60.0586 207.031 60.0586 c 0
 226.562 60.0586 246.094 66.8945 266.113 80.0781 c 0
 286.133 93.2617 307.617 112.793 331.055 139.16 c 1
 352.051 125.977 l 1
EndSplineSet
Fore
146 117 m 0
 146 70.838 162.798 40 206 40 c 0
 235 40 258 52 292 85 c 1
 307 76 l 1
 249 12 211 -10 156 -10 c 0
 86 -10 45 35 45 108 c 0
 45 229.965 131.212 323 229 323 c 0
 290.105 323 327 285.965 327 221 c 0
 327 206 325 188 322 167 c 1
 150 167 l 1
 147 146 146 130 146 117 c 0
153 193 m 1
 244 193 l 1
 248.338 214.69 255 251.794 255 261 c 0
 255 264 254 267 254 270 c 0
 254 291 243 302 224 302 c 0
 190 302 172 274 153 193 c 1
EndSplineSet
KernsSLIF: 146 -12 2 0 116 -6 2 0 118 -19 2 0 119 -20 2 0 120 -12 2 0 121 -21 2 0
EndChar
StartChar: f
Encoding: 102 102 71
Width: 227
Flags: HW
HStem: 0 21G<10 199> 285 30<76 109 210 264> 451 21<264 281>
VStem: 290 63<414 441>
DStem: 109 285 204 285 60 57 158 70
Back
387.207 462.891 m 0
 384.766 451.66 379.883 442.383 371.582 435.059 c 0
 363.281 427.734 352.051 423.828 337.891 423.828 c 0
 332.031 423.828 326.172 425.781 320.312 430.176 c 0
 314.941 434.082 310.547 440.43 307.129 449.219 c 0
 300.781 468.262 293.457 478.027 285.156 478.027 c 0
 263.184 478.027 247.559 458.984 238.77 420.898 c 1
 224.121 346.191 l 1
 310.059 346.191 l 1
 300.781 306.152 l 1
 215.82 306.152 l 1
 168.945 83.9844 l 1
 163.574 61.5234 162.598 46.875 166.016 41.0156 c 0
 170.898 32.2266 189.453 27.832 222.168 27.832 c 1
 215.82 0 l 1
 14.1602 0 l 1
 20.0195 27.832 l 1
 40.5273 29.2969 54.1992 30.7617 61.0352 32.7148 c 0
 67.8711 34.1797 71.7773 35.6445 73.2422 37.1094 c 0
 79.5898 44.9219 85.4492 60.5469 90.8203 83.9844 c 1
 138.184 306.152 l 1
 80.0781 306.152 l 1
 88.8672 346.191 l 1
 146.973 346.191 l 1
 172.852 459.961 229.98 517.09 317.871 517.09 c 0
 327.148 517.09 335.449 516.113 342.773 515.137 c 0
 350.098 513.672 357.91 510.742 365.234 505.859 c 0
 373.535 500.488 379.883 494.141 383.789 486.328 c 0
 388.184 479.004 389.16 471.191 387.207 462.891 c 0
EndSplineSet
Fore
266 391 m 0
 266 412.106 285.089 423.266 290 438 c 0
 290 441 l 0
 290 447 284 451 274 451 c 0
 250 451 236 436 228 398 c 2
 210 315 l 1
 270 315 l 1
 264 285 l 1
 204 285 l 1
 158 70 l 2
 156 59 155 51 155 44 c 0
 155 23 167 18 202 16 c 1
 199 0 l 1
 10 0 l 1
 13 16 l 1
 45 20 54 28 60 57 c 2
 109 285 l 1
 71 285 l 1
 77 315 l 1
 115 315 l 1
 127 373 138 401 158 425 c 0
 184 455 222 472 268 472 c 0
 320 472 353 449 353 414 c 0
 353 411 353 407 352 403 c 0
 346 378 326 361 300 361 c 0
 280 361 266 374 266 391 c 0
EndSplineSet
KernsSLIF: 97 -11 2 0 332 -11 2 0 335 9 2 0 266 -14 2 0 336 -10 2 0 101 -19 2 0 339 -19 2 0 102 8 2 0 105 15 2 0 108 22 2 0 111 -21 2 0 348 -21 2 0 351 7 2 0 267 -19 2 0 364 -21 2 0 146 12 2 0 115 -5 2 0 116 -2 2 0
EndChar
StartChar: g
Encoding: 103 103 72
Width: 341
Flags: HW
HStem: -141 22<121 158> -36 82<156 230> 106 18<175 190> 272 36<305 387> 302 21<224 235>
VStem: 1 61<-88 -78> 68 90<163 194> 261 86<227 261>
Back
268.066 211.914 m 0
 271.973 231.934 272.461 251.953 270.02 271.973 c 0
 266.113 300.781 252.93 314.941 230.957 314.941 c 0
 203.613 314.941 186.035 296.875 178.223 261.23 c 0
 163.574 188.965 175.781 152.832 215.82 152.832 c 0
 242.676 152.832 259.766 172.852 268.066 211.914 c 0
291.016 -19.043 m 0
 292.48 -13.6719 291.016 -8.78906 287.109 -4.88281 c 0
 283.203 -0.976562 277.344 1.95312 270.02 3.90625 c 0
 260.742 7.32422 250 9.27734 237.793 9.76562 c 0
 226.074 10.7422 214.355 11.2305 203.125 11.2305 c 2
 141.113 11.2305 l 2
 131.836 11.2305 123.535 12.207 116.211 14.1602 c 1
 92.7734 -10.7422 80.0781 -27.832 78.125 -38.0859 c 0
 71.7773 -64.4531 100.098 -78.125 162.109 -78.125 c 0
 174.805 -78.125 187.5 -76.6602 200.195 -74.2188 c 0
 212.891 -71.2891 225.098 -67.8711 237.793 -63.9648 c 0
 269.531 -54.1992 287.109 -39.0625 291.016 -19.043 c 0
398.926 285.156 m 1
 346.191 285.156 l 1
 348.633 267.09 348.145 248.535 344.238 229.98 c 0
 340.82 213.379 334.473 198.242 326.172 184.57 c 0
 317.383 170.898 306.641 159.18 293.945 149.414 c 0
 281.25 139.648 267.09 132.324 251.953 126.953 c 0
 236.816 121.582 220.215 119.141 203.125 119.141 c 0
 196.289 119.141 189.453 119.141 182.617 119.629 c 0
 175.293 119.629 169.922 120.605 166.016 122.07 c 2
 164.062 122.07 l 2
 161.133 122.07 158.691 120.605 155.273 118.164 c 0
 152.344 115.234 148.926 112.305 145.02 108.887 c 0
 132.812 98.1445 126.953 91.3086 126.953 87.8906 c 0
 125.488 82.5195 140.137 79.1016 170.898 77.1484 c 2
 255.859 71.7773 l 2
 282.227 70.8008 302.246 62.9883 316.406 48.3398 c 0
 331.055 34.1797 335.449 15.1367 330.078 -8.78906 c 0
 326.172 -29.7852 315.918 -47.8516 299.316 -63.4766 c 0
 283.203 -79.1016 264.648 -92.2852 243.652 -103.027 c 0
 222.656 -113.77 200.684 -121.582 178.711 -126.953 c 0
 156.25 -132.324 136.23 -134.766 119.141 -134.766 c 0
 106.934 -134.766 93.75 -133.789 79.5898 -131.348 c 0
 64.9414 -129.395 52.2461 -125 40.5273 -119.141 c 0
 28.8086 -112.793 19.5312 -104.98 13.1836 -95.7031 c 0
 6.34766 -85.9375 4.39453 -73.7305 6.83594 -59.082 c 0
 12.207 -35.1562 38.0859 -7.8125 83.9844 22.9492 c 1
 76.1719 29.7852 69.8242 35.6445 65.918 41.5039 c 0
 62.0117 47.3633 60.5469 53.7109 62.0117 61.0352 c 0
 65.918 78.125 89.3555 103.027 131.836 134.766 c 1
 99.1211 154.785 86.9141 186.035 95.2148 228.027 c 0
 99.1211 246.094 105.957 262.695 115.723 277.832 c 0
 125 293.457 136.719 306.641 150.391 317.383 c 0
 164.062 328.613 179.199 336.914 195.801 342.773 c 0
 212.891 349.121 229.98 352.051 248.047 352.051 c 0
 265.137 352.051 287.109 346.68 313.965 335.938 c 0
 325.195 332.031 336.426 330.078 347.168 330.078 c 2
 408.203 330.078 l 1
 398.926 285.156 l 1
EndSplineSet
Fore
1 -86 m 0
 1 -51.6368 36.7299 -32.7641 79 -27 c 1
 46 -14 33 -3 33 16 c 0
 33 20 34 24 35 29 c 0
 43 65 75 91 133 109 c 1
 91.6226 128.975 68 149.74 68 194 c 0
 68 200 69 207 70 213 c 0
 84 278 152 323 233 323 c 0xef
 260 323 278 319 305 308 c 1
 394 308 l 1
 387 272 l 1xf7
 332 272 l 1xf7
 343 259 347 244 347 227 c 0
 347 153.506 282.6 105 204 105 c 2
 175 106 l 2
 147 106 124 91 120 70 c 0
 120 68 119 66 119 64 c 0
 119 50 135 46 183 46 c 2
 228 46 l 2
 289 46 324 22 324 -20 c 0
 324 -26 323 -32 322 -38 c 0
 308 -105 240 -141 126 -141 c 0
 46 -141 1 -120 1 -86 c 0
146 -119 m 0
 216.565 -119 262 -99.6089 262 -62 c 0
 262 -45 246 -36 213 -36 c 2
 95 -36 l 1
 71.2555 -52.1894 62 -63.1971 62 -80 c 0
 62 -106 91 -119 146 -119 c 0
228 302 m 0xef
 196 302 178 276 164 212 c 0
 160 192 158 176 158 163 c 0
 158 136 168 124 190 124 c 0
 222 124 241 149 254 212 c 0
 258 232 261 248 261 261 c 0
 261 290 250 302 228 302 c 0xef
EndSplineSet
KernsSLIF: 97 -10 2 0 335 -10 2 0 266 -12 2 0 336 -10 2 0 101 -13 2 0 339 -13 2 0 348 -13 2 0 351 -13 2 0
EndChar
StartChar: h
Encoding: 104 104 73
Width: 379
Flags: HW
HStem: 0 21G<11 175 204 365> 277 46<260 308> 442 20G<109 240>
VStem: 286 96<238 256>
DStem: 133 406 240 462 59 57 199 270 133 406 193 238 59 57 154 55 283 221 379 227 248 55 343 57
Back
383.789 0 m 1
 214.844 0 l 1
 221.191 25.8789 l 1
 232.422 27.3438 241.699 28.8086 248.535 30.7617 c 0
 255.371 33.2031 260.742 35.1562 264.16 38.0859 c 0
 267.09 40.5273 270.508 45.8984 272.949 54.1992 c 0
 275.879 62.0117 278.32 71.7773 280.762 83.0078 c 1
 311.035 228.027 l 1
 320.801 273.926 311.035 296.875 280.762 296.875 c 0
 260.254 296.875 234.375 283.203 203.125 255.859 c 1
 166.992 83.0078 l 1
 164.551 71.7773 162.598 62.0117 161.621 54.1992 c 0
 160.645 45.8984 161.621 40.5273 165.039 37.1094 c 0
 166.504 35.1562 178.711 30.7617 202.148 24.9023 c 1
 196.777 0 l 1
 23.9258 0 l 1
 29.7852 25.8789 l 1
 41.9922 27.3438 51.7578 29.7852 59.082 33.2031 c 0
 66.4062 36.1328 71.2891 39.5508 74.2188 42.9688 c 0
 78.125 46.875 82.5195 60.5469 87.8906 83.0078 c 1
 165.039 449.219 l 1
 160.156 452.148 155.762 454.102 150.879 454.102 c 2
 121.094 452.148 l 1
 126.953 480.957 l 1
 247.07 517.09 l 1
 256.836 508.789 l 1
 214.844 311.035 l 1
 248.535 338.867 283.203 353.027 318.848 353.027 c 0
 384.277 353.027 408.691 311.523 392.09 229.004 c 1
 360.84 83.0078 l 2
 356.445 61.5234 354.492 48.3398 355.957 42.9688 c 0
 358.887 37.1094 369.629 30.2734 389.16 22.9492 c 1
 383.789 0 l 1
EndSplineSet
Fore
240 462 m 1
 199 270 l 1
 244 309 272 323 308 323 c 0
 355 323 382 296 382 254 c 0
 382 245 381 236 379 227 c 2
 343 57 l 2
 342 51 341 45 341 41 c 0
 341 25 349 18 368 16 c 1
 365 0 l 1
 204 0 l 1
 207 16 l 1
 231 19 242 30 248 55 c 2
 283 221 l 2
 285 231 286 240 286 247 c 0
 286 267 278 277 260 277 c 0
 244 277 226 269 208 253 c 1
 200 247 193 240 193 238 c 2
 154 55 l 2
 153 49 152 44 152 40 c 0
 152 26 160 19 178 16 c 1
 175 0 l 1
 11 0 l 1
 14 16 l 1
 47 23 53 29 59 57 c 2
 133 406 l 2
 135 413 135 419 135 423 c 0
 135 437 128 441 106 445 c 1
 109 462 l 1
 240 462 l 1
EndSplineSet
KernsSLIF: 146 -20 2 0 121 -23 2 0
EndChar
StartChar: i
Encoding: 105 105 74
Width: 189
Flags: HW
HStem: 0 21G<11 174> 295 20G<78 209> 366 106<172 194>
DStem: 102 258 209 315 59 57 154 55
Back
192.871 0 m 1
 199.219 25.8789 l 1
 172.852 29.7852 159.18 34.1797 157.227 38.0859 c 0
 155.762 41.5039 155.273 47.3633 155.273 55.6641 c 0
 155.762 63.9648 157.227 72.7539 159.18 82.0312 c 2
 216.797 351.074 l 1
 206.055 354.98 l 1
 82.0312 309.082 l 1
 76.1719 284.18 l 1
 113.77 289.062 l 1
 123.535 288.574 125.488 276.367 120.117 252.93 c 1
 83.0078 82.0312 l 1
 79.1016 60.5469 73.2422 46.3867 64.9414 38.5742 c 0
 57.1289 30.7617 41.5039 26.8555 19.043 26.8555 c 1
 13.1836 0 l 1
 192.871 0 l 1
155.762 472.168 m 0
 153.32 458.496 155.273 447.266 161.621 438.477 c 0
 167.969 429.688 177.734 424.805 190.918 424.805 c 0
 203.613 424.805 215.332 429.688 225.586 438.477 c 0
 235.84 447.266 242.188 458.496 245.117 472.168 c 0
 248.535 485.352 246.582 496.094 240.234 504.883 c 0
 233.398 513.672 223.633 518.066 210.938 518.066 c 0
 197.754 518.066 186.035 513.672 175.781 504.883 c 0
 166.016 496.094 159.18 485.352 155.762 472.168 c 0
EndSplineSet
Fore
209 315 m 1
 154 55 l 2
 153 49 152 44 152 39 c 0
 152 25 159 19 177 16 c 1
 174 0 l 1
 11 0 l 1
 14 16 l 1
 47 24 53 29 59 57 c 2
 102 258 l 2
 103 265 104 270 104 275 c 0
 104 289 96 293 74 298 c 1
 78 315 l 1
 209 315 l 1
194 472 m 0
 220 472 237 454 237 429 c 0
 237 426 237 422 236 418 c 0
 229 388 202 366 172 366 c 0
 145 366 128 382 128 406 c 0
 128 410 129 415 130 419 c 0
 136 448 165 472 194 472 c 0
EndSplineSet
KernsSLIF: 84 -12 2 0 106 -24 2 0
EndChar
StartChar: j
Encoding: 106 106 75
Width: 227
Flags: HW
HStem: -139 22<15 33> 295 20G<107 245> 366 106<204 226>
VStem: -55 60<-107 -83> 161 109<406 429>
DStem: 138 258 245 315 69 -66 178 1
Back
275.879 354.004 m 1
 266.113 357.91 l 1
 139.16 312.012 l 1
 133.789 286.133 l 1
 172.852 291.016 l 1
 181.152 290.527 182.617 278.32 178.223 254.883 c 1
 119.141 -21.9727 l 1
 110.84 -63.4766 104.98 -87.4023 101.074 -94.2383 c 0
 97.6562 -100.586 93.2617 -105.957 88.3789 -110.352 c 0
 83.4961 -114.746 79.1016 -117.188 75.1953 -117.188 c 0
 73.2422 -117.188 69.8242 -115.234 65.4297 -111.328 c 0
 61.0352 -107.91 57.6172 -102.539 55.1758 -95.2148 c 0
 51.7578 -85.4492 46.875 -79.5898 41.0156 -76.6602 c 0
 35.1562 -73.7305 28.3203 -71.7773 20.9961 -71.7773 c 0
 19.5312 -71.7773 16.1133 -72.7539 9.76562 -74.707 c 0
 3.90625 -76.1719 -0.488281 -78.125 -3.90625 -81.0547 c 0
 -7.32422 -84.4727 -10.7422 -88.3789 -14.1602 -92.7734 c 0
 -17.0898 -97.6562 -19.5312 -102.539 -20.9961 -107.91 c 0
 -23.4375 -121.094 -20.0195 -133.301 -10.7422 -143.555 c 0
 -0.976562 -153.809 15.625 -159.18 39.0625 -159.18 c 0
 80.5664 -159.18 114.746 -145.508 142.578 -119.141 c 0
 170.41 -92.2852 189.453 -51.7578 201.172 1.95312 c 2
 275.879 354.004 l 1
214.844 475.098 m 0
 211.426 461.426 213.379 450.684 220.703 441.895 c 0
 227.539 433.105 237.305 429.199 250 429.199 c 0
 262.695 429.199 273.926 433.105 284.668 441.895 c 0
 294.922 450.684 301.758 461.426 305.176 475.098 c 0
 308.105 488.281 306.641 499.512 299.316 508.301 c 0
 292.48 517.578 282.715 521.973 270.02 521.973 c 0
 257.324 521.973 245.605 517.578 235.352 508.301 c 0
 225.098 499.512 218.262 488.281 214.844 475.098 c 0
EndSplineSet
Fore
245 315 m 1
 178 1 l 1
 160.908 -84.4578 111.702 -139 27 -139 c 0
 -23 -139 -55 -117 -55 -83 c 0
 -55 -79 -55 -74 -54 -70 c 0
 -49 -46 -28 -29 -3 -29 c 0
 17 -29 31 -42 31 -59 c 0
 31 -61 30 -64 30 -66 c 0
 29 -72 24 -80 15 -91 c 0
 9 -98 6 -102 5 -106 c 0
 5 -107 l 0
 5 -113 13 -117 25 -117 c 0
 47 -117 61 -102 69 -66 c 2
 138 258 l 2
 139 264 140 269 140 274 c 0
 140 290 130 296 103 298 c 1
 107 315 l 1
 245 315 l 1
226 472 m 0
 252 472 270 454 270 429 c 0
 270 425 270 422 269 418 c 0
 263 389 234 366 204 366 c 0
 178 366 161 382 161 406 c 0
 161 410 162 414 163 419 c 0
 169 448 197 472 226 472 c 0
EndSplineSet
EndChar
StartChar: k
Encoding: 107 107 76
Width: 379
Flags: HW
HStem: 0 16<369 374> 295 20G<271 417> 442 20G<113 241>
DStem: 134 406 241 462 60 57 178 167 190 152 266 210 236 60 360 27
Back
398.926 0 m 1
 225.098 0 l 1
 230.957 28.8086 l 1
 249.023 28.8086 l 2
 253.906 28.8086 256.348 29.7852 256.836 32.2266 c 0
 256.836 32.7148 256.836 33.2031 256.348 34.1797 c 0
 256.348 34.668 255.859 35.6445 255.859 37.1094 c 1
 189.941 161.133 l 1
 167.969 57.1289 l 1
 165.527 41.0156 173.828 32.2266 192.871 29.7852 c 2
 215.82 27.832 l 1
 209.961 0 l 1
 23.9258 0 l 1
 29.7852 27.832 l 1
 56.6406 31.25 70.8008 33.6914 71.7773 35.1562 c 0
 76.6602 38.5742 80.5664 42.4805 83.4961 47.3633 c 0
 86.4258 52.7344 88.8672 59.5703 90.8203 68.8477 c 2
 165.039 419.922 l 1
 166.992 428.223 167.969 434.082 168.457 438.477 c 0
 168.945 442.871 168.457 445.801 167.969 446.777 c 0
 167.48 449.219 166.016 450.684 164.551 452.637 c 0
 162.598 454.102 159.18 455.078 153.809 455.078 c 2
 120.117 452.148 l 1
 125.977 479.004 l 1
 250.977 515.137 l 1
 265.137 511.23 l 1
 203.125 221.191 l 1
 300.781 294.922 l 2
 305.664 298.828 309.57 302.246 312.012 304.688 c 0
 314.453 306.641 316.406 309.082 316.895 311.035 c 0
 317.871 314.941 306.152 316.895 282.227 316.895 c 1
 289.062 346.191 l 1
 454.102 346.191 l 1
 446.777 315.918 l 1
 432.129 315.918 420.41 314.941 411.133 312.988 c 0
 401.855 311.035 393.555 308.105 386.23 305.176 c 0
 380.859 302.246 372.559 297.363 360.84 290.527 c 0
 349.609 283.691 337.402 275.391 324.219 266.113 c 2
 251.953 212.891 l 1
 330.078 78.125 l 2
 338.867 62.5 349.121 50.7812 360.84 42.4805 c 0
 373.047 34.1797 387.695 29.7852 404.785 28.8086 c 1
 398.926 0 l 1
EndSplineSet
Fore
304 283 m 0
 304 295.414 284.137 296.695 268 299 c 1
 271 315 l 1
 417 315 l 1
 414 299 l 1
 369 294 349 281 266 210 c 1
 360 27 l 2
 364 18 366 16 374 16 c 1
 371 0 l 1
 211 0 l 1
 214 16 l 1
 234 17 244 21 246 29 c 2
 246 31 l 2
 246 37 243 45 236 60 c 2
 190 152 l 1
 172 135 l 1
 155 57 l 2
 153 48 152 41 152 35 c 0
 152 23 159 20 181 16 c 1
 178 0 l 1
 15 0 l 1
 18 16 l 1
 42 18 55 31 60 57 c 2
 134 406 l 2
 135 411 136 416 136 420 c 0
 136 436 127 443 110 445 c 1
 113 462 l 1
 241 462 l 1
 178 167 l 1
 284 255 l 2
 294 262 302 274 304 281 c 0
 304 282 304 282 304 283 c 0
EndSplineSet
KernsSLIF: 97 -2 2 0 332 -2 2 0 335 -2 2 0 266 -4 2 0 336 -2 2 0 101 -22 2 0 339 -22 2 0 103 -2 2 0 45 -32 2 0 111 -25 2 0 348 -25 2 0 351 -25 2 0 115 3 2 0 117 -3 2 0 355 -3 2 0
EndChar
StartChar: l
Encoding: 108 108 77
Width: 189
Flags: HW
HStem: 0 21G<11 174> 442 20G<109 239>
DStem: 132 406 239 462 58 57 153 57
Back
194.824 0 m 1
 17.0898 0 l 1
 22.9492 25.8789 l 1
 42.9688 28.8086 57.1289 33.2031 65.918 39.5508 c 0
 74.707 45.8984 80.5664 56.6406 83.9844 71.7773 c 2
 158.203 419.922 l 1
 162.109 436.523 163.574 446.289 162.109 449.219 c 0
 160.645 453.613 156.25 456.055 148.926 456.055 c 2
 110.84 453.125 l 1
 117.188 481.934 l 1
 123.047 483.398 132.812 485.84 145.996 489.258 c 0
 159.18 493.164 173.34 497.07 187.5 501.465 c 0
 201.66 505.859 215.332 509.766 228.027 513.672 c 0
 240.723 517.09 249.512 519.531 254.883 520.996 c 1
 159.18 70.8008 l 1
 152.832 41.5039 166.992 26.8555 201.172 26.8555 c 1
 194.824 0 l 1
EndSplineSet
Fore
239 462 m 1
 153 57 l 2
 152 51 151 47 151 42 c 0
 151 25 160 17 177 16 c 1
 174 0 l 1
 11 0 l 1
 14 16 l 1
 38 18 53 32 58 57 c 2
 132 406 l 2
 133 411 134 416 134 420 c 0
 134 435 124 443 106 445 c 1
 109 462 l 1
 239 462 l 1
EndSplineSet
KernsSLIF: 118 -15 2 0 121 -12 2 0
EndChar
StartChar: m
Encoding: 109 109 78
Width: 568
Flags: HW
HStem: 0 21G<11 175 205 365 393 556> 277 46<260 311>
VStem: 288 95<238 247> 477 96<238 259>
DStem: 103 258 194 238 60 57 155 55 285 221 383 238 250 55 344 55 474 221 570 227 439 55 534 55
Back
601.074 0 m 1
 421.875 0 l 1
 428.223 26.8555 l 1
 459.473 26.8555 478.516 42.9688 485.84 75.1953 c 1
 517.09 222.168 l 1
 522.461 245.117 523.926 262.207 521.973 272.949 c 0
 518.066 287.109 506.836 293.945 488.77 293.945 c 0
 460.449 293.945 434.082 281.25 410.156 255.859 c 1
 372.07 75.1953 l 2
 368.652 59.5703 369.629 47.8516 375 39.5508 c 0
 380.371 31.25 393.555 26.8555 414.062 26.8555 c 1
 408.203 0 l 1
 225.098 0 l 1
 230.957 26.8555 l 1
 249.023 26.8555 262.695 31.25 271.973 39.5508 c 0
 281.25 47.8516 287.598 59.5703 291.016 75.1953 c 2
 323.242 226.074 l 1
 333.008 271.484 324.219 293.945 295.898 293.945 c 0
 275.879 293.945 256.836 287.598 237.793 274.902 c 0
 231.445 270.508 226.074 266.602 221.68 264.16 c 0
 217.285 261.23 214.844 259.277 214.844 257.812 c 1
 175.781 75.1953 l 2
 172.852 59.5703 173.828 47.8516 179.688 39.5508 c 0
 185.059 31.25 197.266 26.8555 215.82 26.8555 c 1
 209.961 0 l 1
 27.832 0 l 1
 34.1797 26.8555 l 1
 67.3828 26.8555 87.8906 42.9688 95.2148 75.1953 c 1
 134.766 263.184 l 2
 136.23 268.555 137.207 272.461 137.207 275.879 c 0
 137.207 279.785 135.742 283.691 132.812 287.109 c 0
 132.324 287.598 130.371 288.086 126.953 288.086 c 0
 123.535 288.086 118.652 287.598 112.305 287.109 c 0
 105.957 286.133 98.6328 285.156 89.8438 284.18 c 1
 97.168 312.988 l 1
 115.234 318.359 129.883 322.754 142.09 326.172 c 0
 153.809 329.102 164.551 332.52 172.852 334.961 c 0
 181.641 337.891 188.965 339.844 194.824 341.309 c 0
 201.172 343.262 207.031 345.215 212.891 347.168 c 1
 229.98 347.168 l 1
 220.215 299.805 l 1
 244.141 313.477 261.719 322.754 273.438 328.613 c 0
 285.156 333.984 292.48 337.891 295.898 338.867 c 0
 304.199 342.285 311.035 344.727 316.895 345.703 c 0
 323.242 346.68 328.613 347.168 333.984 347.168 c 0
 371.094 347.168 395.02 330.078 404.785 295.898 c 1
 446.777 330.078 488.77 347.168 529.785 347.168 c 0
 593.262 347.168 615.234 301.27 596.191 209.961 c 2
 566.895 75.1953 l 2
 563.477 59.5703 564.941 47.8516 570.801 39.5508 c 0
 577.148 31.25 588.867 26.8555 606.934 26.8555 c 1
 601.074 0 l 1
EndSplineSet
Fore
208 315 m 1
 197 264 l 1
 232 304 268 323 311 323 c 0
 354 323 374 307 385 264 c 1
 430 307 460 323 498 323 c 0
 545 323 573 296 573 253 c 0
 573 245 572 236 570 227 c 2
 534 55 l 2
 533 48 532 42 532 37 c 0
 532 22 539 18 559 16 c 1
 556 0 l 1
 393 0 l 1
 396 16 l 1
 423 18 433 27 439 55 c 2
 474 221 l 2
 476 231 477 240 477 247 c 0
 477 268 469 277 450 277 c 0
 438 277 425 272 407 261 c 0
 397 254 383 241 383 238 c 2
 344 55 l 2
 343 49 342 44 342 40 c 0
 342 25 350 18 368 16 c 1
 365 0 l 1
 205 0 l 1
 208 16 l 1
 234 18 244 27 250 55 c 2
 285 221 l 2
 287 231 288 240 288 247 c 0
 288 268 279 277 260 277 c 0
 248 277 236 272 218 261 c 0
 208 255 194 242 194 238 c 2
 155 55 l 2
 154 49 153 44 153 39 c 0
 153 25 160 19 178 16 c 1
 175 0 l 1
 11 0 l 1
 14 16 l 1
 46 22 54 29 60 57 c 2
 103 258 l 2
 104 264 105 270 105 274 c 0
 105 289 96 295 74 298 c 1
 78 315 l 1
 208 315 l 1
EndSplineSet
KernsSLIF: 112 -10 2 0 118 -21 2 0 119 -22 2 0 121 -22 2 0
EndChar
StartChar: n
Encoding: 110 110 79
Width: 379
Flags: HW
HStem: 0 21G<14 179 208 368> 277 46<263 311>
VStem: 290 96<238 257>
DStem: 106 258 196 238 63 57 157 55 287 221 383 227 252 55 347 55
Back
381.836 0 m 1
 216.797 0 l 1
 223.145 25.8789 l 1
 241.699 28.8086 252.93 31.7383 256.836 35.1562 c 0
 265.625 39.5508 272.461 54.1992 277.832 79.1016 c 2
 310.059 229.004 l 1
 317.871 269.043 307.129 289.062 277.832 289.062 c 0
 261.23 289.062 238.281 277.832 208.984 254.883 c 1
 166.992 57.1289 l 1
 164.551 40.5273 177.734 29.7852 207.031 25.8789 c 1
 201.172 0 l 1
 32.2266 0 l 1
 38.0859 25.8789 l 1
 42.4805 25.8789 47.3633 26.3672 52.7344 26.8555 c 0
 57.6172 27.832 62.5 28.8086 66.8945 30.7617 c 0
 78.125 35.6445 86.9141 49.8047 92.7734 73.2422 c 1
 129.883 250.977 l 1
 133.789 267.09 134.766 277.832 132.812 283.203 c 0
 132.812 284.18 131.348 285.156 128.418 285.645 c 0
 125.488 285.645 122.07 286.133 118.164 286.133 c 0
 115.234 286.133 111.328 285.156 105.469 284.18 c 0
 99.6094 282.715 94.7266 281.25 89.8438 279.785 c 1
 97.168 312.988 l 1
 104.98 314.941 114.258 317.383 125 319.824 c 0
 135.742 322.754 146.484 325.684 157.715 329.102 c 0
 168.457 332.52 178.711 335.449 187.988 338.379 c 0
 197.266 341.309 204.59 344.238 209.961 346.191 c 1
 227.051 346.191 l 1
 216.797 299.805 l 1
 225.098 307.129 232.422 313.477 238.77 317.871 c 0
 245.605 322.754 251.465 326.66 256.836 330.078 c 0
 267.578 335.938 278.32 340.332 289.062 342.285 c 0
 299.805 344.727 310.547 346.191 321.777 346.191 c 0
 382.812 346.191 404.785 307.129 389.16 229.98 c 1
 354.004 66.8945 l 1
 352.539 59.082 351.562 52.2461 351.074 46.875 c 0
 350.098 41.5039 351.074 37.5977 353.027 35.1562 c 0
 356.445 32.2266 367.676 28.8086 387.207 24.9023 c 1
 381.836 0 l 1
EndSplineSet
Fore
212 315 m 1
 201 264 l 1
 235 304 270 323 311 323 c 0
 358 323 386 296 386 253 c 0
 386 245 385 236 383 227 c 2
 347 55 l 2
 345 48 345 42 345 37 c 0
 345 23 352 17 371 16 c 1
 368 0 l 1
 208 0 l 1
 211 16 l 1
 235 19 246 30 252 55 c 2
 287 221 l 2
 289 230 290 239 290 246 c 0
 290 267 281 277 263 277 c 0
 247 277 229 269 211 253 c 1
 203 247 196 240 196 238 c 2
 157 55 l 2
 156 49 155 45 155 40 c 0
 155 26 163 19 182 16 c 1
 179 0 l 1
 14 0 l 1
 17 16 l 1
 50 23 57 29 63 57 c 2
 106 258 l 2
 107 265 108 270 108 275 c 0
 108 290 99 295 77 298 c 1
 81 315 l 1
 212 315 l 1
EndSplineSet
KernsSLIF: 84 -38 2 0 112 -9 2 0 146 -19 2 0 118 -21 2 0 119 -21 2 0 121 -21 2 0
EndChar
StartChar: o
Encoding: 111 111 80
Width: 341
Flags: HW
HStem: -10 22<167 176> 302 21<234 242>
VStem: 46 90<62 115> 271 92<198 253>
Back
58.1055 170.898 m 0
 53.2227 146.973 52.7344 124.512 56.1523 103.027 c 0
 59.5703 81.543 66.4062 62.9883 77.6367 46.875 c 0
 88.3789 30.7617 103.027 18.5547 121.582 8.78906 c 0
 139.648 -0.488281 161.133 -4.88281 186.035 -4.88281 c 0
 210.449 -4.88281 234.375 -0.488281 256.348 8.78906 c 0
 278.809 18.5547 298.828 30.7617 316.895 46.875 c 0
 334.961 62.9883 350.586 81.543 363.281 103.027 c 0
 376.465 124.512 385.254 146.973 390.137 170.898 c 0
 395.508 194.824 395.996 217.773 392.578 238.77 c 0
 388.672 260.254 381.348 278.809 370.117 294.922 c 0
 358.887 311.035 343.75 323.73 325.684 333.008 c 0
 307.129 342.285 285.645 347.168 261.23 347.168 c 0
 236.328 347.168 212.891 342.285 190.918 333.008 c 0
 168.945 323.73 148.926 311.035 130.859 294.922 c 0
 112.793 278.809 97.6562 260.254 84.9609 238.77 c 0
 72.2656 217.773 63.4766 194.824 58.1055 170.898 c 0
140.137 169.922 m 0
 144.043 189.453 149.414 207.52 156.738 224.121 c 0
 163.574 240.723 171.875 255.371 181.641 268.555 c 0
 191.406 281.738 202.148 291.504 213.867 298.828 c 0
 226.074 306.152 238.77 310.059 252.93 310.059 c 0
 267.578 310.059 279.297 306.152 288.086 298.828 c 0
 296.875 291.504 303.223 281.738 307.129 268.555 c 0
 311.035 255.371 312.988 240.723 312.5 224.121 c 0
 312.012 207.52 310.059 189.453 306.152 169.922 c 0
 301.758 150.879 296.875 132.324 290.039 115.723 c 0
 283.203 98.6328 275.391 83.4961 265.625 70.3125 c 0
 255.859 57.6172 245.117 47.3633 232.91 40.0391 c 0
 221.191 32.7148 207.52 28.8086 192.871 28.8086 c 0
 179.199 28.8086 167.48 32.7148 159.18 40.0391 c 0
 150.391 47.3633 144.043 57.6172 139.648 70.3125 c 0
 135.254 83.4961 133.301 98.6328 133.301 115.723 c 0
 133.789 132.324 136.23 150.879 140.137 169.922 c 0
EndSplineSet
Fore
240 323 m 0
 315 323 363 272 363 198 c 0
 363 184 361 171 358 156 c 0
 338 61 257 -10 169 -10 c 0
 94 -10 46 41 46 115 c 0
 46 129 48 143 51 158 c 0
 70 251 154 323 240 323 c 0
236 302 m 0
 194 302 174 266 148 146 c 0
 140 110 136 82 136 62 c 0
 136 26 149 12 174 12 c 0
 214 12 235 47 257 152 c 0
 267 197 271 229 271 253 c 0
 271 288 260 302 236 302 c 0
EndSplineSet
KernsSLIF: 84 -60 2 0 146 -18 2 0 116 -6 2 0 118 -28 2 0 119 -25 2 0 120 -19 2 0 121 -28 2 0
EndChar
StartChar: p
Encoding: 112 112 81
Width: 379
Flags: HW
HStem: -9 38<205 225> 284 39<265 300>
VStem: 300 98<209 231>
DStem: 106 258 196 236 33 -84 161 70 106 258 153 32 33 -84 132 -64
Back
128.906 -74.2188 m 2
 147.949 14.1602 l 1
 164.551 1.46484 184.57 -4.88281 208.008 -4.88281 c 0
 233.398 -4.88281 256.836 0.488281 278.809 11.2305 c 0
 300.781 21.4844 320.801 36.1328 337.891 54.1992 c 0
 355.469 71.7773 369.629 92.2852 381.348 115.723 c 0
 393.066 138.672 401.855 162.109 407.227 187.012 c 0
 411.133 207.031 412.598 227.051 412.109 246.582 c 0
 411.133 266.113 407.715 283.691 400.391 299.316 c 0
 393.555 314.941 382.812 327.637 369.141 337.402 c 0
 354.98 347.168 337.402 352.051 315.918 352.051 c 0
 297.363 352.051 279.297 348.633 261.719 342.285 c 0
 243.652 335.938 226.562 326.172 208.984 312.012 c 1
 210.449 319.336 211.426 326.66 212.402 333.496 c 0
 213.379 340.332 214.844 347.656 215.82 354.98 c 1
 173.34 340.332 130.371 326.172 86.9141 312.988 c 1
 81.0547 287.109 l 1
 112.793 289.062 l 2
 120.117 289.062 124.512 286.621 125 282.227 c 0
 125 276.855 123.535 267.09 121.094 253.906 c 2
 49.8047 -80.0781 l 1
 46.875 -93.2617 41.0156 -103.027 33.6914 -108.398 c 0
 25.8789 -114.258 12.207 -117.188 -6.83594 -117.188 c 1
 -13.1836 -145.996 l 1
 175.781 -145.996 l 1
 183.105 -115.234 l 1
 153.809 -115.234 136.719 -112.793 131.836 -107.91 c 0
 125.977 -103.516 125 -91.7969 128.906 -74.2188 c 2
323.242 164.062 m 0
 314.941 128.906 303.223 99.1211 287.109 76.1719 c 0
 268.555 47.8516 245.117 34.1797 216.797 34.1797 c 0
 205.566 34.1797 192.871 38.0859 179.199 45.8984 c 0
 165.039 53.2227 159.18 62.5 161.133 73.2422 c 2
 198.242 250.977 l 1
 203.125 262.207 213.379 271.973 227.539 279.297 c 0
 241.699 287.109 255.859 291.016 269.043 291.016 c 0
 283.691 291.016 295.41 287.109 304.199 279.297 c 0
 312.5 271.973 318.848 261.719 322.266 249.512 c 0
 326.172 237.305 328.125 223.145 328.125 208.008 c 0
 328.125 193.359 326.172 178.711 323.242 164.062 c 0
EndSplineSet
Fore
398 211 m 0
 398 90.5434 311.696 -9 225 -9 c 0
 195 -9 179 0 153 32 c 1
 132 -64 l 2
 130 -75 129 -84 129 -91 c 0
 129 -116 141 -124 172 -126 c 1
 169 -140 l 1
 -17 -140 l 1
 -13 -124 l 1
 21 -118 27 -112 33 -84 c 2
 106 258 l 2
 107 265 108 270 108 275 c 0
 108 290 99 295 77 298 c 1
 81 315 l 1
 212 315 l 1
 202 268 l 1
 231 307 259 323 300 323 c 0
 362 323 398 279 398 211 c 0
196 236 m 2
 161 70 l 1
 165 44 182 29 205 29 c 0
 244 29 272 69 290 154 c 0
 297 185 300 209 300 229 c 0
 300 266 288 284 265 284 c 0
 250 284 233 276 215 261 c 0
 206 252 197 241 196 236 c 2
EndSplineSet
KernsSLIF: 116 -7 2 0 121 -23 2 0
EndChar
StartChar: q
Encoding: 113 113 82
Width: 379
Flags: HW
HStem: -10 37<148 192> 301 22<241 259>
VStem: 50 98<83 105>
DStem: 239 29 396 322 219 -66 310 -84 285 246 396 322 247 67 310 -84
Back
329.102 -154.785 m 1
 334.961 -126.953 l 1
 305.176 -121.582 291.992 -110.352 295.898 -92.7734 c 1
 389.16 345.215 l 1
 382.812 353.027 l 1
 373.047 351.074 l 1
 332.031 328.125 l 1
 318.848 336.426 305.664 342.773 293.457 346.68 c 0
 281.25 350.098 268.555 352.051 255.859 352.051 c 0
 229.98 352.051 205.566 347.168 183.105 336.914 c 0
 160.156 327.148 139.648 313.477 121.582 295.898 c 0
 103.027 278.809 87.8906 258.301 75.1953 235.352 c 0
 62.5 212.402 53.2227 188.477 47.8516 163.086 c 0
 43.457 141.602 41.0156 120.605 41.0156 100.098 c 0
 41.0156 80.0781 44.4336 62.0117 51.2695 46.3867 c 0
 58.5938 30.7617 68.8477 18.5547 83.0078 8.78906 c 0
 97.168 -0.488281 115.723 -4.88281 139.16 -4.88281 c 0
 148.438 -4.88281 159.668 -3.90625 172.852 -0.976562 c 0
 186.523 1.46484 199.219 5.85938 210.938 12.207 c 0
 223.145 18.0664 234.863 24.9023 246.094 33.2031 c 1
 223.145 -77.1484 l 2
 216.309 -108.398 191.406 -124.023 147.949 -124.023 c 1
 141.113 -154.785 l 1
 329.102 -154.785 l 1
250 76.1719 m 1
 235.352 62.0117 214.355 55.1758 187.012 55.1758 c 0
 172.363 55.1758 160.645 59.082 151.367 66.8945 c 0
 142.578 75.1953 136.23 84.9609 132.324 97.6562 c 0
 128.906 109.863 126.953 123.535 127.441 139.16 c 0
 127.93 154.297 129.395 168.945 131.836 183.105 c 0
 135.254 198.242 140.137 213.867 145.996 229.492 c 0
 151.855 245.117 159.668 259.277 168.945 271.973 c 0
 178.223 284.668 189.453 294.922 202.148 303.223 c 0
 214.844 311.035 229.004 314.941 245.117 314.941 c 0
 285.645 314.941 301.758 293.945 292.969 251.953 c 1
 261.23 104.004 l 1
 250 76.1719 l 1
EndSplineSet
Fore
50 103 m 0
 50 226.862 143.728 323 244 323 c 0
 278 323 297 313 325 284 c 1
 386 322 l 1
 396 322 l 1
 310 -84 l 2
 309 -90 308 -95 308 -99 c 0
 308 -114 317 -119 340 -124 c 1
 336 -140 l 1
 154 -140 l 1
 158 -123 l 1
 204 -115 210 -109 219 -66 c 2
 239 29 l 1
 205 1 180 -10 148 -10 c 0
 86 -10 50 35 50 103 c 0
247 67 m 1
 285 246 l 2
 286 252 287 258 287 263 c 0
 287 286 274 301 252 301 c 0
 209 301 177 253 157 161 c 0
 151 134 148 110 148 91 c 0
 148 49 163 27 192 27 c 0
 216 27 236 42 247 67 c 1
EndSplineSet
KernsSLIF: 99 -8 2 0 117 -10 2 0
EndChar
StartChar: r
Encoding: 114 114 83
Width: 303
Flags: HW
HStem: 0 21G<20 201> 224 99<299 312>
DStem: 112 258 194 199 69 57 167 70
Back
334.961 299.805 m 0
 331.543 286.621 325.684 276.855 317.383 270.02 c 0
 309.082 263.184 299.805 259.766 290.039 259.766 c 0
 277.344 259.766 267.09 264.648 259.766 273.926 c 0
 257.812 276.855 256.836 279.297 255.859 282.227 c 0
 255.371 284.668 252.93 286.133 249.023 286.133 c 0
 241.211 286.133 230.957 279.785 219.238 268.066 c 0
 207.031 255.859 200.195 245.117 198.242 234.863 c 2
 164.062 74.2188 l 1
 156.738 42.4805 172.852 26.8555 212.891 26.8555 c 1
 207.031 0 l 1
 20.9961 0 l 1
 25.8789 24.9023 l 1
 38.5742 27.832 48.8281 29.7852 57.1289 32.2266 c 0
 64.9414 34.1797 70.3125 35.6445 73.2422 37.1094 c 0
 74.2188 38.5742 76.1719 41.9922 78.6133 47.8516 c 0
 81.0547 54.1992 83.0078 61.0352 84.9609 68.8477 c 1
 123.047 249.023 l 1
 126.953 271.484 125.488 283.203 118.164 283.203 c 2
 83.0078 279.785 l 1
 87.8906 306.152 l 1
 111.328 313.965 133.789 321.289 155.762 328.613 c 0
 178.223 335.449 195.801 341.797 208.984 347.168 c 1
 222.168 347.168 l 1
 211.914 300.781 l 1
 242.676 331.543 271.484 347.168 297.852 347.168 c 0
 328.613 347.168 340.82 331.543 334.961 299.805 c 0
EndSplineSet
Fore
216 315 m 1
 204 259 l 1
 246 304 276 323 310 323 c 0
 337 323 355 306 355 283 c 0
 355 279 354 274 353 270 c 0
 348 243 327 224 301 224 c 0
 284 224 274 230 265 249 c 0
 260 259 255 264 249 264 c 0
 227 264 202 235 194 199 c 2
 167 70 l 2
 165 59 163 51 163 44 c 0
 163 24 174 18 204 16 c 1
 201 0 l 1
 20 0 l 1
 23 16 l 1
 55 22 63 29 69 57 c 2
 112 258 l 2
 113 264 114 269 114 273 c 0
 114 289 105 295 83 298 c 1
 87 315 l 1
 216 315 l 1
EndSplineSet
KernsSLIF: 97 -4 2 0 332 -4 2 0 333 -4 2 0 335 -4 2 0 266 -5 2 0 331 -4 2 0 336 -4 2 0 99 -10 2 0 337 -6 2 0 58 -10 2 0 44 -45 2 0 100 -8 2 0 101 -7 2 0 339 -7 2 0 340 -7 2 0 338 -7 2 0 102 7 2 0 103 -3 2 0 104 -10 2 0 45 -12 2 0 105 4 2 0 106 -8 2 0 107 -10 2 0 108 -9 2 0 109 4 2 0 110 2 2 0 111 -9 2 0 348 -9 2 0 349 -9 2 0 351 -9 2 0 267 -8 2 0 347 -9 2 0 364 -9 2 0 112 2 2 0 46 -46 2 0 113 -10 2 0 146 -5 2 0 59 -10 2 0 116 6 2 0 117 6 2 0 118 5 2 0 119 4 2 0 120 7 2 0 121 6 2 0
EndChar
StartChar: s
Encoding: 115 115 84
Width: 265
Flags: HW
HStem: 10 4<54 133> 10 94<39 58> 223 85<261 279> 300 23<190 208>
VStem: 63 78<204 254> 194 75<66 117>
Back
272.949 94.2383 m 0
 266.113 62.0117 250.488 37.5977 225.586 20.5078 c 0
 200.684 3.41797 172.852 -4.88281 142.09 -4.88281 c 0
 131.348 -4.88281 116.211 -2.92969 97.168 0.976562 c 2
 62.9883 7.8125 l 2
 60.5469 7.8125 56.1523 5.37109 50.7812 0 c 1
 28.8086 0 l 1
 56.1523 126.953 l 1
 85.9375 126.953 l 1
 85.4492 110.352 85.4492 97.6562 86.4258 89.3555 c 0
 87.4023 81.0547 89.3555 70.3125 91.7969 57.1289 c 0
 94.7266 45.8984 101.074 37.5977 110.352 33.2031 c 0
 120.117 28.3203 131.348 25.8789 144.043 25.8789 c 0
 175.781 25.8789 194.824 40.5273 201.172 68.8477 c 0
 204.102 87.8906 196.777 103.027 179.199 115.234 c 0
 163.086 126.953 150.391 136.719 140.625 144.043 c 0
 130.859 151.367 123.047 157.715 117.188 162.598 c 0
 110.84 167.48 106.445 171.387 103.516 174.316 c 0
 100.586 177.734 98.1445 180.176 96.1914 183.105 c 0
 89.8438 192.383 85.4492 202.148 82.0312 212.891 c 0
 78.6133 223.633 78.6133 236.328 82.0312 250.977 c 0
 85.4492 265.625 91.3086 278.809 99.6094 290.527 c 0
 107.91 302.246 117.676 312.012 129.395 320.312 c 0
 141.113 328.613 153.809 335.449 167.969 339.844 c 0
 182.129 344.727 195.801 347.168 209.961 347.168 c 0
 222.168 347.168 230.957 346.191 237.305 345.215 c 0
 243.652 343.75 247.559 342.285 249.023 340.82 c 2
 270.996 332.031 l 2
 271.484 332.52 272.461 333.496 272.949 334.961 c 0
 273.438 336.426 275.391 338.867 277.832 341.797 c 1
 300.781 341.797 l 1
 279.785 226.074 l 1
 250.977 226.074 l 1
 250.977 284.668 234.375 313.965 201.172 313.965 c 0
 188.477 313.965 177.246 311.035 167.48 304.688 c 0
 157.715 298.34 151.367 288.086 147.949 273.926 c 0
 145.996 263.184 146.484 254.883 148.926 249.023 c 0
 151.855 243.164 156.738 237.305 164.062 231.934 c 2
 230.957 186.035 l 2
 240.234 179.199 248.047 173.34 253.418 167.48 c 0
 259.277 161.621 263.672 156.25 267.09 150.879 c 0
 272.461 143.066 275.391 134.277 275.879 125.488 c 0
 276.855 116.699 275.879 105.957 272.949 94.2383 c 0
EndSplineSet
Fore
133 14 m 0
 164.792 14 194 34.6822 194 66 c 0
 194 84 178 99 140 117 c 0
 86 143 63 169 63 204 c 0
 63 210 64 216 65 223 c 0xac
 78 281 132 323 195 323 c 0x1c
 210 323 224 320 246 313 c 0
 256 309 262 308 266 308 c 0
 274 308 279 311 285 322 c 1
 300 322 l 1
 279 223 l 1x2c
 262 223 l 1x2c
 257.141 271.593 235.11 300 196 300 c 0
 170 300 147 283 142 261 c 0
 142 259 141 256 141 254 c 0
 141 234 157 219 195 201 c 0
 247 177 269 153 269 117 c 0
 269 110 268 102 266 94 c 0
 253 33 201 -10 139 -10 c 0
 120 -10 86 -2 69 6 c 0
 63 9 57 10 54 10 c 0x9c
 48 10 43 5 32 -9 c 1
 15 -9 l 1
 39 104 l 1
 58 104 l 1x4c
 60 44 85 14 133 14 c 0
EndSplineSet
KernsSLIF: 146 -11 2 0 116 -4 2 0
EndChar
StartChar: t
Encoding: 116 116 85
Width: 227
Flags: HW
HStem: -8 48<124 180> 285 30<211 269>
DStem: 110 285 205 285 62 63 161 79
Back
227.051 59.082 m 1
 214.844 41.0156 198.73 25.8789 178.711 13.6719 c 0
 158.203 0.976562 139.16 -4.88281 122.07 -4.88281 c 0
 75.1953 -4.88281 59.082 27.832 73.2422 94.2383 c 2
 117.188 303.223 l 1
 82.0312 303.223 l 1
 79.1016 318.848 l 1
 86.4258 324.219 93.2617 329.59 100.586 334.961 c 0
 107.422 340.332 114.746 346.191 122.07 352.051 c 0
 136.23 363.77 149.902 377.441 164.062 393.066 c 0
 178.223 408.203 193.848 426.758 211.914 449.219 c 1
 215.82 417.969 l 1
 200.195 344.238 l 1
 270.02 344.238 l 1
 261.23 303.223 l 1
 190.918 303.223 l 1
 148.926 104.98 l 2
 141.113 66.8945 145.508 47.8516 163.086 47.8516 c 0
 174.316 47.8516 190.43 58.1055 211.914 78.125 c 1
 227.051 59.082 l 1
EndSplineSet
Fore
275 315 m 1
 269 285 l 1
 205 285 l 1
 161 79 l 2
 160 72 159 67 159 62 c 0
 159 47 166 40 180 40 c 0
 194 40 207 50 226 76 c 1
 241 68 l 1
 202 12 169 -8 124 -8 c 0
 84 -8 60 12 60 46 c 0
 60 51 61 57 62 63 c 2
 110 285 l 1
 75 285 l 1
 78 303 l 1
 130 341 164 371 218 430 c 1
 235 430 l 1
 211 315 l 1
 275 315 l 1
EndSplineSet
KernsSLIF: 83 7 2 0 97 7 2 0 332 7 2 0 335 7 2 0 266 4 2 0 336 7 2 0 58 -8 2 0 104 -2 2 0 111 -2 2 0 348 -2 2 0 351 -2 2 0 146 -21 2 0 59 -8 2 0
EndChar
StartChar: u
Encoding: 117 117 86
Width: 379
Flags: HW
HStem: -10 45<133 185> 295 20G<78 206 258 395>
VStem: 59 95<51 71>
DStem: 99 258 206 315 62 86 157 83 288 258 395 315 247 65 343 69
Back
379.883 26.8555 m 1
 373.535 25.8789 365.234 23.9258 355.957 22.4609 c 0
 346.68 20.9961 337.402 18.5547 328.125 15.1367 c 2
 255.859 -7.8125 l 1
 264.16 41.9922 l 1
 246.094 26.8555 l 2
 231.934 16.1133 217.773 8.30078 204.102 2.92969 c 0
 189.941 -2.44141 174.805 -4.88281 159.18 -4.88281 c 0
 147.461 -4.88281 136.719 -3.41797 126.465 -0.488281 c 0
 116.211 2.44141 107.422 6.83594 100.098 13.1836 c 0
 88.8672 20.9961 82.5195 32.2266 81.0547 46.875 c 0
 79.5898 61.5234 80.5664 77.6367 83.9844 95.2148 c 1
 123.047 275.879 l 1
 125.488 290.527 124.512 300.781 119.141 306.152 c 0
 116.211 308.594 112.793 310.547 107.91 312.012 c 0
 103.516 313.477 96.1914 313.965 86.9141 313.965 c 1
 91.7969 339.844 l 1
 213.867 339.844 l 1
 163.086 99.1211 l 1
 161.621 90.8203 161.621 83.0078 163.574 74.707 c 0
 165.039 66.4062 169.434 60.5469 175.781 57.1289 c 0
 179.199 55.6641 183.105 54.6875 187.5 54.1992 c 0
 191.895 53.2227 195.801 53.2227 200.195 53.2227 c 0
 209.961 53.2227 220.215 55.1758 230.469 59.5703 c 0
 240.723 63.9648 251.465 69.8242 262.207 77.1484 c 0
 266.602 80.5664 270.508 89.8438 272.949 104.98 c 1
 309.082 274.902 l 2
 312.5 290.527 310.547 300.293 304.199 304.688 c 0
 297.363 308.594 284.18 311.035 264.16 311.035 c 1
 270.02 339.844 l 1
 402.832 339.844 l 1
 349.121 85.9375 l 2
 346.191 72.7539 347.168 63.9648 351.562 60.0586 c 0
 355.957 56.1523 367.188 54.1992 384.766 54.1992 c 1
 379.883 26.8555 l 1
EndSplineSet
Fore
232 -9 m 1
 242 36 l 1
 195 1 169 -10 133 -10 c 0
 86 -10 59 16 59 60 c 0
 59 68 60 77 62 86 c 2
 99 258 l 2
 101 265 101 271 101 276 c 0
 101 290 94 294 74 298 c 1
 78 315 l 1
 206 315 l 1
 157 83 l 2
 155 75 154 67 154 61 c 0
 154 42 164 35 185 35 c 0
 204 35 220 42 247 65 c 1
 288 258 l 2
 289 264 290 270 290 274 c 0
 290 291 281 296 254 298 c 1
 258 315 l 1
 395 315 l 1
 343 69 l 2
 342 63 341 57 341 53 c 0
 341 36 350 31 373 29 c 1
 370 14 l 1
 321.688 8.50996 268.576 2.4301 232 -9 c 1
EndSplineSet
KernsSLIF: 146 -17 2 0
EndChar
StartChar: v
Encoding: 118 118 87
Width: 341
Flags: HW
HStem: -10 21G<163 180> 298 17<81 248>
DStem: 124 193 210 259 163 -10 235 121 310 245 347 261 235 121 180 -10
Back
419.922 312.012 m 1
 413.574 312.012 406.738 311.035 399.902 308.594 c 0
 393.555 306.152 388.184 302.246 384.766 296.875 c 2
 194.824 -13.1836 l 1
 170.898 3.90625 l 1
 111.816 290.039 l 1
 110.84 291.992 109.375 294.434 108.398 297.363 c 0
 107.422 300.293 105.957 302.734 104.004 304.199 c 0
 100.586 307.129 97.168 309.57 92.7734 310.547 c 0
 88.8672 311.523 83.0078 312.012 75.1953 312.012 c 1
 81.0547 339.844 l 1
 238.77 339.844 l 1
 233.887 312.988 l 1
 226.562 312.5 220.703 311.523 215.332 311.035 c 0
 210.449 310.547 206.055 308.105 202.148 305.176 c 0
 200.195 303.711 198.242 300.781 196.777 295.898 c 0
 196.289 292.48 196.777 287.598 198.242 280.762 c 2
 229.004 116.211 l 1
 331.055 284.18 l 2
 333.496 288.086 334.961 291.016 334.961 292.969 c 0
 336.426 298.34 335.449 302.734 333.008 306.152 c 0
 331.055 309.57 327.637 311.035 323.73 311.523 c 0
 319.336 312.012 312.012 312.012 301.758 312.012 c 1
 308.105 339.844 l 1
 425.781 339.844 l 1
 419.922 312.012 l 1
EndSplineSet
Fore
398 315 m 1
 394 298 l 1
 373 296 366 291 347 261 c 1
 180 -10 l 1
 163 -10 l 1
 146.407 76.3705 106.476 288 99 288 c 1
 96 294 93 296 77 298 c 1
 81 315 l 1
 252 315 l 1
 248 298 l 1
 243 298 237 297 236 297 c 0
 219 296 211 291 209 281 c 0
 209 279 208 277 208 275 c 0
 208 271 209 267 210 259 c 2
 235 121 l 1
 310 245 l 2
 318 257 323 268 325 276 c 0
 325 278 326 280 326 282 c 0
 326 293 316 297 291 298 c 1
 295 315 l 1
 398 315 l 1
EndSplineSet
KernsSLIF: 97 -15 2 0 332 -15 2 0 333 -15 2 0 335 -15 2 0 266 -17 2 0 331 -15 2 0 336 -15 2 0 334 -15 2 0 99 -27 2 0 58 -15 2 0 44 -38 2 0 101 -23 2 0 339 -23 2 0 340 -23 2 0 338 -23 2 0 103 -15 2 0 45 -18 2 0 108 -10 2 0 111 -27 2 0 348 -27 2 0 351 -27 2 0 347 -27 2 0 364 -26 2 0 46 -38 2 0 115 -10 2 0 59 -15 2 0
EndChar
StartChar: w
Encoding: 119 119 88
Width: 492
Flags: HW
HStem: -10 21G<154 170 325 341> 295 20G<83 234 268 427 458 550>
DStem: 295 237 300 202 225 120 170 -10 433 187 505 264 395 123 341 -10
Back
589.844 313.965 m 1
 576.66 310.547 563.965 299.316 551.758 279.785 c 2
 373.047 -11.2305 l 1
 351.074 9.76562 l 1
 317.871 182.129 l 1
 187.988 -11.2305 l 1
 162.109 9.76562 l 1
 106.934 293.945 l 2
 104.98 304.688 97.168 311.035 83.9844 312.988 c 1
 88.8672 339.844 l 1
 237.793 339.844 l 1
 232.91 312.988 l 1
 209.473 311.035 196.777 305.664 194.824 296.875 c 0
 194.336 293.457 194.336 288.086 194.824 280.273 c 0
 195.801 272.949 196.777 262.207 199.219 249.023 c 1
 223.145 112.793 l 1
 305.176 232.91 l 1
 294.922 293.945 l 1
 294.434 299.805 290.039 304.688 282.715 308.105 c 0
 274.902 311.523 266.113 312.988 256.836 312.988 c 1
 262.207 339.844 l 1
 429.199 339.844 l 1
 423.828 313.965 l 1
 384.766 305.176 l 1
 381.836 302.246 378.906 298.828 376.953 293.945 c 0
 376.953 291.504 378.906 276.367 382.812 249.023 c 2
 402.832 112.793 l 1
 486.816 249.023 l 2
 490.234 254.395 493.652 260.742 496.582 268.066 c 0
 499.512 275.391 501.465 281.738 502.93 287.109 c 0
 506.836 304.199 500.488 312.988 482.91 312.988 c 1
 487.793 339.844 l 1
 595.215 339.844 l 1
 589.844 313.965 l 1
EndSplineSet
Fore
387 271 m 0
 387 244.982 395 145.048 395 123 c 1
 415.754 157.955 479.552 262.419 481 274 c 0
 482 277 482 280 482 282 c 0
 482 292 474 296 454 298 c 1
 458 315 l 1
 550 315 l 1
 546 298 l 1
 528 295 520 289 505 264 c 1
 341 -10 l 1
 325 -10 l 1
 300 202 l 1
 170 -10 l 1
 154 -10 l 1
 107 246 l 1
 98 291 96 295 79 298 c 1
 83 315 l 1
 234 315 l 1
 230 298 l 1
 211 296 203 290 200 279 c 0
 200 277 199 276 199 273 c 0
 199 262 204 241 211 201 c 1
 213.379 177.214 219.793 144.301 225 120 c 1
 295 237 l 1
 294 250 l 1
 291 295 290 296 264 298 c 1
 268 315 l 1
 427 315 l 1
 423 298 l 1
 398 296 390 293 388 282 c 0
 388 280 387 277 387 271 c 0
EndSplineSet
KernsSLIF: 97 -15 2 0 332 -15 2 0 333 -15 2 0 335 -15 2 0 266 -17 2 0 331 -15 2 0 336 -15 2 0 334 -15 2 0 99 -24 2 0 58 -15 2 0 44 -34 2 0 101 -22 2 0 339 -22 2 0 340 -22 2 0 338 -22 2 0 103 -15 2 0 45 -15 2 0 108 -10 2 0 111 -24 2 0 348 -24 2 0 351 -24 2 0 347 -24 2 0 364 -23 2 0 46 -34 2 0 115 -10 2 0 59 -15 2 0
EndChar
StartChar: x
Encoding: 120 120 89
Width: 341
Flags: HW
HStem: 0 21G<10 125 166 330> 298 17<75 242 277 288>
Back
375 0 m 1
 211.914 0 l 1
 216.797 24.9023 l 1
 241.211 28.8086 l 2
 244.141 30.2734 246.094 33.2031 247.07 38.0859 c 0
 248.535 40.5273 247.07 46.875 243.164 56.1523 c 2
 208.984 132.812 l 1
 144.043 57.1289 l 2
 139.16 51.7578 135.742 46.875 132.324 42.4805 c 0
 129.395 38.0859 127.441 34.1797 125.977 30.7617 c 0
 124.512 28.8086 126.465 27.3438 131.348 26.3672 c 0
 136.719 25.3906 143.555 24.9023 152.832 24.9023 c 1
 147.949 0 l 1
 25.8789 0 l 1
 30.7617 24.9023 l 1
 39.5508 26.3672 46.3867 27.832 50.7812 28.8086 c 0
 55.6641 30.2734 59.082 31.7383 61.0352 33.2031 c 0
 70.8008 38.5742 81.543 47.8516 92.7734 61.0352 c 2
 194.824 174.805 l 1
 152.832 272.949 l 2
 149.902 280.273 146.484 287.598 143.066 294.922 c 0
 139.648 302.246 134.766 306.641 127.93 308.105 c 2
 97.168 312.012 l 1
 103.027 339.844 l 1
 270.02 339.844 l 1
 264.16 312.012 l 1
 243.164 312.012 232.91 309.57 231.934 304.199 c 0
 229.98 297.852 236.816 277.344 251.953 242.188 c 1
 267.09 259.277 279.297 272.949 288.086 283.691 c 0
 296.875 293.945 301.758 300.781 303.223 304.199 c 0
 303.711 309.57 294.434 312.012 275.879 312.012 c 1
 282.227 339.844 l 1
 413.086 339.844 l 1
 407.227 312.012 l 1
 379.883 312.012 358.398 303.223 342.773 285.156 c 1
 268.066 203.125 l 1
 329.102 65.918 l 2
 339.844 41.5039 356.445 27.832 379.883 24.9023 c 1
 375 0 l 1
EndSplineSet
Fore
208 283 m 0
 208 270.791 224.928 230.454 239 207 c 1
 264.1 234.03 301.863 261.317 306 282 c 2
 306 286 l 2
 306 293 301 296 288 297 c 0
 286 297 280 298 274 298 c 1
 278 315 l 1
 393 315 l 1
 389 298 l 1
 367 295 352 287 336 272 c 2
 249 186 l 1
 316 30 l 2
 320 23 324 20 333 16 c 1
 330 0 l 1
 166 0 l 1
 169 16 l 1
 191 18 202 22 203 30 c 2
 203 34 l 2
 203 43 199 55 190 74 c 0
 187 80 179 97 170 117 c 1
 165 111 158 105 156 103 c 0
 124 72 100 43 98 33 c 0
 98 30 l 0
 98 22 106 18 128 16 c 1
 125 0 l 1
 10 0 l 1
 13 16 l 1
 39 18 54 29 104 80 c 1
 112 89 135 112 160 137 c 1
 102 272 l 2
 92 292 89 296 71 298 c 1
 75 315 l 1
 246 315 l 1
 242 298 l 1
 219 298 209 294 208 285 c 0
 208 284 208 284 208 283 c 0
EndSplineSet
KernsSLIF: 97 -1 2 0 99 -20 2 0 101 -18 2 0 339 -18 2 0 111 -20 2 0 113 -21 2 0
EndChar
StartChar: y
Encoding: 121 121 90
Width: 341
Flags: HW
HStem: -140 98<39 49> 298 17<78 245>
VStem: -8 81<-97 -89>
DStem: 120 193 210 240 159 -9 232 114 307 245 343 261 232 114 184 -10
Back
228.027 -6.83594 m 1
 401.855 291.016 l 2
 406.738 299.805 412.598 306.152 419.922 311.035 c 0
 427.246 315.43 435.059 317.871 442.871 317.871 c 1
 449.219 346.191 l 1
 333.008 346.191 l 1
 327.148 317.871 l 1
 339.844 317.871 348.633 316.406 354.004 312.988 c 0
 355.469 311.523 356.445 310.059 356.934 307.617 c 0
 357.91 305.176 357.91 303.223 356.934 301.758 c 2
 255.859 119.141 l 1
 216.797 287.109 l 1
 214.844 292.969 214.844 298.828 215.82 305.176 c 0
 217.773 313.477 232.91 317.871 261.23 317.871 c 1
 267.09 346.191 l 1
 101.074 346.191 l 1
 95.2148 317.871 l 1
 113.77 313.965 124.512 308.105 127.93 299.805 c 1
 193.848 19.043 l 1
 162.109 -35.1562 l 2
 152.832 -50.7812 143.555 -62.9883 134.277 -70.8008 c 0
 125.488 -79.1016 117.676 -83.0078 110.84 -83.0078 c 0
 108.398 -83.0078 105.469 -82.5195 102.539 -81.0547 c 0
 99.6094 -79.5898 96.6797 -78.125 94.2383 -77.1484 c 0
 88.8672 -74.2188 83.4961 -72.2656 79.1016 -70.8008 c 0
 74.2188 -69.8242 68.8477 -68.8477 62.0117 -68.8477 c 0
 46.875 -68.8477 34.1797 -73.7305 24.9023 -83.4961 c 0
 15.625 -93.2617 9.76562 -103.516 7.8125 -115.234 c 0
 4.88281 -128.906 7.32422 -140.625 15.625 -149.414 c 0
 23.9258 -158.691 38.5742 -163.086 60.0586 -163.086 c 0
 109.375 -163.086 165.527 -110.84 228.027 -6.83594 c 1
EndSplineSet
Fore
-8 -97 m 0
 -8 -62.2308 17.4312 -42 46 -42 c 0
 66 -42 79 -53 79 -69 c 0
 79 -71 78 -74 78 -76 c 0
 77 -79 77 -82 75 -85 c 2
 73 -89 l 1
 73 -91 l 2
 73 -97 78 -101 83 -101 c 0
 98 -101 120 -79 139 -45 c 2
 159 -9 l 1
 142.435 76.7969 102.609 288 96 288 c 1
 93 294 90 296 74 298 c 1
 78 315 l 1
 249 315 l 1
 245 298 l 1
 224.384 298 204 294.262 204 275 c 0
 204 271 205 263 210 240 c 2
 232 114 l 1
 307 245 l 2
 317 262 319 268 321 276 c 0
 321 278 322 280 322 282 c 0
 322 293 313 297 288 298 c 1
 292 315 l 1
 395 315 l 1
 391 298 l 1
 370 296 361 289 343 261 c 1
 184 -10 l 2
 146 -74 127 -102 109 -117 c 0
 92 -132 70 -140 47 -140 c 0
 13 -140 -8 -122 -8 -97 c 0
EndSplineSet
KernsSLIF: 97 -21 2 0 332 -21 2 0 333 -21 2 0 335 -21 2 0 266 -23 2 0 331 -21 2 0 336 -21 2 0 334 -21 2 0 99 -28 2 0 58 -19 2 0 44 -38 2 0 101 -27 2 0 339 -27 2 0 340 -27 2 0 338 -27 2 0 103 -21 2 0 45 -19 2 0 108 -12 2 0 111 -28 2 0 348 -28 2 0 351 -28 2 0 347 -28 2 0 364 -27 2 0 46 -38 2 0 115 -16 2 0 59 -19 2 0
EndChar
StartChar: z
Encoding: 122 122 91
Width: 303
Flags: HW
HStem: 0 22<131 276> 293 22<98 236>
DStem: 236 293 347 297 18 17 131 22
Back
345.215 109.863 m 1
 312.012 0 l 1
 26.8555 0 l 1
 30.7617 20.0195 l 1
 272.949 299.805 l 1
 189.941 299.805 l 2
 170.898 299.805 156.738 293.945 147.461 282.227 c 0
 138.672 270.02 131.348 254.883 125.977 236.816 c 1
 91.7969 236.816 l 1
 118.164 339.844 l 1
 383.789 339.844 l 1
 379.883 317.871 l 1
 136.23 39.0625 l 1
 216.797 39.0625 l 2
 244.141 39.0625 265.137 44.4336 278.809 56.1523 c 0
 292.969 67.3828 305.664 88.3789 316.895 119.141 c 1
 345.215 109.863 l 1
EndSplineSet
Fore
310 109 m 1
 276 0 l 1
 14 0 l 1
 18 17 l 1
 236 293 l 1
 225 293 l 2
 139 293 120 280 90 218 c 1
 72 218 l 1
 98 315 l 1
 351 315 l 1
 347 297 l 1
 131 22 l 1
 151 22 l 2
 206 22 230 31 258 61 c 0
 272 75 279 87 291 109 c 1
 310 109 l 1
EndSplineSet
EndChar
StartChar: braceleft
Encoding: 123 123 92
Width: 268
Flags: HW
VStem: 79 71<-58 -51> 112 71<120 128>
DStem: 109 99 179 89 83 -23 154 -27 169 380 242 384 143 257 217 267
Back
174.805 -121.094 m 1
 153.809 -121.094 135.742 -119.629 121.582 -117.188 c 0
 106.934 -114.258 96.1914 -109.375 88.8672 -102.051 c 0
 71.7773 -85.9375 66.8945 -57.6172 75.1953 -17.0898 c 1
 100.098 101.074 l 2
 104.492 122.559 103.027 138.184 94.7266 148.926 c 0
 85.9375 159.668 68.3594 169.434 41.0156 179.199 c 1
 70.8008 187.012 92.7734 196.777 106.445 208.008 c 0
 120.117 219.238 128.906 234.863 132.812 254.883 c 1
 159.18 376.953 l 1
 163.574 396.973 169.922 414.062 177.734 427.734 c 0
 185.059 441.406 195.801 452.148 208.984 459.961 c 0
 228.516 473.145 259.766 479.98 303.223 479.98 c 1
 297.852 456.055 l 1
 274.902 450.684 257.812 442.383 247.559 431.152 c 0
 237.305 419.434 229.492 402.832 225.098 379.883 c 2
 201.172 266.113 l 1
 194.824 239.258 186.523 218.262 175.781 203.125 c 1
 166.016 191.895 154.297 183.594 141.113 179.199 c 1
 155.762 170.41 164.551 159.668 166.992 147.461 c 0
 169.434 135.254 168.457 116.211 163.086 90.8203 c 2
 140.137 -20.9961 l 1
 134.766 -43.457 134.766 -60.5469 141.113 -71.2891 c 0
 146.973 -82.5195 160.156 -91.3086 180.176 -98.1445 c 1
 174.805 -121.094 l 1
EndSplineSet
Fore
83 -23 m 2x80
 109 99 l 2
 111 109 112 118 112 126 c 0
 112 154 96 167 53 178 c 1
 114 193 132 209 143 257 c 2
 169 380 l 2
 177 417 193 442 219 457 c 0
 244 471 272 476 333 477 c 1
 331 468 l 1
 275 457 253 436 242 384 c 2
 217 267 l 2
 205 210 184 192 117 178 c 1
 165 168 183 155 183 122 c 0x40
 183 112 182 102 179 89 c 2
 154 -27 l 2
 152 -38 150 -47 150 -56 c 0
 150 -87 168 -102 208 -111 c 1
 207 -119 l 1
 124.578 -119 79 -105.621 79 -53 c 0
 79 -44 81 -34 83 -23 c 2x80
EndSplineSet
EndChar
StartChar: bar
Encoding: 124 124 93
Width: 150
Flags: HW
DStem: 145 472 205 472 42 -13 102 -13
Back
21.9727 -117.188 m 1
 -13.1836 -117.188 l 1
 112.793 477.051 l 1
 147.949 477.051 l 1
 21.9727 -117.188 l 1
EndSplineSet
Fore
42 -13 m 1
 145 472 l 1
 205 472 l 1
 102 -13 l 1
 42 -13 l 1
EndSplineSet
EndChar
StartChar: braceright
Encoding: 125 125 94
Width: 268
Flags: HW
VStem: 162 71<229 238> 195 70<407 415>
DStem: 128 90 202 100 103 -27 176 -23 191 384 262 380 166 268 236 258
Back
215.82 169.922 m 1
 196.777 164.551 182.617 157.227 173.34 146.973 c 0
 164.551 137.207 157.715 121.582 152.832 101.074 c 1
 127.93 -17.0898 l 1
 120.117 -56.1523 104.004 -84.4727 80.0781 -102.051 c 0
 70.8008 -108.887 58.1055 -113.281 41.9922 -116.699 c 0
 25.8789 -119.629 6.83594 -121.094 -15.1367 -121.094 c 1
 -9.76562 -98.1445 l 1
 31.25 -87.4023 56.1523 -61.5234 64.9414 -20.9961 c 1
 87.8906 90.8203 l 1
 94.2383 118.164 102.051 138.672 111.816 151.855 c 2
 110.84 150.879 l 2
 119.141 162.109 130.859 171.387 145.996 178.223 c 1
 131.836 186.035 124.023 196.289 121.582 209.473 c 0
 119.141 222.656 120.605 241.211 125.977 266.113 c 2
 149.902 379.883 l 2
 154.785 401.855 153.809 418.945 147.949 430.664 c 0
 142.09 442.383 128.906 450.684 107.91 456.055 c 1
 112.793 479.98 l 1
 158.203 479.98 187.5 473.145 201.172 459.961 c 0
 216.797 444.824 220.703 416.504 211.914 375.977 c 2
 186.035 254.883 l 2
 178.711 219.727 189.941 196.777 220.215 187.012 c 1
 215.82 169.922 l 1
EndSplineSet
Fore
103 -27 m 2x80
 128 90 l 2
 140 147 161 165 228 179 c 1
 180 190 162 203 162 236 c 0x80
 162 245 163 255 166 268 c 2
 191 384 l 2
 193 395 195 404 195 413 c 0
 195 444 177 459 136 468 c 1
 138 477 l 1
 218.51 475.68 265 465.764 265 409 c 0x40
 265 401 264 391 262 380 c 2
 236 258 l 2
 234 248 233 239 233 231 c 0
 233 203 249 190 292 179 c 1
 231 165 212 148 202 100 c 2
 176 -23 l 2
 168 -60 152 -85 126 -100 c 0
 101 -114 73 -119 12 -119 c 1
 13 -111 l 1
 70 -100 92 -79 103 -27 c 2x80
EndSplineSet
EndChar
StartChar: asciitilde
Encoding: 126 126 95
Width: 355
Flags: HW
Back
382.812 168.945 m 1
 354.98 143.066 l 1
 336.914 128.906 l 2
 320.312 117.188 300.781 110.84 277.832 110.84 c 0
 270.02 110.84 260.254 112.305 248.535 115.723 c 0
 236.816 118.652 223.145 123.535 208.008 130.859 c 0
 182.129 143.555 160.156 149.902 143.066 149.902 c 0
 126.465 149.902 104.492 133.789 78.125 101.074 c 1
 51.7578 145.02 l 1
 83.4961 184.57 118.164 204.102 157.227 204.102 c 0
 174.316 204.102 198.242 196.777 228.027 183.105 c 0
 241.211 176.758 253.418 172.363 264.16 169.434 c 0
 274.902 166.504 283.203 164.551 290.039 164.062 c 0
 305.176 164.062 327.637 180.176 356.934 212.891 c 1
 382.812 168.945 l 1
EndSplineSet
Fore
343 210 m 1
 373 178 l 1
 332 134 308 119 276 119 c 0
 254 119 238 125 210 142 c 0
 182 159 162 166 138 166 c 0
 118 166 106 159 85 137 c 1
 56 169 l 1
 87 209 116 226 152 226 c 0
 175 226 192 221 238 197 c 0
 266 184 278 180 289 180 c 0
 305 180 321 188 343 210 c 1
EndSplineSet
EndChar
StartChar: uni0E10.descless
Encoding: 128 63232 96
Width: 366
Flags: HW
HStem: 0 21G<184 258> 103 31<126 135> 201 31<148 165> 308 46<298 319> 333 60<203 218>
VStem: 89 26<151 166> 227 76<201 220>
Back
294.922 196.777 m 2
 298.828 214.844 297.363 230.957 290.527 245.605 c 0
 283.691 259.766 272.461 271.973 256.836 282.227 c 0
 245.117 290.039 230.957 295.898 215.332 298.828 c 0
 199.707 302.246 182.129 304.199 163.086 304.199 c 2
 141.113 304.199 l 1
 154.297 318.848 173.34 326.172 198.242 326.172 c 0
 200.684 326.172 204.59 325.195 210.449 323.242 c 0
 216.309 320.801 223.145 318.848 230.957 315.918 c 0
 241.699 312.5 252.93 309.57 264.648 306.641 c 0
 276.367 303.711 285.156 301.758 291.992 301.758 c 0
 332.031 301.758 364.746 328.125 390.137 379.883 c 1
 352.051 379.883 l 1
 345.215 370.605 338.867 362.793 333.008 356.445 c 0
 327.148 350.098 320.312 347.168 312.988 347.168 c 0
 309.57 347.168 304.688 349.121 298.34 353.027 c 0
 291.992 356.934 286.133 360.84 279.785 365.234 c 2
 266.113 373.047 l 2
 257.324 378.418 248.535 381.836 240.234 382.812 c 0
 231.445 384.277 222.168 384.766 212.891 384.766 c 0
 199.219 384.766 185.059 381.836 170.898 375.488 c 0
 157.227 369.141 144.043 360.84 131.836 350.098 c 0
 120.117 339.355 109.375 326.66 100.098 312.5 c 0
 90.8203 298.34 83.0078 283.203 77.1484 267.09 c 1
 124.512 267.09 159.668 263.184 183.105 255.859 c 0
 212.891 246.094 226.074 226.562 222.168 196.777 c 1
 209.473 216.797 189.453 227.051 162.109 227.051 c 0
 141.113 227.051 125 221.191 112.793 208.984 c 0
 101.074 196.777 92.7734 181.641 88.8672 163.086 c 0
 85.4492 148.926 87.4023 135.254 93.2617 121.582 c 0
 99.6094 107.91 109.863 101.074 124.023 101.074 c 0
 137.207 101.074 149.902 105.957 161.133 116.211 c 0
 172.363 125.977 180.176 138.184 185.059 151.855 c 1
 190.43 135.254 192.871 114.746 191.895 89.8438 c 0
 191.406 65.4297 187.5 35.1562 180.176 0 c 1
 252.93 0 l 1
 294.922 196.777 l 2
113.77 164.062 m 0
 116.211 173.34 119.629 181.152 125.488 187.5 c 0
 131.348 193.848 137.695 196.777 145.02 196.777 c 0
 152.344 196.777 157.715 193.848 161.133 187.5 c 0
 164.551 181.152 165.039 173.34 163.086 164.062 c 0
 161.133 154.785 157.227 146.973 150.879 140.625 c 0
 145.02 134.277 138.184 130.859 130.859 130.859 c 0
 123.535 130.859 118.652 134.277 115.723 140.625 c 0
 112.305 146.973 111.816 154.785 113.77 164.062 c 0
EndSplineSet
Fore
301 201 m 2xee
 258 0 l 1
 184 0 l 1
 192 40 196 73 196 101 c 0
 196 123 194 140 189 155 c 1
 180 127 155 103 127 103 c 0
 103 103 89 128 89 153 c 0
 89 158 89 162 90 166 c 0
 98 204 124 232 165 232 c 0
 193 232 213 222 227 201 c 1
 227 209 l 2
 227 234 215 251 187 261 c 0
 163 269 126 273 78 273 c 1
 101 338 161 393 218 393 c 0xee
 237 393 255 392 272 381 c 2
 285 373 l 2
 300 365 312 354 319 354 c 0
 334 354 346 369 359 388 c 1
 398 388 l 1
 372 335 339 308 298 308 c 0xf6
 285 308 258 316 236 323 c 0
 220 328 208 333 203 333 c 0
 177 333 158 326 144 310 c 1
 166 310 l 2
 206 310 239 304 262 288 c 0
 288 272 303 248 303 220 c 0
 303 214 302 208 301 201 c 2xee
148 201 m 0
 131.074 201 115 183.341 115 156 c 0
 115 143 121 134 133 134 c 0
 150.579 134 167 151.208 167 178 c 0
 167 192 160 201 148 201 c 0
EndSplineSet
KernsSLIF: 212 20 0 0 215 20 0 0 214 20 0 0 213 20 0 0
EndChar
StartChar: uni0E34.left
Encoding: 129 63233 97
Width: 0
Flags: HW
HStem: 454 40<-227 -191> 520 49<-193 -171>
Back
-140.137 477.051 m 0
 -130.859 474.121 -122.559 471.68 -115.234 469.238 c 0
 -107.91 466.309 -100.098 463.379 -92.7734 459.961 c 1
 -100.098 472.168 -111.328 483.398 -125.977 493.652 c 0
 -140.625 503.906 -157.227 508.789 -175.781 508.789 c 0
 -185.547 508.789 -195.801 507.812 -207.031 505.371 c 0
 -218.262 502.93 -225.098 498.047 -227.051 490.234 c 0
 -227.539 486.816 -225.098 484.863 -219.238 484.375 c 0
 -212.891 484.375 -207.031 483.887 -201.172 483.887 c 0
 -187.5 483.887 -176.758 483.398 -167.969 481.934 c 0
 -159.18 480.469 -149.902 479.004 -140.137 477.051 c 0
-64.9414 400.879 m 1
 -74.2188 408.203 -85.4492 415.039 -99.1211 420.41 c 0
 -112.305 426.27 -126.465 431.152 -142.09 435.059 c 0
 -151.367 437.5 -161.621 439.941 -172.363 441.895 c 0
 -183.594 443.848 -194.824 444.824 -206.055 444.824 c 0
 -211.426 444.824 -217.285 444.824 -224.121 444.824 c 0
 -230.469 444.824 -236.816 444.824 -242.188 443.848 c 0
 -253.906 443.848 -263.672 444.824 -270.508 445.801 c 0
 -277.344 447.266 -283.203 450.195 -288.086 455.078 c 0
 -291.504 457.52 -293.945 461.426 -296.387 466.309 c 0
 -298.828 471.68 -299.316 476.562 -297.852 480.957 c 0
 -295.41 492.188 -287.598 503.906 -275.391 515.625 c 0
 -263.184 527.344 -251.953 535.645 -242.188 541.016 c 0
 -220.703 551.758 -196.777 557.129 -169.922 557.129 c 0
 -153.32 557.129 -136.719 553.223 -120.117 545.41 c 0
 -103.516 537.598 -88.8672 527.344 -77.1484 514.16 c 0
 -64.9414 500.488 -56.1523 484.863 -49.8047 466.309 c 0
 -43.9453 448.242 -43.457 428.223 -47.8516 407.227 c 1
 -64.9414 400.879 l 1
EndSplineSet
Fore
-205 494 m 0
 -159.022 494 -124.957 484.979 -95 470 c 1
 -110 494 -141 520 -179 520 c 0
 -198 520 -228 517 -232 500 c 2
 -232 499 l 2
 -232 495 -223 494 -214 494 c 0
 -205 494 l 0
-66 409 m 1
 -85 425 -114 436 -145 444 c 0
 -164 449 -187 454 -210 454 c 2
 -228 454 l 2
 -235 454 -241 454 -247 453 c 0
 -272 453 -285 455 -294 465 c 0
 -300 469 -304 479 -304 487 c 2
 -304 491 l 2
 -299 515 -269 543 -248 552 c 1
 -225 564 -201 569 -173 569 c 0
 -112 569 -47 516 -47 444 c 0
 -47 435 -48 425 -50 416 c 1
 -66 409 l 1
EndSplineSet
EndChar
StartChar: uni0E35.left
Encoding: 130 63234 98
Width: 0
Flags: HW
HStem: 463 40<-223 -201> 530 49<-191 -169>
DStem: -78 612 -22 612 -91 550 -49 485
Back
-21.9727 599.121 m 1
 -77.1484 599.121 l 1
 -88.8672 539.062 l 1
 -100.098 547.852 -112.305 554.688 -125.488 559.57 c 0
 -138.672 564.453 -152.344 566.895 -166.992 566.895 c 0
 -194.336 566.895 -218.75 561.523 -240.234 550.781 c 0
 -245.117 548.34 -250.977 544.434 -256.348 540.039 c 0
 -262.207 535.156 -268.066 530.273 -273.438 524.902 c 0
 -279.297 519.531 -284.18 514.16 -288.086 507.812 c 0
 -291.992 501.953 -294.434 496.094 -295.898 490.234 c 0
 -297.363 485.352 -296.875 480.469 -294.922 475.098 c 0
 -292.969 469.727 -290.527 465.82 -287.109 462.891 c 0
 -281.738 458.496 -275.391 455.566 -268.555 454.102 c 0
 -261.719 452.637 -251.953 452.148 -240.234 452.148 c 0
 -234.863 452.637 -228.516 453.125 -222.168 453.125 c 0
 -215.82 453.125 -210.449 453.125 -205.078 453.125 c 0
 -193.848 453.125 -182.129 452.148 -170.898 450.195 c 0
 -159.668 448.242 -149.414 445.801 -140.137 442.871 c 0
 -125.977 438.477 -110.84 432.129 -94.7266 424.805 c 0
 -78.125 417.48 -63.4766 408.691 -49.8047 397.949 c 1
 -46.875 414.551 -44.4336 429.199 -43.9453 441.406 c 0
 -43.457 453.613 -44.4336 464.844 -47.8516 475.098 c 1
 -21.9727 599.121 l 1
-138.184 485.84 m 0
 -147.949 487.793 -157.227 489.746 -166.016 491.211 c 0
 -174.805 492.188 -185.547 493.164 -199.219 493.164 c 0
 -205.078 493.164 -210.938 493.164 -216.797 493.652 c 0
 -223.145 493.652 -225.586 495.605 -225.098 499.023 c 0
 -223.633 506.836 -217.285 512.207 -205.566 515.137 c 0
 -193.848 517.578 -183.105 519.043 -173.828 519.043 c 0
 -155.273 519.043 -138.672 513.672 -124.512 502.93 c 0
 -110.352 492.188 -99.1211 480.469 -91.7969 467.773 c 1
 -98.6328 472.168 -105.469 475.098 -112.793 478.027 c 0
 -120.117 480.469 -128.906 483.398 -138.184 485.84 c 0
EndSplineSet
Fore
-245 462 m 0
 -282.144 462 -302 470.117 -302 496 c 2
 -302 500 l 2
 -297 524 -267 551 -245 563 c 0
 -223 574 -199 579 -171 579 c 0
 -141 579 -115 568 -91 550 c 1
 -78 612 l 1
 -22 612 l 1
 -49 485 l 1
 -46 477 -45 467 -45 457 c 0
 -45 443 -47 426 -52 406 c 1
 -79 428 -113 443 -143 452 c 0
 -162 457 -186 463 -209 463 c 2
 -227 463 l 2
 -234 463 -240 463 -245 462 c 0
-203 503 m 0
 -156.117 503 -121.735 494.42 -93 478 c 1
 -108 503 -139 530 -177 530 c 0
 -196 530 -226 526 -230 510 c 2
 -230 509 l 2
 -230 504 -221 503 -211 503 c 0
 -208 503 -206 503 -203 503 c 0
EndSplineSet
EndChar
StartChar: uni0E36.left
Encoding: 131 63235 99
Width: 0
Flags: HW
HStem: 463 40<-223 -201> 530 49<-191 -169> 572 40<-79 -69>
VStem: -63 43<551 563>
Back
-46.875 414.062 m 1
 -41.0156 443.848 -43.457 470.215 -54.1992 493.164 c 1
 -45.4102 498.535 -38.0859 505.371 -32.2266 513.672 c 0
 -25.8789 521.973 -21.9727 530.762 -20.0195 540.039 c 0
 -16.6016 556.152 -20.0195 569.824 -29.2969 581.543 c 0
 -39.0625 593.262 -51.7578 599.121 -67.8711 599.121 c 0
 -80.5664 599.121 -92.7734 595.703 -104.492 588.379 c 0
 -116.211 581.543 -125.488 572.266 -132.812 561.035 c 1
 -144.531 564.941 -155.762 566.895 -166.992 566.895 c 0
 -194.336 566.895 -218.75 561.523 -240.234 550.781 c 0
 -245.117 548.34 -250.977 544.434 -256.348 540.039 c 0
 -262.207 535.156 -268.066 530.273 -273.438 524.902 c 0
 -279.297 519.531 -284.18 514.16 -288.086 507.812 c 0
 -291.992 501.953 -294.434 496.094 -295.898 490.234 c 0
 -297.363 485.352 -296.875 480.469 -294.922 475.098 c 0
 -292.969 469.727 -290.527 465.82 -287.109 462.891 c 0
 -281.738 458.496 -275.391 455.566 -268.555 454.102 c 0
 -261.719 452.637 -251.953 452.148 -240.234 452.148 c 0
 -234.863 452.637 -228.516 453.125 -222.168 453.125 c 0
 -215.82 453.125 -210.449 453.125 -205.078 453.125 c 0
 -193.848 453.125 -182.129 452.148 -170.898 450.195 c 0
 -159.668 448.242 -149.414 445.801 -140.137 442.871 c 0
 -125.488 438.477 -111.328 433.105 -97.6562 427.734 c 0
 -83.9844 421.875 -72.2656 415.527 -62.9883 408.203 c 1
 -46.875 414.062 l 1
-138.184 485.84 m 0
 -147.949 487.793 -157.227 489.746 -166.016 491.211 c 0
 -174.805 492.188 -185.547 493.164 -199.219 493.164 c 0
 -205.078 493.164 -210.938 493.164 -216.797 493.652 c 0
 -223.145 493.652 -225.586 495.605 -225.098 499.023 c 0
 -223.633 506.836 -217.285 512.207 -205.566 515.137 c 0
 -193.848 517.578 -183.105 519.043 -173.828 519.043 c 0
 -155.273 519.043 -138.672 513.672 -124.512 502.93 c 0
 -110.352 492.188 -99.1211 480.469 -91.7969 467.773 c 1
 -98.6328 472.168 -105.469 475.098 -112.793 478.027 c 0
 -120.117 480.469 -128.906 483.398 -138.184 485.84 c 0
-99.1211 540.039 m 0
 -97.6562 545.41 -94.7266 549.805 -90.332 554.199 c 0
 -85.9375 558.105 -81.543 560.059 -76.1719 560.059 c 0
 -70.8008 560.059 -66.8945 558.105 -63.9648 554.199 c 0
 -61.5234 549.805 -60.5469 545.41 -62.0117 540.039 c 0
 -65.4297 527.344 -72.7539 520.996 -83.9844 520.996 c 0
 -89.3555 520.996 -93.2617 522.949 -96.6797 526.367 c 0
 -99.6094 530.273 -100.098 534.668 -99.1211 540.039 c 0
EndSplineSet
Fore
-245 462 m 0
 -282.144 462 -302 470.117 -302 496 c 2
 -302 500 l 2
 -297 524 -267 551 -245 563 c 0
 -223 574 -199 579 -171 579 c 0xd0
 -159 579 -147 577 -135 573 c 1
 -121 596 -95 612 -69 612 c 0
 -40 612 -20 591 -20 563 c 0
 -20 559 -20 555 -21 551 c 0
 -25 532 -36 516 -55 503 c 1
 -48 488 -45 472 -45 455 c 0
 -45 445 -46 434 -48 423 c 1xb0
 -64 417 l 1
 -83 432 -113 443 -143 452 c 0
 -162 457 -186 463 -209 463 c 2
 -227 463 l 2
 -234 463 -240 463 -245 462 c 0
-203 503 m 0
 -156.117 503 -121.735 494.42 -93 478 c 1
 -108 503 -139 530 -177 530 c 0
 -196 530 -226 526 -230 510 c 2
 -230 509 l 2
 -230 504 -221 503 -211 503 c 0
 -208 503 -206 503 -203 503 c 0
-86 532 m 0
 -72.7732 532 -63 542.823 -63 558 c 0
 -63 566 -68 572 -77 572 c 0xb0
 -88 572 -99 563 -102 551 c 2
 -102 547 l 2
 -102 538 -96 532 -86 532 c 0
EndSplineSet
EndChar
StartChar: uni0E37.left
Encoding: 132 63236 100
Width: 0
Flags: HW
HStem: 462 41<-245 -211> 530 50<-191 -171>
DStem: -67 612 -22 612 -82 541 -49 485
Back
-166.992 566.895 m 2
 -180.176 568.359 -193.359 567.383 -206.055 563.965 c 0
 -218.75 560.547 -229.98 556.152 -240.234 550.781 c 0
 -245.117 548.34 -250.977 544.434 -256.348 540.039 c 0
 -262.207 535.156 -268.066 530.273 -273.438 524.902 c 0
 -279.297 519.531 -284.18 514.16 -288.086 507.812 c 0
 -291.992 501.953 -294.434 496.094 -295.898 490.234 c 0
 -297.363 485.352 -296.875 480.469 -294.922 475.098 c 0
 -292.969 469.727 -290.527 465.82 -287.109 462.891 c 0
 -281.738 458.984 -275.391 456.055 -268.555 454.59 c 0
 -261.719 452.637 -251.953 452.148 -240.234 452.148 c 0
 -234.863 452.148 -229.004 452.148 -222.656 452.637 c 0
 -216.309 452.637 -210.449 453.125 -205.078 453.125 c 0
 -193.848 453.125 -182.129 452.148 -170.898 450.195 c 0
 -159.668 448.242 -149.414 445.801 -140.137 442.871 c 0
 -125.977 438.477 -110.84 432.129 -94.7266 424.805 c 0
 -78.125 417.48 -63.4766 408.691 -49.8047 397.949 c 1
 -46.875 414.551 -44.4336 429.199 -43.9453 441.406 c 0
 -43.457 453.613 -44.4336 464.844 -47.8516 475.098 c 1
 -21.9727 599.121 l 1
 -65.918 599.121 l 1
 -80.0781 529.785 l 1
 -89.8438 539.062 l 2
 -91.3086 540.527 -92.2852 541.504 -93.2617 541.992 c 0
 -94.7266 542.48 -95.7031 543.457 -97.168 544.922 c 1
 -85.9375 599.121 l 1
 -129.883 599.121 l 1
 -137.207 562.988 l 1
 -151.855 565.918 l 1
 -166.992 566.895 l 2
-138.184 485.84 m 0
 -147.949 488.77 -157.227 490.723 -166.016 491.699 c 0
 -174.805 492.676 -185.547 493.164 -199.219 493.164 c 0
 -205.078 493.164 -210.938 493.164 -216.797 493.652 c 0
 -223.145 493.652 -225.586 495.605 -225.098 499.023 c 0
 -223.633 506.836 -217.285 512.207 -205.566 515.137 c 0
 -193.848 517.578 -183.105 519.043 -173.828 519.043 c 0
 -155.273 519.043 -138.672 513.672 -124.512 502.93 c 0
 -110.352 492.188 -99.1211 480.469 -91.7969 467.773 c 1
 -98.6328 472.168 -105.469 475.098 -112.793 478.027 c 0
 -120.117 480.469 -128.906 483.398 -138.184 485.84 c 0
EndSplineSet
Fore
-245 462 m 0
 -279.714 462 -302 470.088 -302 496 c 2
 -302 500 l 2
 -297 524 -267 551 -245 563 c 0
 -226 572 -205 580 -183 580 c 0
 -179 580 -175 579 -171 579 c 2
 -155 578 l 1
 -140 575 l 1
 -132 612 l 1
 -87 612 l 1
 -99 556 l 1
 -90.4738 549.605 -88.5362 547.536 -82 541 c 1
 -67 612 l 1
 -22 612 l 1
 -49 485 l 1
 -46 477 -45 467 -45 457 c 0
 -45 443 -47 426 -52 406 c 1
 -79 428 -113 443 -143 452 c 0
 -162 457 -186 463 -209 463 c 0
 -221 463 -234 462 -245 462 c 0
-203 503 m 0
 -156.117 503 -121.82 494.468 -93 478 c 1
 -108 503 -139 530 -177 530 c 0
 -196 530 -226 526 -230 510 c 2
 -230 509 l 2
 -230 504 -221 503 -211 503 c 0
 -208 503 -206 503 -203 503 c 0
EndSplineSet
EndChar
StartChar: ellipsis
Encoding: 133 8230 101
Width: 682
Flags: HW
HStem: -9 21G<97 127 324 354.5 551 581.5>
VStem: 65 117<36 61> 292 118<36 61> 520 117<36 61>
Back
315.918 32.2266 m 0
 311.523 10.7422 293.457 -1.95312 263.184 -5.85938 c 1
 233.887 -5.85938 220.215 6.34766 223.145 30.7617 c 0
 227.539 57.6172 246.094 70.8008 277.832 70.8008 c 0
 291.504 70.8008 301.758 66.8945 310.059 59.082 c 0
 315.918 51.7578 317.871 42.4805 315.918 32.2266 c 0
461.914 32.2266 m 1
 457.52 10.7422 439.453 -1.95312 408.203 -5.85938 c 1
 379.395 -5.85938 366.211 6.34766 369.141 30.7617 c 0
 373.535 57.6172 391.602 70.8008 422.852 70.8008 c 0
 436.523 70.8008 447.266 66.8945 456.055 59.082 c 1
 460.449 51.7578 462.891 42.4805 461.914 32.2266 c 1
170.898 32.2266 m 0
 165.039 6.83594 146.484 -5.85938 116.211 -5.85938 c 0
 84.4727 -5.85938 71.7773 6.83594 78.125 32.2266 c 0
 83.4961 58.1055 101.562 70.8008 131.836 70.8008 c 0
 163.574 70.8008 176.27 58.1055 170.898 32.2266 c 0
EndSplineSet
Fore
136 107 m 0
 164 107 182 87 182 61 c 0
 182 57 182 52 181 48 c 0
 174 16 143 -9 111 -9 c 0
 83 -9 65 10 65 36 c 0
 65 40 65 45 66 49 c 0
 73 80 105 107 136 107 c 0
364 107 m 0
 392 107 410 87 410 61 c 0
 410 57 410 52 409 48 c 0
 402 16 371 -9 338 -9 c 0
 310 -9 292 10 292 36 c 0
 292 40 292 45 293 49 c 0
 300 80 332 107 364 107 c 0
591 107 m 0
 619 107 637 87 637 61 c 0
 637 57 637 52 636 48 c 0
 629 16 598 -9 565 -9 c 0
 537 -9 520 10 520 36 c 0
 520 40 520 44 521 49 c 0
 528 80 560 107 591 107 c 0
EndSplineSet
EndChar
StartChar: uni0E48.low_left
Encoding: 134 63237 102
Width: 0
Flags: HW
DStem: -95 592 -33 592 -107 529 -50 528
Back
-33.2031 580.078 m 1
 -48.8281 517.09 l 1
 -73.2422 442.871 l 2
 -74.2188 438.965 -77.6367 435.547 -83.0078 432.617 c 0
 -88.3789 429.688 -92.7734 428.223 -96.1914 428.223 c 0
 -100.586 428.223 -104.98 429.688 -108.398 432.617 c 0
 -112.305 435.547 -113.77 438.965 -112.793 442.871 c 1
 -104.004 518.066 l 1
 -92.7734 580.078 l 1
 -33.2031 580.078 l 1
EndSplineSet
Fore
-33 592 m 1
 -45.0524 543.386 -59.541 497.208 -75 452 c 0
 -78 444 -91 437 -98 437 c 0
 -107 437 -115 443 -115 451 c 0
 -115 477.727 -107 502.556 -107 529 c 1
 -95 592 l 1
 -33 592 l 1
EndSplineSet
EndChar
StartChar: uni0E49.low_left
Encoding: 135 63238 103
Width: 0
Flags: HW
HStem: 564 25<-184 -177>
VStem: -239 31<512 525> -169 31<546 548>
Back
-12.207 577.148 m 1
 -74.2188 577.148 l 1
 -82.5195 537.598 -96.6797 508.301 -116.211 488.77 c 1
 -130.859 472.168 -148.926 461.914 -170.898 458.008 c 1
 -154.297 473.145 -143.066 495.117 -137.207 522.949 c 0
 -133.789 537.109 -135.742 549.316 -142.578 560.547 c 0
 -149.414 571.289 -159.668 577.148 -172.852 577.148 c 0
 -187.012 577.148 -199.707 571.289 -210.449 559.57 c 0
 -221.68 547.852 -228.516 535.156 -231.934 521.973 c 0
 -239.258 490.234 -231.445 471.191 -208.984 465.82 c 1
 -221.191 457.52 -234.863 452.148 -250.977 451.172 c 1
 -257.812 418.945 l 1
 -200.195 418.945 l 2
 -179.199 418.945 -160.156 422.363 -142.578 429.199 c 0
 -125 435.547 -107.422 444.824 -89.8438 456.055 c 0
 -49.8047 483.398 -23.9258 523.438 -12.207 577.148 c 1
-202.148 520.996 m 0
 -200.684 529.785 -197.754 537.109 -192.871 542.969 c 0
 -188.477 548.828 -183.105 551.758 -178.223 551.758 c 0
 -172.852 551.758 -168.945 548.828 -167.48 542.969 c 0
 -166.016 537.109 -165.527 529.785 -166.992 520.996 c 0
 -168.945 512.207 -172.363 504.883 -176.27 499.023 c 0
 -180.664 493.164 -185.547 490.234 -190.918 490.234 c 0
 -196.289 490.234 -200.195 493.164 -202.148 499.023 c 0
 -204.102 504.883 -204.102 512.207 -202.148 520.996 c 0
EndSplineSet
Fore
-13 589 m 1
 -24 535 -50 494 -92 466 c 0
 -127 442 -162 428 -204 428 c 2
 -263 428 l 1
 -256 461 l 1
 -240 462 -226 467 -213 476 c 1
 -231 480 -239 492 -239 512 c 0
 -239 518 -239 525 -237 533 c 0
 -231 561 -206 589 -177 589 c 0
 -154 589 -138 570 -138 546 c 0
 -138 542 -138 538 -139 534 c 0
 -145 506 -157 485 -175 468 c 1
 -152 472 -134 482 -119 499 c 1
 -99 519 -84 549 -76 589 c 1
 -13 589 l 1
-181 564 m 0
 -193.851 564 -208 544.863 -208 521 c 0
 -208 509 -203 500 -195 500 c 0
 -180.888 500 -169 527.689 -169 546 c 0
 -169 556 -173 564 -181 564 c 0
EndSplineSet
EndChar
